<svg xmlns="http://www.w3.org/2000/svg" width="620.172" height="134.844" viewBox="0 0 620.172 134.844"><path fill="#FFD400" d="M63.863 92.667c-.91-3.452-.876-6.392 2.163-7.183 1.723-.446 2.58-.672 4.305-1.11l-2.31-9.063c-10.49 2.68-15.72 4.09-26.15 7.05l2.557 9 2.018-.57c2.523-.71 5.034.51 6.28 5.025 2.73 9.847-2.565 13.36-7.877 14.9-7.904 2.287-14.112-6.227-16.11-12.822l-9.484-31.34c-1.996-6.598-2.13-14.03 5.497-15.892 11.88-2.9 19.556 14.54 22.23 23.883 5.28-1.46 7.925-2.175 13.22-3.562l-9.27-35.367c-3.622.95-5.43 1.433-9.05 2.415.42 1.545.5 3.943-1.09 4.38-1.983.543-4.6.013-6.912-.256-3.658-.425-7.546-.275-11.375.825C7.42 47.305-1.047 62.897 3.69 77.855 6.212 85.68 7.475 89.595 10 97.423c4.79 15.104 18.803 26.353 35.076 21.423 3.866-1.172 7.617-2.574 9.352-3.955 1.733-1.383 3.228-2.69 4.584-3.062s2.515.462 3.297 1.397c2.603-.71 3.91-1.058 6.52-1.748L63.86 92.67v-.003zm54.602-18.55c.65 1.376.978 2.063 1.626 3.44 3.89 8.76 2.98 12.202-.08 13.835-1.232.604-1.85.907-3.08 1.517l1.43 6.87c10.19-2.13 20.418-4.09 30.67-5.886l-1.206-6.912c-1.503-.286-2.256-.428-3.762-.71-2.27-.345-5.04-3.468-8.91-11.516-8.46-17.54-17.18-34.956-26.164-52.234-5.002 1.01-7.498 1.53-12.492 2.602-1.43 18.13-2.646 36.26-3.666 54.416-.712 13.177-1.95 17.265-4.84 18.97-1.018.6-1.52.9-2.537 1.5l1.66 6.82c10.487-2.553 15.744-3.755 26.28-6.01l-1.466-6.86c-1.376-.06-2.065-.087-3.44-.14-2.965-.363-6.01-5.11-5.67-12.622.09-1.53.133-2.3.225-3.833 6.164-1.354 9.25-2.003 15.432-3.257l-.002.005zm51.327-44.345c.105-.016.16-.02.266-.037 7.05 19.207 13.905 38.475 20.563 57.82 3.27-.425 4.9-.634 8.17-1.03 1.616-20.385 3.42-40.746 5.438-61.094.107-.01.16-.02.27-.03 1.534 14.117 3.068 28.23 4.605 42.35.61 5.63-.037 9.16-3.123 10.25-1.09.37-1.63.56-2.717.934.32 2.786.483 4.18.807 6.97 9.723-1.13 19.46-2.11 29.212-2.943l-.6-6.99c-1.645-.105-2.467-.16-4.114-.26-3.23-.327-4.584-3.78-5.112-9.42-1.33-14.136-2.655-28.27-3.983-42.41-.54-5.76.74-9.47 3.4-10.2 1.706-.4 2.564-.6 4.273-.99l-.6-6.994c-9.943.854-19.875 1.84-29.79 2.98-1.243 12.81-2.38 25.633-3.423 38.462-4.236-12.186-8.57-24.336-13.01-36.45-10.134 1.32-20.25 2.8-30.34 4.417l1.113 6.928c1.76-.032 2.636-.047 4.393-.072 2.76.067 4.91 3.354 5.78 9.075l6.4 42.112c.85 5.6.37 9.276-2.565 10.357-1.578.497-2.363.746-3.938 1.248l1.11 6.93c9.162-1.47 13.75-2.15 22.94-3.4-.38-2.78-.568-4.172-.946-6.953-1.147-.093-1.72-.14-2.87-.23-3.262-.29-4.764-3.55-5.566-9.155-2.018-14.055-4.03-28.11-6.05-42.165h.007zM280.076 43.52l-.308-8.735c-5.24.185-7.86.292-13.096.545-.31-6.395-.463-9.59-.77-15.983-.274-5.656 1.614-8.728 8.522-9 6.367-.253 11.923 4.4 12.184 13.63.06 2.067.088 3.1.147 5.168 3.352-.095 5.03-.137 8.382-.203-.216-10.732-.32-16.1-.535-26.833-17.9.45-35.75 1.27-53.62 2.45.2 2.8.305 4.2.504 7 1.75.12 2.62.18 4.37.31 2.74.31 4.587 3.77 4.95 9.55.897 14.17 1.788 28.34 2.687 42.51.355 5.65-.43 9.393-3.45 10.09-1.61.354-2.417.534-4.026.895l.5 7c16.52-1.185 33.072-1.94 49.632-2.27l-.56-27.815c-3.276.066-4.916.107-8.19.2.07 2.41.103 3.616.17 6.028.216 7.63-1.77 13.927-10.688 14.28-6.495.26-8.576-3.195-8.813-8.114l-.973-20.17c5.19-.25 7.785-.356 12.978-.54zm114.5-11.57c1.187-15.677-10.37-28.81-26.076-29.563-15.478-.743-28.517 11.237-28.933 26.763-.274 9.4-.416 14.1-.69 23.5-.726 15.33 10.13 28.096 25.598 28.795 15.445.697 27.322-11.956 28.336-26.914l1.77-22.58zm10.75-19.125c1.71.396 2.565.594 4.272.997 2.67.615 4.354 4.367 4.89 8.625 2.335 20.91 4.464 41.832 6.376 62.783 5.437.6 8.15.918 13.58 1.59 7.574-18.036 15.426-35.956 23.56-53.75 3.54-7.83 5.586-12.39 8.614-12.44 1.76.01 2.64.02 4.396.036.42-2.775.633-4.162 1.055-6.938-10.45-1.587-15.687-2.314-26.16-3.636-.357 2.785-.53 4.178-.88 6.963 1.69.462 2.54.694 4.23 1.163 3.44.945 4.242 4.038 1.807 9.055-5.84 13.25-11.56 26.54-17.173 39.886-1.288-14.39-2.67-28.758-4.14-43.12-.48-5.38.862-7.716 3.873-7.74 1.757-.048 2.63-.07 4.386-.107l.832-6.966c-10.964-1.245-21.923-2.376-32.91-3.394l-.61 6.99-.002-.002zm108.167 49.838c.69-3.427 1.037-5.14 1.73-8.567-5.163-1.04-7.745-1.545-12.917-2.518 1.184-6.29 1.775-9.437 2.96-15.728 1.046-5.565 3.603-8.116 10.415-6.773 6.28 1.237 10.63 7.06 8.74 16.098l-1.05 5.06c3.3.69 4.944 1.044 8.237 1.76l5.707-26.222c-17.587-3.727-35.21-7.088-52.93-10.102-.456 2.77-.686 4.16-1.14 6.93 1.68.526 2.516.79 4.19 1.32 2.6.94 3.6 4.74 2.615 10.44l-7.253 41.97c-.966 5.58-2.6 9.04-5.707 9.02-1.655-.03-2.48-.042-4.135-.063l-1.14 6.928c16.414 2.688 32.754 5.813 49 9.348l5.92-27.186c-3.22-.7-4.832-1.046-8.057-1.72-.494 2.36-.74 3.543-1.232 5.906-1.56 7.47-4.97 13.13-13.76 11.397-6.407-1.266-7.638-5.11-6.73-9.948 1.493-7.937 2.24-11.898 3.733-19.84 5.13.966 7.686 1.464 12.804 2.495v-.002zm64.78 18.25c5.857 1.598 5.744 9.688 4.605 16.735-2.402 14.847.043 20.357 8.737 23.045 10.517 3.25 16.103-8.704 18.273-16.937l1.69-5.403c-2.91-.91-4.364-1.36-7.278-2.248l-1.648 5.418c-.79 2.59-2.467 6.324-4.328 5.764-1.983-.6-1.514-3.938-.15-10.84 1.316-6.664 1-11.656-2.475-15.872l.06-.237c5.568-1.074 11.546-5.217 14.48-14.46 4.343-13.65-6.41-23.913-18.982-26.85-12.474-3.42-25.01-6.61-37.604-9.56l-1.6 6.83c1.643.64 2.465.96 4.106 1.605 2.54 1.114 3.283 4.973 1.914 10.595-3.36 13.795-6.72 27.59-10.074 41.386-1.34 5.502-3.183 8.722-6.32 8.604-1.654-.143-2.48-.21-4.133-.346l-1.604 6.832c10.206 2.396 20.376 4.955 30.5 7.683l1.825-6.777c-1.103-.45-1.653-.673-2.76-1.12-4.34-1.662-4.725-5.822-3.302-11.304 1.63-6.292 2.44-9.438 4.074-15.73 4.8 1.245 7.198 1.884 11.985 3.19l.003-.003z"/><path fill="#ED1C24" d="M76.03 122.738c-1.313-1.06-2.845-1.93-4.43-1.512-1.464.385-3.053 1.35-5.1 2.892-2.68 2.016-6.44 3.688-9.702 4.597-21.635 6.027-42.464-10.328-48.96-30.42L1.486 78.74c-5.216-15.847 3.77-32.713 19.73-37.4 4.908-1.44 8.695-1.81 12.09-1.42 2.327.266 4.845.95 5.907.658.796-.22.574-2.07.086-3.853 4.842-1.328 7.27-1.977 12.13-3.245 5.665 3.355 8.475 5.05 14.05 8.482l8.426 33.806c3.21 1.99 4.81 2.994 7.99 5.01l3.217 13.28c-1.756.425-2.633.64-4.387 1.072-2.13.526-3.453 2.13-2.763 4.876 2.1 8.357 3.146 12.537 5.248 20.895-2.876.73-4.313 1.1-7.186 1.846l.002-.004zM63.963 92.81c-.912-3.452-.878-6.393 2.16-7.183 1.723-.447 2.585-.67 4.31-1.107-.926-3.63-1.39-5.443-2.313-9.07-10.488 2.677-15.72 4.09-26.15 7.053l2.555 9c.807-.23 1.21-.344 2.018-.57 2.52-.712 5.034.51 6.282 5.02 2.726 9.85-2.57 13.36-7.883 14.898-7.903 2.296-14.11-6.22-16.107-12.814-3.16-10.447-6.322-20.896-9.485-31.342-2-6.6-2.13-14.03 5.493-15.892C36.72 47.9 44.4 65.34 47.073 74.684c5.28-1.46 7.926-2.175 13.223-3.562-3.09-11.79-6.18-23.576-9.268-35.366-3.626.946-5.438 1.43-9.055 2.413.42 1.544.503 3.943-1.085 4.38-1.986.542-4.608.014-6.92-.255-3.657-.426-7.54-.278-11.37.822C7.52 47.445-.944 63.032 3.79 77.992l6.31 19.57c4.778 15.106 18.813 26.35 35.074 21.42 3.867-1.17 7.622-2.57 9.354-3.95 1.734-1.38 3.23-2.69 4.584-3.063 1.354-.37 2.51.46 3.29 1.393 2.61-.71 3.916-1.058 6.528-1.747l-4.967-18.81zM6.458 78.82c-4.52-13.977 2.15-29.47 16.727-33.694 3.96-1.147 7.675-1.106 10.396-.68 2.947.46 5.65.85 8.56.056 1.988-.542 3.29-3.063 2.81-4.846 1.7-.457 2.55-.682 4.25-1.132l8.25 31.18c-3.45.913-5.172 1.377-8.62 2.32C45.6 62 37.28 45.114 24.22 48.67c-9.878 2.69-9.504 11.192-7.204 18.728L21.87 83.29c-2.196-.356-6.046 1.265-6.104 1.888-.053.566 4.904 3.483 5.59 4.584 1.45 2.326 3.71 19.987 3.71 19.987-.113.05-11.643-14.888-11.796-17.46-.075-1.27 2.36-6.69 2.113-6.99-.465-.57-4.743.46-6.22 1.962-1.08-3.377-1.62-5.066-2.702-8.443v-.003zm9.268 6.24c-.686-4.43 1.423-8.38 1.28-9.42-.326-2.36-6.065-15.52-6.065-15.52-.17-.016-3.26 16.16-2.132 18.084.61 1.044 4.455 2.983 6.54 6.978.154-.047.23-.072.384-.12h-.002zm29.4-8.95C39.632 59.883 36.272 57.497 33.4 58.317c-3.257.932-2.43 4.29-.89 9.61 3.188 10.996 6.37 21.993 9.556 32.99.89 3.075 3.45 5.404 6.43 4.56 3.105-.884 3.456-4.427 2.197-8.932-.826-2.965-3.584-3.603-5.72-2.995-.855.24-1.285.363-2.14.61L39.1 81.14c3.872-1.11 5.81-1.655 9.693-2.726-1.462-.923-2.196-1.384-3.667-2.303zm64.46-55.8c7.173 4.436 10.72 6.686 17.74 11.242C135.106 47.29 142.713 63.1 150.156 79c1.807 3.688 5.65 8.773 10.06 10.553.974 5.98 1.46 8.967 2.43 14.944-10.665 1.8-21.292 3.713-31.92 5.746-1.608-1.438-2.42-2.154-4.044-3.586l.85 4.226c-10.41 2.094-20.79 4.365-31.13 6.807-4.413-3.613-6.64-5.407-11.13-8.97l-2.41-9.805c1.204-.702 1.81-1.05 3.017-1.747 2.89-1.716 4.18-6.197 4.76-16.95.98-18.92 2.18-37.813 3.6-56.706 6.13-1.328 9.2-1.97 15.344-3.204l-.002.002zm8.98 53.95c.65 1.376.977 2.064 1.624 3.44 3.89 8.76 2.984 12.202-.08 13.836-1.234.604-1.85.907-3.083 1.517.572 2.748.86 4.12 1.434 6.87 10.19-2.126 20.42-4.084 30.67-5.878-.48-2.765-.73-4.148-1.21-6.913-1.502-.287-2.253-.426-3.76-.707-2.27-.346-5.04-3.47-8.91-11.518-8.454-17.543-17.182-34.956-26.17-52.234-5 1.01-7.5 1.53-12.49 2.602-1.43 18.13-2.646 36.26-3.664 54.417-.713 13.18-1.952 17.268-4.84 18.975-1.02.6-1.526.9-2.54 1.5l1.66 6.818c10.485-2.553 15.743-3.756 26.28-6.01-.587-2.746-.88-4.115-1.47-6.86-1.372-.058-2.06-.087-3.435-.14-2.967-.363-6.01-5.107-5.67-12.62.087-1.532.13-2.3.22-3.833 6.167-1.355 9.254-2.006 15.436-3.26l.003-.002zm-19.53-47.366c3.376-.718 5.064-1.067 8.445-1.757 5.71 10.84 11.306 21.733 16.79 32.682-1.74-.67-4.63.39-4.67.91-.05.58 5.43 3.71 6.21 4.93 1.41 2.22 4.46 19.7 4.46 19.7-.032.017-12.24-15.306-12.714-18.066-.17-.993 2.09-5.988 1.657-6.49-.63-.736-3.823-.235-4.663.94-4.19-9.145-6.31-13.71-10.605-22.82-.104.02-.16.03-.266.054-.85 10.19-1.24 15.287-1.95 25.47-1.765-.625-3.58-.226-5.306 1.17.754-12.253 1.623-24.498 2.615-36.73v.002zm4.71 39.277c.57-7.83.878-11.74 1.532-19.58l.525-.11c3.283 7.01 4.91 10.52 8.13 17.55-4.078.837-6.118 1.266-10.19 2.147l.003-.002zm15.83-7.55c-.84-4.226-.067-7.833-.37-8.71-.596-1.73-11.193-14.7-11.193-14.7-.063.03 3.035 14.92 3.74 16.197.655 1.192 4.647 3.453 7.437 7.292l.39-.078h-.004zM182.45 8.33c4.332 4.01 6.478 6.027 10.73 10.083.432-4.613.652-6.92 1.106-11.534 11.535-1.275 23.063-2.43 34.625-3.456 4.44 4.474 6.64 6.722 10.987 11.24.285 3.88.43 5.82.714 9.7-1.64.367-2.46.55-4.1.925-2.385.43-4.31 3.184-3.767 9.81 1.1 13.497 2.214 26.992 3.315 40.49 3.698 3.944 5.532 5.93 9.16 9.91l.676 9.206c-14.66 1.166-29.265 2.575-43.877 4.235-1.668-1.732-2.51-2.6-4.19-4.33l.593 4.77c-9.476 1.17-18.928 2.49-28.36 3.947-3.797-3.6-5.714-5.39-9.575-8.95-.73-4.473-1.093-6.707-1.82-11.18 1.923-.61 2.884-.916 4.81-1.52 2.326-.865 2.69-4.408 2.03-8.667l-6.397-41.485c-.864-5.597-3.007-7.016-5.59-6.854-1.764-.02-2.643-.026-4.405-.04-.728-4.47-1.095-6.704-1.822-11.175 11.69-1.906 23.41-3.618 35.16-5.12h.004zm-12.556 21.583c.106-.016.16-.02.267-.037 7.06 19.205 13.91 38.476 20.567 57.82 3.266-.425 4.898-.632 8.166-1.03 1.61-20.386 3.42-40.748 5.437-61.1l.267-.025c1.537 14.116 3.07 28.23 4.606 42.345.61 5.63-.032 9.162-3.12 10.255l-2.72.936.813 6.973c9.72-1.13 19.46-2.11 29.21-2.948-.237-2.795-.357-4.19-.596-6.99-1.646-.104-2.47-.16-4.116-.26-3.23-.326-4.582-3.78-5.11-9.42-1.33-14.133-2.657-28.27-3.985-42.403-.54-5.76.74-9.47 3.4-10.2 1.705-.4 2.562-.6 4.272-.995l-.6-6.993c-9.943.85-19.876 1.843-29.79 2.98-1.244 12.81-2.38 25.635-3.425 38.464-4.237-12.185-8.574-24.334-13.007-36.45-10.134 1.325-20.25 2.793-30.34 4.417l1.113 6.93c1.76-.03 2.634-.05 4.39-.073 2.767.07 4.91 3.356 5.78 9.077 2.14 14.037 4.27 28.074 6.403 42.11.853 5.6.373 9.276-2.562 10.356-1.575.497-2.36.75-3.936 1.25.445 2.77.666 4.156 1.11 6.93 9.164-1.474 13.754-2.15 22.94-3.4l-.944-6.954c-1.148-.097-1.72-.145-2.868-.23-3.264-.294-4.767-3.555-5.57-9.16-2.017-14.058-4.03-28.11-6.048-42.167zm8.502-16.708c4.12 11.324 8.154 22.68 12.112 34.062-1.3-.83-4.474.01-4.58.58-.11.6 4.87 3.84 5.59 5.37.936 1.98 1.738 20.13 1.738 20.13-.05.01-9.664-17.018-9.803-19.09-.083-1.24 2.53-5.84 2.082-6.36-.724-.846-4.58-.39-6.016.802-2.82-7.77-4.25-11.648-7.137-19.398-.657-1.773-1.72-3.49-3.323-3.26-1.472.213-1.74 2.12-1.473 3.947 1.166 7.99 1.747 11.986 2.91 19.98-1.316-.806-2.884-.576-3.784.555l-2.95-19.72c-1.385-9.25-4.557-11.143-7.057-11.255-1.434.02-2.148.033-3.58.06l-.426-2.672c10.26-1.624 15.403-2.374 25.69-3.74v.004zm7.516 34.524c-.496-2.79.854-7.56.604-8.77-.54-2.575-10.694-15.344-10.694-15.344-.08.03 1.247 15.013 1.857 16.52.79 1.962 6.03 5.026 7.84 7.647.15-.018.23-.028.39-.05v-.002zm38.602-39.61c.095 1.08.145 1.62.238 2.7-1.394.32-2.09.48-3.48.806-2.393.713-5.008 3.316-4.11 12.63l1.913 19.85c-1.405-.855-4.6-.103-4.72.466-.13.6 4.364 4.625 4.645 5.6.506 1.77-2.27 20.516-2.27 20.516-.037.002-6.47-17.944-6.336-19.64.085-1.1 3.64-5.985 3.43-6.424-.296-.62-3.644-.613-4.85.506l-2.138-20.078c-.195-1.836-.93-3.616-2.406-3.456-1.742.19-2.21 2.1-2.542 3.995-.764 8.21-1.13 12.317-1.826 20.527-1.29-.844-2.732-.675-3.927.46.997-11.99 2.09-23.97 3.26-35.945 10.037-1.127 15.063-1.63 25.117-2.514h.002zm-10.177 36.33c.222-4.35 3.09-8.085 3.104-8.97.028-1.305-5.91-16.11-5.91-16.11-.042.004-2.92 15.92-2.68 16.985.207.926 3.877 3.928 4.968 8.148.21-.02.315-.03.525-.052h-.002zm29.34-30.057c-1.75-.175-2.62-.258-4.37-.425L238.47 2.67C257.84 1.36 277.18.47 296.58 0c4.36 4.944 6.514 7.43 10.77 12.42.077 9.683.153 19.366.232 29.05-5.52.044-8.28.084-13.8.203-3.61-4.256-5.436-6.376-9.126-10.6l-.132-4.307c-.078-2.584-.792-4.042-2.935-3.97-2.28.074-3.278 2.085-3.06 4.417l.242 3.07c4.887 5.588 7.297 8.397 12.05 14.043.057 2.215.082 3.324.138 5.54 2.606-.065 3.91-.093 6.52-.14 4.155 5.047 6.21 7.58 10.262 12.67.08 9.93.155 19.86.236 29.79-18.275.26-36.49.93-54.73 2.008-3.46-3.92-5.208-5.87-8.734-9.756l-.834-11.295c1.965-.44 2.95-.662 4.917-1.095 2.385-.657 3.053-4.15 2.77-8.45-.913-13.964-1.823-27.928-2.735-41.89-.37-5.65-2.374-7.25-4.958-7.315zm36.503 29.27c-.123-3.493-.187-5.24-.31-8.735-5.238.183-7.855.292-13.093.545-.31-6.395-.463-9.59-.77-15.985-.274-5.656 1.61-8.73 8.52-9 6.367-.253 11.925 4.4 12.186 13.63.06 2.067.086 3.1.145 5.167 3.353-.095 5.03-.136 8.38-.202l-.533-26.834c-17.9.46-35.748 1.275-53.615 2.45l.5 7c1.75.12 2.625.187 4.373.315 2.74.31 4.585 3.773 4.95 9.548.896 14.17 1.786 28.34 2.683 42.508.356 5.655-.428 9.4-3.447 10.1-1.61.355-2.42.534-4.03.896l.5 7c16.52-1.187 33.07-1.94 49.63-2.27-.22-11.127-.334-16.69-.557-27.817-3.275.064-4.915.105-8.19.2l.17 6.026c.216 7.63-1.772 13.928-10.69 14.28-6.49.26-8.57-3.195-8.81-8.113l-.976-20.165c5.19-.25 7.785-.357 12.98-.54zm12.248-39.267c.2 9.06.304 13.585.505 22.644-1.493.03-2.24.05-3.732.09-.03-1.23-.043-1.846-.08-3.076-.33-12.8-8.56-15.896-14.67-15.655-9.095.36-11.124 5.924-10.855 11.21.37 7.28.555 10.92.923 18.197 5.276-.27 7.915-.385 13.193-.583l.11 2.955c-3.064-.87-7.244.4-9.07.5-1.93.108-8.77-.17-8.95.337-.146.41 4.28 4.812 4.52 5.802.427 1.79-3.194 20.39-3.194 20.39-.038 0-5.645-18.224-5.436-19.914.133-1.094 3.904-5.81 3.715-6.256-.268-.633-3.74-.772-4.865.283-.482-7.962-.73-11.94-1.21-19.904-.567-9.34-3.555-11.504-6.03-11.835-1.422-.105-2.133-.154-3.56-.253l-.187-2.7c16.27-1.13 32.57-1.88 48.877-2.235V4.4zm-32.64 36.495c.55-4.345 3.58-7.94 3.636-8.822.08-1.307-5.17-16.367-5.17-16.367-.047.006-3.64 15.774-3.45 16.85.164.935 3.69 4.102 4.59 8.367.158-.01.236-.018.396-.026h-.002zm20.1 23.725c.07 1.97.648 3.795 1.93 3.75 1.533-.052 3.875-3.08 3.654-10.34-.023-.788-.035-1.183-.06-1.97-2.33.07-3.496.108-5.827.193l.303 8.365zm124.295-3.06C402.823 80 390.37 95.74 370.785 94.503c-21.602-1.363-34.74-20.71-34.022-41.386.2-9.452.305-14.18.506-23.632.224-17.05 14.62-29.84 31.434-29.04 19.862.946 39.008 17.608 37.51 38.554l-2.034 22.56v-.006zm-9.508-29.46c1.2-15.676-10.375-28.81-26.074-29.563-15.48-.742-28.51 11.235-28.93 26.764l-.686 23.5c-.73 15.33 10.127 28.097 25.596 28.795 15.45.697 27.313-11.956 28.335-26.914l1.768-22.58h-.003zm-39.86 8.14c-1.017-1.023-6.05-.782-6.314-.225-.21.44 3.718 5.045 3.86 6.17.25 1.976-3.05 20.097-3.05 20.097-.033.008-6.105-18.232-5.455-20.373.42-1.38 4.35-5.607 4.255-5.902-.196-.622-5.24-1.143-6.448-.19.108-4.183.165-6.274.274-10.46.453-14.26 12.207-25.464 26.565-24.724 14.317.737 24.788 13.112 23.79 27.282l-.79 10.435c-1.105-1.07-6.26-.876-6.44-.466-.173.4 3.32 4.88 3.63 6.31.555 2.506-7.36 19.72-7.36 19.72-.115-.04-1.53-18.58-1.126-20.31.27-1.14 4.596-5.39 4.47-5.75-.268-.744-5.198-1.332-6.314-.414l1.04-16.59c.746-11.918-4.164-16.18-11.086-16.532-7.06-.358-12.374 3.386-12.84 15.318l-.653 16.608v-.002zm-6.308-.47c.8-4.285 4.2-7.403 4.397-8.47.42-2.255-.742-16.533-.742-16.533-.135-.056-8.52 13.363-7.89 16.25.296 1.35 3.19 4.408 3.84 8.74.16.006.237.01.395.014zm9.496-16.033c.286-6.887 2.06-13.62 10.19-13.205 7.99.405 9.21 7.29 8.795 14.172-.66 10.896-1.313 21.79-1.973 32.687-.502 8.355-2.54 16.715-10.043 16.332-7.633-.39-8.707-8.288-8.334-17.267.458-10.905.91-21.812 1.365-32.72zm16.463 5.136c.285-4.917.217-8.378-1.66-8.48-1.61-.09-2.685 2.32-3.03 8.833-.517 9.67-1.036 19.344-1.55 29.015-.256 4.795-.166 10.346 1.113 10.417 1.91.104 3.104-5.004 3.49-11.64.542-9.383 1.09-18.764 1.63-28.146h.002zm10.61 12.762c1.085-4.247 4.315-7.066 4.704-8.306.883-2.81-6.2-16.968-6.2-16.968-.107.036-2.617 14.322-2.412 16.37.114 1.152 3.153 4.53 3.516 8.873l.394.03h-.003zm58.094-27.407c.32-2.59.48-3.886.802-6.476 10.3 1.273 20.578 2.705 30.836 4.284 3.28 5.39 4.89 8.09 8.072 13.5-.63 3.84-.943 5.758-1.574 9.597-1.685-.025-2.525-.035-4.207-.055-3.27-.02-6.22 2.39-8.4 6.915-9.044 19.43-17.796 38.976-26.285 58.657-6.74-.904-10.113-1.326-16.867-2.11-2.7-4.48-4.066-6.71-6.838-11.17-2.013-21.574-4.244-43.12-6.707-64.65-.238-3.235-1.457-6.192-3.595-6.633-2.235-.5-3.354-.744-5.6-1.23.385-4.514.574-6.77.957-11.285 12.15 1.03 24.28 2.276 36.39 3.724 1.214 2.773 1.817 4.16 3.01 6.94l.002-.006zm-37.743-1.256c1.71.395 2.565.594 4.272.997 2.67.615 4.35 4.367 4.89 8.625 2.34 20.91 4.464 41.83 6.374 62.782 5.434.597 8.15.916 13.58 1.59 7.563-18.04 15.426-35.96 23.56-53.75 3.542-7.83 5.585-12.39 8.616-12.44 1.757.01 2.636.016 4.394.034.422-2.775.63-4.164 1.054-6.94-10.45-1.59-15.683-2.316-26.16-3.64-.353 2.787-.527 4.18-.88 6.964 1.695.462 2.544.694 4.236 1.163 3.437.945 4.238 4.04 1.804 9.055-5.834 13.25-11.56 26.54-17.175 39.886-1.287-14.385-2.664-28.754-4.137-43.118-.48-5.38.863-7.71 3.873-7.737 1.756-.047 2.63-.07 4.39-.11l.83-6.966c-10.966-1.245-21.925-2.373-32.91-3.392l-.61 6.99v.002zm30.834-1.808l-.31 2.69c-1.21.056-1.82.08-3.03.142-4.11.028-6.482 3.123-5.63 11.39.888 8.223 1.31 12.33 2.127 20.553-1.33-1.146-4.56-.98-4.717-.528-.257.73 4.163 5.113 4.555 6.58.876 3.288-2.295 20.06-2.295 20.06-.06.007-6.8-17.794-6.175-20.992.22-1.106 3.75-5.03 3.522-5.69-.277-.797-3.57-1.37-4.592-.485-.894-8.213-1.357-12.318-2.322-20.53-.845-7.755-3.054-11.812-6.8-12.65-1.062-.297-1.6-.442-2.664-.735l.24-2.697c9.38.834 18.743 1.8 28.095 2.89h-.003zm-11.55 34.13c.32-2.94 2.986-6.697 3.05-8.338.147-3.53-5.82-17.34-5.82-17.34-.06.007-2.883 13.432-2.373 16.463.352 2.082 3.633 6.073 4.756 9.17l.39.042zm20.41-15.066c-3.195-.408-4.65 2.64-4.3 6.282.246 3.206.367 4.81.605 8.016 2.357-5.61 3.55-8.41 5.956-14.006-.903-.12-1.356-.176-2.26-.29zm24.31-14.65l-.4 2.676c-1.16.028-1.74.04-2.9.07-3.306.014-6.23 5.073-8.93 10.788-3.52 7.665-5.25 11.5-8.67 19.193-.788-1.1-2.226-1.29-3.66-.48 3.393-7.705 5.11-11.55 8.596-19.227 3.508-7.847.852-11.322-3.134-12.342l-2.516-.7.376-2.926c8.502 1.095 12.752 1.686 21.24 2.954h-.004zm15.335 10.268c-1.666-.576-2.5-.862-4.17-1.432l1.81-11.18c19.22 3.11 38.355 6.75 57.37 10.93 3.117 5.83 4.648 8.747 7.656 14.595-2.17 9.436-4.354 18.872-6.523 28.31-5.412-1.247-8.12-1.853-13.545-3.023-2.543-4.983-3.836-7.47-6.46-12.438.347-1.69.52-2.535.87-4.223.52-2.53.162-4.115-1.95-4.546-2.242-.456-3.684 1.27-4.012 3.588l-.474 3.045c3.48 6.573 5.186 9.866 8.522 16.467-.46 2.168-.693 3.25-1.154 5.417 2.566.546 3.85.824 6.408 1.388 2.896 5.88 4.315 8.82 7.1 14.72-2.228 9.68-4.458 19.355-6.687 29.03-17.915-4.01-35.87-7.6-53.95-10.8-2.463-4.614-3.715-6.92-6.25-11.52.723-4.472 1.084-6.707 1.81-11.18 2.02.026 3.03.044 5.05.08 2.48-.083 3.944-3.33 4.67-7.58 2.352-13.792 4.7-27.586 7.05-41.38.95-5.583-.627-7.6-3.13-8.265h-.005zM513.6 62.81c.69-3.43 1.04-5.144 1.73-8.57-5.164-1.04-7.75-1.547-12.92-2.52l2.96-15.726c1.044-5.565 3.602-8.115 10.413-6.772 6.28 1.238 10.63 7.06 8.742 16.098-.422 2.025-.633 3.037-1.057 5.06 3.3.69 4.95 1.044 8.24 1.76l5.706-26.223c-17.587-3.724-35.21-7.086-52.933-10.1l-1.134 6.923c1.68.524 2.52.79 4.194 1.323 2.602.938 3.6 4.738 2.61 10.44-2.416 13.99-4.83 27.98-7.25 41.97-.965 5.58-2.6 9.044-5.71 9.02-1.654-.03-2.48-.042-4.135-.064l-1.133 6.92c16.41 2.69 32.75 5.815 49 9.35l5.918-27.186c-3.22-.7-4.83-1.045-8.056-1.72L517.55 78.7c-1.56 7.47-4.97 13.133-13.763 11.4-6.402-1.263-7.636-5.106-6.726-9.945 1.496-7.938 2.24-11.903 3.73-19.84 5.134.964 7.695 1.462 12.81 2.494h.004zm21.097-35.34c-1.906 8.857-2.86 13.283-4.768 22.14-1.47-.315-2.206-.47-3.675-.78l.64-3.01c2.65-12.528-4.68-17.46-10.706-18.648-8.97-1.768-12.246 3.172-13.21 8.377l-3.33 17.91c5.215.964 7.82 1.47 13.02 2.504l-.574 2.896c-2.793-1.56-7.168-1.29-8.98-1.62-1.907-.347-8.52-2.206-8.814-1.76-.236.365 3.062 5.68 3.062 6.693 0 1.837-7.848 19.093-7.848 19.093-.04-.008-1.277-19.04-.685-20.63.39-1.03 5.16-4.748 5.08-5.226-.113-.675-3.47-1.616-4.812-.85 1.375-7.858 2.06-11.786 3.44-19.644 1.61-9.216-.8-12.012-3.137-12.91-1.363-.43-2.045-.645-3.412-1.072l.443-2.673c16.16 2.69 32.25 5.76 48.263 9.21h.002zM494.33 55.363c1.544-4.1 5.337-6.896 5.596-7.74.38-1.246-1.242-17.117-1.242-17.117-.05-.01-7.22 14.495-7.284 15.58-.056.947 2.653 4.85 2.54 9.207l.39.07zm14.12 27.754c-.386 1.93-.245 3.84 1.02 4.097 1.51.306 4.5-2.093 5.97-9.205.16-.775.243-1.16.4-1.937-2.294-.476-3.442-.707-5.74-1.168l-1.65 8.205v.004zm47.503-35.02c1.327-5.504-.117-7.626-2.58-8.46-1.628-.69-2.44-1.034-4.074-1.716l2.56-11.03c13.822 3.29 27.572 6.78 41.293 10.48 18.734 4.97 31.363 24.564 25.633 43.36-2.312 7.586-8.22 11.99-14.362 13.213 3.474 1.055 5.208 1.59 8.675 2.68 2.44 5.77 3.63 8.657 5.97 14.438-.9 2.765-1.35 4.145-2.245 6.906-2.77 10.07-10.494 19.817-21.936 16.056-6.576-2.162-12.79-8.633-14.654-18.965-1.526-8.484 1.02-19.283.806-21.9-2.364-.66-3.55-.985-5.918-1.63-1.516 5.56-2.27 8.34-3.782 13.898 2.325 4.97 3.47 7.46 5.715 12.44-1.135 4.03-1.707 6.043-2.842 10.07-11.74-3.313-23.547-6.397-35.405-9.254-2.153-4.773-3.25-7.157-5.48-11.92 1.028-4.414 1.538-6.623 2.56-11.036 2.02.167 3.03.25 5.05.43 2.49.08 4.17-3.056 5.18-7.24 3.278-13.605 6.56-27.21 9.835-40.812zm22.427 32.96c5.855 1.596 5.74 9.686 4.603 16.73-2.4 14.847.038 20.36 8.733 23.048 10.518 3.25 16.106-8.702 18.274-16.94.677-2.16 1.013-3.24 1.69-5.402-2.91-.91-4.364-1.357-7.276-2.244-.66 2.163-.984 3.25-1.645 5.414-.79 2.59-2.47 6.325-4.33 5.765-1.987-.6-1.515-3.94-.15-10.84 1.315-6.664.997-11.655-2.48-15.87.03-.097.044-.144.07-.238 5.566-1.073 11.55-5.215 14.484-14.46 4.338-13.652-6.412-23.913-18.986-26.85-12.475-3.42-25.01-6.61-37.604-9.562l-1.6 6.834c1.644.64 2.47.96 4.11 1.604 2.54 1.113 3.28 4.972 1.91 10.594-3.356 13.798-6.716 27.59-10.073 41.388-1.34 5.503-3.18 8.725-6.317 8.606-1.654-.143-2.48-.21-4.134-.345-.643 2.73-.963 4.1-1.604 6.83 10.208 2.398 20.378 4.958 30.5 7.686.73-2.71 1.097-4.066 1.825-6.78-1.103-.448-1.652-.67-2.76-1.114-4.34-1.662-4.726-5.822-3.304-11.305 1.633-6.294 2.45-9.44 4.08-15.73 4.8 1.243 7.197 1.88 11.984 3.187h-.002zm12.304-39.9c11.494 2.69 21.627 11.43 17.47 24.205-2.675 8.224-11.702 14.517-14.013 13.46-.57-.262-5.11-1.456-5.11-1.456-.147.386 4.148 4.927 4.836 7.66.9 3.57-3.755 19.933-3.755 19.933-.043-.01-4.68-20.6-4.504-22.29.084-.79 3.328-4.34 2.91-5.45-.424-1.116-4.396-1.215-6.015-1.677-1.562-.445-5.495-1.512-7.05-1.912-1.644-.423-5.792-1.532-7.44-1.96-1.667-.43-6.83-2.318-7.2-1.835-.3.395 2.707 5.87 2.62 6.887-.16 1.89-9.266 18.482-9.266 18.482-.044-.01.18-18.82.952-20.57.468-1.055 5.232-4.495 5.18-4.93-.092-.715-3.11-1.79-4.508-1.12 1.904-7.745 2.855-11.617 4.763-19.363 2.233-9.085.008-12.04-2.27-13.096-1.338-.524-2.006-.786-3.346-1.306l.627-2.636c11.76 2.785 23.47 5.776 35.126 8.97h-.003zM560.84 69.72c1.692-4.02 5.96-6.534 6.254-7.306.44-1.153-.364-17.232-.364-17.232-.035-.01-7.875 13.926-8.07 15.113-.153.938 2.068 4.955 1.666 9.297l.514.13zM579.858 45c-5.414-1.433-7.736 1.033-9.36 7.353l-4.042 15.74c6.29 1.615 9.433 2.45 15.7 4.167 4.755 1.305 12.25-.658 14.655-9.06 2.27-7.93-1-13.878-8.12-15.825-3.53-.966-5.29-1.44-8.83-2.375zm8.68 4.5c4.337 1.19 8.057 5.572 5.94 13.033-1.818 6.395-7.357 8.79-11.607 7.625-5.4-1.484-8.11-2.206-13.533-3.612 1.41-5.434 2.113-8.15 3.52-13.585 1.486-5.72 3.57-6.702 6.336-5.972 3.74.99 5.61 1.492 9.348 2.516zm-2.673 12.29c-1.428-.394-2.826.63-3.473 3.004-.324 1.188-.484 1.782-.807 2.97l2.194.6c2.19.603 5.91-.782 6.54-3.034.333-1.185-.44-2.426-1.476-2.715-1.193-.333-1.788-.497-2.983-.825zm3.194 15.46c4.95-1.415 11.922-2.57 13.93-4.945 1.425-1.686 0-17.314 0-17.314-.025.01-5.435 13.14-6.94 14.78-1.46 1.59-4.478 5.89-7.51 7.34l.515.145z"/></svg>