<svg xmlns="http://www.w3.org/2000/svg" xmlns:xlink="http://www.w3.org/1999/xlink" width="800" height="716" viewBox="0 0 800 716"><defs><path id="a" d="M-.31 0H800v716H-.31z"/></defs><clipPath id="b"><use xlink:href="#a" overflow="visible"/></clipPath><g clip-path="url(#b)"><path fill="#8DC63F" d="M-44.333 414.624h868.99V667.29h-868.99V414.624z"/><path d="M825.19 666.354H-43.803l.927.793V414.48l-1.99 1.083h868.99l-.925-.793v252.668c0 1.377 2.91.83 2.91-.29v-252.67c0-.51-.43-.794-.926-.794h-868.99c-.57 0-1.99.258-1.99 1.084v252.67c0 .51.43.793.925.793h868.99c1.24 0 3.03-1.872 1.07-1.872z"/></g><defs><path id="c" d="M-.31 0H800v716H-.31z"/></defs><clipPath id="d"><use xlink:href="#c" overflow="visible"/></clipPath><g clip-path="url(#d)"><path fill="#8DC63F" d="M744.91 421.97s17.56-19.087 17.56-35.883v32.83s6.87-27.485 0-58.024c-6.872-30.54 12.216 45.045 12.216 45.045s3.053-25.193 9.16-41.99c6.11-16.796-8.076 42.755 7.414 58.023"/><path d="M744.91 421.97c1.102-1.262 2.145-2.573 3.16-3.905 1.02-1.33 2.007-2.685 2.946-4.07.963-1.37 1.86-2.78 2.748-4.2l1.285-2.15 1.2-2.198c.41-.728.76-1.486 1.13-2.235.355-.753.742-1.493 1.05-2.27l.963-2.307.812-2.36c.3-.776.466-1.592.683-2.392.207-.803.44-1.6.54-2.423.124-.818.29-1.63.38-2.45l.13-2.464c.05-.82 0-1.67.01-2.505l-.01-1.252v-.157c-.234-.012 2.01-.003 1.06.004v.14l.003.314.006.63.032 5.028.072 10.06.144 20.118-1.555-.19c.54-2.387.953-4.854 1.326-7.303.354-2.46.674-4.923.904-7.396.247-2.472.405-4.952.534-7.434l.13-3.728.016-3.727c.02-1.242-.04-2.482-.074-3.725-.05-1.24-.057-2.48-.163-3.72l-.255-3.715c-.11-1.235-.262-2.467-.39-3.7-.216-2.476-.694-4.913-1.04-7.37-.49-2.436-.938-4.854-1.5-7.3l-.805-3.675c-.127-.626-.256-1.215-.36-1.91-.01-.12-.032-.13-.025-.424-.013.005.04-.323.13-.45-.307-.483 2.275-.46 1.56-.21.073.064.177.223.18.237l.038.07c.055.104.057.125.085.19.074.187.12.337.175.496l.28.92c.71 2.42 1.354 4.83 2.004 7.25l3.756 14.523 7.345 29.084-1.752.11c.296-2.273.624-4.523.982-6.777.334-2.252.752-4.494 1.14-6.74.386-2.246.863-4.48 1.292-6.717.442-2.236 1.012-4.45 1.51-6.675.484-2.23 1.17-4.414 1.744-6.623.545-2.216 1.363-4.364 2.057-6.543.367-1.087.695-2.17 1.146-3.245.23-.55.413-1.057.8-1.668.06-.088.11-.17.25-.29.053-.05.174-.15.38-.206.14-.026.296-.026.427.03.144.053.26.15.3.202.225.283.196.38.24.5.022.105.032.195.042.285.03.34.025.636.02.935-.094 2.334-.36 4.57-.57 6.84-.445 4.523-.85 9.042-1.107 13.57-.267 4.53-.41 9.064-.287 13.597.134 4.526.505 9.063 1.453 13.492.48 2.21 1.11 4.394 1.995 6.48.89 2.074 2.054 4.064 3.646 5.692-1.644-1.577-2.88-3.542-3.84-5.607-.963-2.07-1.656-4.26-2.19-6.48-1.06-4.443-1.54-9-1.777-13.554-.47-9.116.126-18.242.897-27.302.18-2.26.413-4.543.47-6.754 0-.27-.002-.544-.024-.77l-.02-.135c.006-.018-.055-.064.076.11.022.02.105.103.217.142.1.032.214.052.32.02.14-.03.2-.092.2-.092.035-.03 0 .006-.02.038-.22.354-.443.916-.64 1.418-.414 1.03-.732 2.13-1.074 3.2-.654 2.165-1.432 4.284-1.94 6.494-.54 2.197-1.185 4.365-1.636 6.588-.466 2.218-.986 4.42-1.41 6.647-.415 2.227-.88 4.443-1.253 6.68-.374 2.235-.777 4.467-1.1 6.71-.347 2.24-.663 4.49-.944 6.725l-.586 4.646-1.168-4.535-7.48-29.04-3.82-14.497c-.64-2.41-1.27-4.833-1.957-7.21l-.264-.875-.134-.39c-.004-.006-.024-.06-.01-.023l.01.017c-.005-.003.086.142.146.188-.72.235 1.825.25 1.52-.214.09-.104.13-.415.12-.39 0-.14.004.008.012.04.08.54.21 1.178.33 1.775l.78 3.65c.548 2.43 1 4.933 1.484 7.396.34 2.495.81 4.976 1.02 7.484.125 1.25.272 2.5.38 3.755l.24 3.767c.1 1.254.103 2.512.144 3.77.03 1.258.087 2.515.058 3.77l-.036 3.772-.15 3.77c-.14 2.51-.31 5.02-.573 7.52-.245 2.5-.575 4.994-.95 7.48-.416 2.487-.86 4.947-1.46 7.43l-1.6 6.624.048-6.813.142-20.115.07-10.06.036-5.026.003-.63v-.463c-.947-.007 1.293-.016 1.06-.004v.157l-.01 1.26c-.02.84.02 1.666-.045 2.52l-.187 2.555c-.114.845-.3 1.677-.446 2.514-.125.842-.383 1.65-.61 2.466-.242.813-.435 1.64-.757 2.424l-.88 2.378-1.03 2.314c-.323.777-.73 1.518-1.11 2.27-.39.746-.756 1.504-1.19 2.227l-1.26 2.184-1.345 2.136c-.922 1.404-1.857 2.8-2.855 4.15-.985 1.36-2.017 2.687-3.077 3.987-1.06 1.306-2.146 2.585-3.287 3.813l-.005-.002z"/></g><defs><path id="e" d="M-.31 0H800v716H-.31z"/></defs><clipPath id="f"><use xlink:href="#e" overflow="visible"/></clipPath><g clip-path="url(#f)"><path fill="#8B5E3C" d="M63.562 421.97s39.964-72.56 11.646-159.096c-13.87-16.026-22.735-34.52-22.735-34.52L78.99 257.83l13.558 5.042 6.158-9.668 9.446-46.815s2.314 30.63 0 45.08c12.718-1.16 13.296 8.67 13.296 8.67l16.5-32.947-11.877 35.677 9.25-3.31 14.89-39.11-7.374 42.42s-2.313 9.983-9.248 18.075c-6.937 8.09-25.95 99.985 4.363 141.02"/><path d="M63.562 421.97c1.563-3.024 2.95-6.138 4.265-9.276 1.303-3.146 2.533-6.318 3.672-9.524 1.132-3.21 2.212-6.437 3.21-9.69.984-3.252 1.92-6.523 2.76-9.82.85-3.29 1.613-6.603 2.32-9.93l1-5 .88-5.02c.51-3.36 1.022-6.717 1.39-10.095l.3-2.53.23-2.536c.138-1.698.345-3.38.423-5.08l.308-5.084.158-5.09c.075-1.694.07-3.39.063-5.088-.02-1.698.038-3.396-.04-5.09l-.173-5.087c-.05-1.694-.213-3.384-.315-5.076-.178-3.39-.615-6.755-.95-10.13-.202-1.682-.47-3.356-.7-5.036-.24-1.68-.464-3.357-.795-5.02l-.91-5.003c-.306-1.664-.72-3.31-1.074-4.966-.683-3.32-1.597-6.585-2.462-9.86-.405-1.646-.937-3.255-1.434-4.875l-1.505-4.854.21.37-3.315-4.03-1.66-2.015-1.554-2.094-3.095-4.2-2.92-4.32c-.993-1.422-1.88-2.92-2.81-4.385l-1.38-2.21-1.315-2.25c-.884-1.495-1.75-3.002-2.574-4.534-.85-1.522-1.646-3.054-2.44-4.637l-4.17-8.323 6.254 6.93 26.56 29.434-.52-.355 13.565 5.023-1.607.54 6.146-9.68-.188.464 9.376-46.83 2.137-10.676.706 10.855.367 5.657c.096 1.886.213 3.77.292 5.655l.227 5.658.126 5.667c.064 1.888.03 3.78.03 5.675l-.01 2.84c.01.944-.05 1.895-.087 2.845l-.122 2.85c-.054.95-.05 1.896-.152 2.85l-.63 5.73-1.61-1.723 2.376-.098 1.205.08c.402.04.802.03 1.206.115l1.21.232c.407.06.804.2 1.2.333.394.148.8.238 1.18.437l1.14.57c.37.217.718.475 1.07.715.37.226.658.558.986.836.33.276.592.62.874.948.294.318.515.688.755 1.043.25.35.42.744.623 1.118.187.382.34.78.49 1.176.133.403.265.806.355 1.225.104.43.17.803.22 1.34l-2.774-.57 16.553-32.92 2.6 1.08-11.927 35.65-1.74-1.7 9.252-3.297-.802.783L149.02 220l2.445.672-4.583 25.748-2.3 12.872-.575 3.22-.072.4-.018.102-.025.126-.013.05-.05.198c-.07.26-.16.544-.23.813-.16.56-.338 1.08-.51 1.61-.34 1.07-.77 2.096-1.17 3.136-.42 1.028-.905 2.03-1.356 3.047-.506.99-1.043 1.967-1.563 2.95-.554.965-1.187 1.89-1.776 2.834-.286.48-.617.93-.97 1.364l-1.03 1.325-.515.66-.258.334-.064.082-.03.04c-.06.08.05-.06.024-.03l-.116.168c-.315.45-.637.9-.814 1.326-.447.81-.85 1.864-1.248 2.83-.36 1.01-.75 2.004-1.063 3.04-.332 1.023-.656 2.05-.942 3.095-.304 1.037-.596 2.078-.857 3.13-2.174 8.388-3.736 16.957-4.92 25.563-.614 4.304-1.062 8.628-1.475 12.954-.37 4.33-.69 8.668-.85 13.01-.094 2.174-.164 4.347-.175 6.52-.05 2.175-.02 4.348.01 6.52-.004 2.177.14 4.347.206 6.52.1 2.17.283 4.338.424 6.508.41 4.326.887 8.652 1.646 12.935l.565 3.212.694 3.187c.424 2.13 1.03 4.22 1.593 6.32.26 1.06.626 2.08.96 3.115.34 1.03.66 2.07 1.02 3.1l1.18 3.04.593 1.52.688 1.48 1.378 2.96 1.576 2.856.792 1.43.894 1.365 1.805 2.727-1.858-2.69-.925-1.35-.823-1.413-1.64-2.83-1.44-2.94-.72-1.47-.627-1.515-1.25-3.033c-.38-1.02-.72-2.06-1.084-3.09-.354-1.033-.734-2.06-1.01-3.117-.6-2.1-1.24-4.19-1.7-6.328l-.744-3.19-.618-3.22c-.828-4.292-1.373-8.63-1.852-12.976-.175-2.176-.39-4.353-.523-6.533-.1-2.184-.276-4.363-.306-6.55-.063-2.183-.127-4.367-.108-6.552-.02-2.184.015-4.37.074-6.553.095-4.367.353-8.73.66-13.092.375-4.353.786-8.707 1.36-13.04 1.114-8.67 2.605-17.3 4.726-25.813.255-1.066.54-2.126.84-3.184.28-1.062.604-2.115.934-3.167.68-2.128 1.344-4.145 2.438-6.3.267-.577.578-1.015.884-1.46l.114-.17.177-.23.24-.32.483-.633.965-1.265c.334-.414.645-.845.91-1.307.556-.906 1.15-1.79 1.67-2.72l1.474-2.84c.423-.98.88-1.943 1.276-2.934.37-1 .777-1.99 1.085-3.01.167-.507.333-1.013.465-1.512.07-.255.146-.49.21-.76l.048-.2.012-.05c-.03.137-.003.01-.007.027l.017-.1.068-.402.545-3.223 2.183-12.893 4.38-25.782 2.447.673-14.83 39.13-.22.576-.58.21-9.246 3.324-2.613.94.876-2.642 11.823-35.695 2.6 1.076-16.45 32.967-2.21 4.426-.568-4.996c-.02-.2-.075-.56-.15-.85-.066-.308-.17-.608-.268-.91-.117-.294-.23-.593-.37-.874-.157-.272-.273-.57-.464-.82-.177-.257-.332-.532-.55-.755-.206-.23-.386-.49-.633-.68-.242-.194-.437-.445-.71-.6-.263-.17-.51-.36-.78-.52l-.852-.42c-.276-.153-.607-.213-.906-.327-.307-.1-.608-.216-.94-.257l-.977-.186c-.32-.07-.67-.055-1.004-.09l-1.012-.065-2.072.09-1.805.08.196-1.805.594-5.49c.103-.914.1-1.854.156-2.78l.128-2.79c.038-.93.104-1.858.092-2.795l.02-2.807c.01-1.87.047-3.737-.01-5.61l-.11-5.62-.206-5.62c-.073-1.873-.184-3.745-.274-5.618l-.346-5.606 2.843.175-9.517 46.8-.052.25-.136.212-6.173 9.66-.59.92-1.02-.38-13.55-5.067-.31-.114-.215-.24-26.47-29.53 2.084-1.394c.743 1.51 1.524 3.048 2.345 4.55.793 1.516 1.633 3.01 2.5 4.494l1.272 2.232 1.344 2.195c.9 1.458 1.762 2.943 2.73 4.358l2.84 4.29 3.015 4.167 1.514 2.08 1.612 1.998 3.227 3.998.157.193.054.18 1.477 4.92c.488 1.64 1.01 3.27 1.404 4.94.844 3.318 1.736 6.62 2.395 9.98.342 1.68.744 3.34 1.04 5.028l.873 5.058c.314 1.682.528 3.38.753 5.075.218 1.697.473 3.39.66 5.088.308 3.407.716 6.805.864 10.223.087 1.706.236 3.41.272 5.12l.13 5.126c.06 1.71-.01 3.42-.008 5.127-.01 1.71-.02 3.418-.112 5.125l-.234 5.12-.387 5.11c-.102 1.706-.336 3.4-.5 5.1l-.27 2.547-.34 2.54c-.42 3.388-.99 6.756-1.554 10.122l-.96 5.028-1.074 5.005c-.76 3.323-1.572 6.64-2.48 9.93-.892 3.29-1.873 6.56-2.915 9.804-1.05 3.244-2.165 6.468-3.377 9.654-1.204 3.19-2.5 6.342-3.87 9.463-1.38 3.12-2.83 6.207-4.454 9.2v-.002z"/></g><defs><path id="g" d="M-.31 0H800v716H-.31z"/></defs><clipPath id="h"><use xlink:href="#g" overflow="visible"/></clipPath><g clip-path="url(#h)"><path fill="#8DC63F" d="M12.962 215.308c.497 26.033 21.742 46.99 47.895 46.99 12.43 0 23.75-4.733 32.266-12.493 10.785 11.735 27.352 19.257 45.942 19.257 28.354 0 52.02-17.48 57.6-40.75 25.074-7.847 42.9-27.866 42.9-51.328 0-30.305-29.736-54.872-66.42-54.872-2.598 0-5.16.128-7.68.368-5.407-4.795-13.863-7.885-23.376-7.885-3.42 0-6.708.404-9.76 1.138-12.226-9.943-29.7-16.17-49.11-16.17-32.24 0-59.16 17.17-65.49 40.026-1.416-.13-2.85-.19-4.3-.19-23.77 0-43.035 16.99-43.035 37.96 0 20.82 19.014 37.72 42.562 37.942v.002z"/><path d="M12.962 215.308l.293 3.416c.063.567.066 1.143.178 1.703l.316 1.682.31 1.67c.1.56.2 1.12.38 1.663l.96 3.275c.325 1.09.82 2.12 1.224 3.182l.634 1.58.783 1.512c.543.996 1.005 2.035 1.608 2.994l1.835 2.86c.605.956 1.373 1.8 2.05 2.704l1.047 1.333 1.168 1.23c.8.8 1.52 1.68 2.374 2.416l2.553 2.226c.854.734 1.817 1.336 2.718 2.01l1.376.98 1.46.85c.987.543 1.92 1.187 2.946 1.646l3.063 1.41c1.02.463 2.11.762 3.162 1.15l1.592.554 1.637.397c1.096.244 2.17.567 3.28.747l3.33.46.83.114.84.035 1.678.06 1.675.063.42.015.16.005.214-.01.853-.05 3.423-.207 3.272-.51c1.09-.12 2.167-.45 3.25-.72 1.077-.28 2.17-.51 3.204-.93 1.045-.382 2.103-.73 3.14-1.136l3.03-1.392c.516-.212.996-.492 1.476-.774l1.445-.832 1.44-.835 1.366-.96 1.364-.956.682-.48.636-.537 2.544-2.15 1.026-.868.933.952c1.805 1.846 3.646 3.665 5.69 5.245.98.842 2.065 1.553 3.097 2.328 1.08.708 2.14 1.444 3.26 2.093 1.117.65 2.228 1.31 3.39 1.875 1.138.616 2.32 1.138 3.5 1.66 1.17.545 2.4.96 3.596 1.445 1.23.394 2.44.85 3.69 1.188 1.245.34 2.482.71 3.75.966l1.89.417 1.91.325c2.546.44 5.123.66 7.7.812l1.935.037.968.016.484.007.427-.018 3.97-.184c.674-.01 1.31-.09 1.935-.174l1.89-.236 1.89-.233 1.895-.38 1.89-.384c.633-.12 1.264-.247 1.877-.443l3.71-1.056c2.415-.876 4.85-1.71 7.146-2.86l1.748-.803 1.677-.94c1.104-.643 2.267-1.197 3.303-1.95 1.053-.725 2.146-1.394 3.168-2.16l3.005-2.372c.96-.84 1.874-1.73 2.813-2.59.48-.417.913-.884 1.334-1.36l1.282-1.412c.892-.91 1.63-1.946 2.4-2.953l1.157-1.512 1.01-1.606c.677-1.072 1.39-2.124 1.917-3.275l.86-1.69.433-.846.35-.88c.442-1.18.974-2.33 1.35-3.533l1.048-3.63.344-1.19 1.166-.43c1.655-.604 3.34-1.143 4.976-1.8l2.43-1.045 1.215-.52c.4-.186.786-.398 1.18-.596 1.564-.81 3.158-1.57 4.638-2.524l2.26-1.358 2.158-1.514c2.897-1.99 5.512-4.337 8.02-6.767 2.374-2.56 4.692-5.186 6.548-8.13 1.98-2.862 3.47-6.013 4.787-9.204l.824-2.457.41-1.23.298-1.26.6-2.516c.145-.85.248-1.705.375-2.56.32-1.697.275-3.432.39-5.15l.023-.576-.02-.682-.045-1.364-.02-.685-.06-.626-.12-1.25c-.364-3.386-1.147-6.795-2.31-10.037-2.316-6.51-6.158-12.464-10.97-17.5-2.405-2.52-5.053-4.82-7.877-6.888-2.818-2.07-5.81-3.928-8.944-5.51-6.27-3.164-13.02-5.42-19.967-6.65-3.474-.615-6.987-.997-10.516-1.158l-2.646-.06-.33-.01c-.03 0-.17 0-.107-.004l-.17.003-.684.018-1.365.03c-1.86.004-3.527.194-5.28.297l-1.007.06-.834-.66-1.552-1.23c-.49-.44-1.106-.738-1.654-1.114-.56-.365-1.12-.725-1.74-1.006-.603-.3-1.195-.62-1.81-.905l-1.894-.75c-.618-.275-1.283-.445-1.937-.644-.66-.18-1.3-.422-1.974-.557l-2.014-.42c-.667-.168-1.355-.22-2.038-.31-.685-.077-1.364-.188-2.05-.238l-2.066-.087-1.033-.043-1.02.03c-.724.024-1.487.022-2.125.1-.67.068-1.322.085-2.006.192-.68.102-1.365.184-2.04.302l-2.02.413-1.11.226-.934-.69-3.254-2.415c-.55-.392-1.067-.83-1.646-1.186l-1.74-1.05c-1.168-.687-2.295-1.445-3.497-2.075l-3.657-1.797c-1.2-.647-2.48-1.114-3.754-1.604-1.275-.483-2.53-1.01-3.82-1.46l-3.927-1.157-1.964-.58-2.008-.42-4.014-.84c-1.344-.26-2.71-.36-4.067-.55l-2.037-.255c-.68-.09-1.357-.185-2.043-.19l-4.107-.18-2.053-.093-2.03.057c-1.4.05-2.82.062-4.2.142-2.69.284-5.38.44-8.09.958-2.72.356-5.37 1.066-8.04 1.666-2.614.807-5.267 1.513-7.793 2.568-1.28.484-2.564.955-3.786 1.57-1.23.595-2.5 1.117-3.696 1.77l-3.574 2c-1.164.71-2.278 1.496-3.42 2.24-1.17.71-2.18 1.63-3.268 2.448-.53.426-1.084.826-1.595 1.273l-1.49 1.387-1.495 1.387c-.5.46-.92.997-1.384 1.49-.885 1.024-1.88 1.967-2.64 3.088l-1.214 1.627c-.408.54-.823 1.076-1.148 1.67-.676 1.165-1.443 2.287-2.057 3.486-.564 1.22-1.18 2.423-1.713 3.66l-1.33 3.814-.435 1.246-1.264-.067-3.96-.212-.125-.005-.063-.003c-.02 0 .114-.003.04 0h-.03l-.257.01-.512.02-1.02.035-2.05.07c-1.346.08-2.595.308-3.9.447-.646.054-1.29.22-1.94.357l-1.94.42c-2.565.64-5.08 1.49-7.505 2.56-.623.23-1.21.536-1.793.85l-1.76.92c-.6.29-1.148.656-1.704 1.02l-1.668 1.077c-.574.337-1.075.77-1.598 1.177l-1.56 1.23c-1.023.84-1.93 1.807-2.91 2.7-.908.96-1.747 1.985-2.627 2.976-.756 1.08-1.554 2.142-2.273 3.25l-.973 1.73c-.313.584-.69 1.136-.92 1.758l-.787 1.825-.395.914c-.12.31-.2.63-.3.944-.358 1.276-.86 2.518-1.037 3.838-.24 1.303-.54 2.603-.564 3.935l-.14 1.99-.02.25-.005.06c0 .06-.002-.04 0-.02v.034l.007.127.022.513.046 1.023.09 2.05c.08.657.202 1.3.3 1.95.113.647.185 1.302.33 1.95l.533 1.93c.295 1.306.833 2.532 1.325 3.776 1.006 2.48 2.38 4.8 3.914 7.005.773 1.1 1.685 2.097 2.52 3.153.92.98 1.89 1.92 2.84 2.876 1.044.853 2.062 1.743 3.13 2.57 1.122.75 2.21 1.562 3.364 2.265 1.19.64 2.34 1.37 3.56 1.953 1.24.537 2.45 1.165 3.725 1.633 1.287.43 2.55.945 3.862 1.304 1.318.313 2.63.703 3.966.96 1.344.205 2.686.456 4.04.626l4.08.293.005.007zm0 0l-4.1-.15c-1.36-.125-2.716-.33-4.076-.49-1.354-.214-2.683-.562-4.027-.836-1.34-.316-2.63-.792-3.95-1.182-1.307-.43-2.55-1.022-3.83-1.528-1.26-.553-2.456-1.25-3.68-1.877-1.198-.686-2.328-1.484-3.49-2.223-1.11-.817-2.18-1.7-3.27-2.55-1-.955-2.02-1.897-2.99-2.88-.89-1.063-1.85-2.07-2.68-3.184-1.643-2.236-3.128-4.607-4.245-7.163-.548-1.282-1.14-2.552-1.486-3.91l-.606-2.006c-.17-.688-.27-1.39-.408-2.088-.123-.695-.268-1.396-.37-2.09l-.14-2.045-.072-1.02-.036-.513-.01-.13v-.03l-.004-.084.003-.064.012-.264.092-2.104c-.002-1.41.273-2.79.493-4.18.153-1.403.645-2.73.993-4.095.1-.337.18-.68.296-1.013l.39-.98.787-1.96c.23-.67.615-1.265.93-1.894l.99-1.866c.735-1.198 1.55-2.35 2.333-3.522.903-1.077 1.77-2.19 2.714-3.237 1.01-.98 1.97-2.02 3.037-2.933l1.638-1.336c.55-.44 1.076-.91 1.676-1.28l1.753-1.18c.58-.397 1.164-.795 1.793-1.11l1.852-1.016c.613-.35 1.235-.68 1.89-.94 2.556-1.187 5.215-2.137 7.936-2.865l2.058-.487c.688-.16 1.364-.345 2.08-.42 1.407-.187 2.855-.454 4.23-.558l2.047-.11 1.023-.055.512-.027.256-.013.137-.003h.065l.133.005 4.23.15-1.7 1.177 1.368-4.167c.55-1.35 1.187-2.665 1.78-4 .64-1.31 1.44-2.53 2.16-3.797.35-.643.783-1.226 1.214-1.81l1.282-1.764c.81-1.214 1.845-2.236 2.783-3.345.49-.535.94-1.113 1.463-1.61l1.57-1.5 1.574-1.5c.54-.484 1.117-.918 1.676-1.378 1.142-.886 2.21-1.876 3.434-2.647 1.2-.805 2.373-1.65 3.594-2.42l3.75-2.16c1.26-.706 2.584-1.276 3.874-1.92 1.282-.664 2.626-1.18 3.967-1.707 2.65-1.144 5.42-1.928 8.16-2.81 2.796-.67 5.573-1.447 8.423-1.86 2.808-.58 5.73-.79 8.62-1.1 1.422-.09 2.81-.115 4.218-.177l2.18-.077 2.155.075 4.31.155c.72.004 1.436.1 2.15.183l2.143.25c1.426.19 2.866.29 4.282.55l4.24.848 2.118.43 2.08.597 4.163 1.194c1.367.463 2.708 1.01 4.064 1.51 1.353.51 2.714 1 4 1.673l3.916 1.885c1.29.663 2.508 1.462 3.764 2.188l1.87 1.116c.62.377 1.186.843 1.78 1.26l3.53 2.58-2.044-.466 2.268-.482c.76-.14 1.525-.24 2.29-.36.757-.123 1.566-.16 2.35-.242.814-.09 1.512-.09 2.247-.114l1.165-.034 1.155.044 2.31.092c.77.055 1.533.173 2.3.258.767.1 1.536.162 2.29.344l2.274.47c.76.153 1.494.418 2.24.625.746.224 1.497.42 2.216.73l2.18.86c.71.33 1.405.697 2.11 1.046.71.33 1.382.748 2.047 1.18.66.443 1.366.8 1.976 1.327l1.88 1.49-1.84-.605c1.88-.123 3.84-.326 5.62-.33l1.367-.036.684-.017.17-.008.233.002.353.005 2.81.057c3.75.16 7.487.555 11.187 1.2 7.397 1.294 14.615 3.677 21.354 7.058 6.73 3.396 12.943 7.898 18.17 13.405 5.227 5.498 9.448 12.052 12 19.28 1.28 3.618 2.138 7.354 2.54 11.207l.133 1.47.06.734.02.684.04 1.365.02.683.008.085v.12l-.004.043-.01.18-.017.36c-.12 1.912-.095 3.837-.445 5.73-.14.945-.26 1.9-.42 2.84l-.674 2.795-.34 1.395-.455 1.36-.923 2.72c-1.46 3.525-3.12 6.99-5.29 10.12-2.043 3.222-4.576 6.072-7.183 8.817-2.733 2.615-5.583 5.12-8.707 7.233l-2.33 1.604-2.43 1.44c-1.595 1.002-3.3 1.802-4.975 2.65-.42.207-.834.43-1.263.623l-1.298.55-2.597 1.09c-1.746.687-3.54 1.247-5.306 1.873l1.51-1.614-1.182 4c-.43 1.32-1.014 2.583-1.517 3.876l-.393.965-.48.924-.96 1.843c-.594 1.255-1.373 2.4-2.12 3.563l-1.122 1.744-1.268 1.637c-.85 1.09-1.666 2.205-2.638 3.187l-1.403 1.517c-.46.512-.934 1.013-1.456 1.462-1.02.92-2.017 1.87-3.06 2.77l-3.265 2.51c-1.11.807-2.29 1.51-3.435 2.268-1.128.787-2.376 1.367-3.57 2.037l-1.807.975-1.876.833c-2.47 1.183-5.07 2.037-7.65 2.923l-3.955 1.06c-.652.197-1.323.323-1.995.44l-2.01.38-2.01.37-2.057.224-2.057.222c-.69.08-1.375.15-2.028.15l-3.973.12-.568.013-.51-.017-1.02-.035-2.037-.07c-2.71-.2-5.418-.476-8.09-.98l-2.004-.374-1.983-.47c-1.33-.288-2.627-.695-3.93-1.076-1.307-.377-2.574-.873-3.86-1.31-1.25-.527-2.53-.985-3.757-1.574-1.232-.57-2.465-1.14-3.653-1.8-1.214-.614-2.373-1.326-3.536-2.027-1.16-.7-2.27-1.49-3.39-2.254-1.075-.83-2.2-1.6-3.22-2.5-2.125-1.697-4.038-3.64-5.904-5.61l1.958.084-2.726 2.235-.684.555-.727.5-1.455.99-1.46.988-1.536.86-1.54.856c-.51.29-1.024.575-1.57.794l-3.22 1.42c-1.097.415-2.224.75-3.334 1.124-1.1.41-2.254.63-3.395.893-1.145.25-2.27.56-3.457.67l-3.514.45-3.427.12-.856.028-.213.01c-.17.006-.173-.006-.268-.01l-.438-.024-1.748-.108-1.748-.11-.87-.058-.863-.14-3.45-.566c-1.146-.218-2.258-.578-3.386-.86L46.49 261l-1.634-.61c-1.08-.43-2.196-.77-3.243-1.275l-3.128-1.534c-1.048-.5-1.994-1.184-2.994-1.77l-1.48-.91-1.39-1.044c-.91-.718-1.88-1.36-2.74-2.136l-2.56-2.347c-.85-.78-1.57-1.694-2.36-2.535l-1.16-1.286-1.034-1.39c-.667-.94-1.424-1.82-2.02-2.81l-1.782-2.96c-.594-.985-1.02-2.064-1.538-3.09l-.74-1.56-.59-1.62c-.37-1.09-.835-2.147-1.127-3.258l-.855-3.334c-.166-.55-.25-1.12-.33-1.688l-.26-1.7-.26-1.7c-.09-.563-.08-1.14-.12-1.708l-.18-3.43v-.002z"/></g><defs><path id="i" d="M-.31 0H800v716H-.31z"/></defs><clipPath id="j"><use xlink:href="#i" overflow="visible"/></clipPath><g clip-path="url(#j)"><path fill="#8DC63F" d="M33.632 422.97s17.56-19.087 17.56-35.883v32.83s6.87-27.485 0-58.024c-6.87-30.54 12.216 45.045 12.216 45.045s3.054-25.193 9.16-41.99c6.107-16.796-8.08 42.755 7.413 58.023"/><path d="M33.632 422.97c1.103-1.262 2.147-2.573 3.164-3.905 1.017-1.33 2.005-2.685 2.944-4.07.962-1.37 1.86-2.78 2.747-4.2l1.286-2.15 1.203-2.198c.415-.728.762-1.486 1.13-2.235.36-.753.745-1.493 1.048-2.27l.965-2.307.81-2.36c.3-.776.47-1.592.68-2.392.206-.803.44-1.6.54-2.423.124-.818.29-1.63.38-2.45l.125-2.464c.05-.82.002-1.67.01-2.505l-.01-1.252v-.157c-.23-.012 2.01-.003 1.06.004v.06l.002.08v.314l.005.63.035 5.028.07 10.06.144 20.118-1.552-.19c.54-2.387.954-4.854 1.327-7.303.352-2.46.672-4.923.9-7.396.248-2.472.406-4.952.534-7.434l.13-3.728.02-3.727c.02-1.242-.04-2.482-.075-3.725-.045-1.24-.055-2.48-.16-3.72l-.255-3.715c-.11-1.235-.26-2.467-.39-3.7-.217-2.476-.694-4.913-1.04-7.37-.49-2.436-.937-4.854-1.5-7.3l-.804-3.675c-.127-.626-.256-1.215-.36-1.91-.01-.12-.03-.13-.026-.424-.01.005.04-.323.13-.45-.305-.483 2.277-.46 1.563-.21.07.064.176.223.18.237l.037.07c.05.104.055.125.082.19.072.187.12.337.173.496l.28.92c.71 2.42 1.354 4.83 2.004 7.25l3.75 14.523 7.346 29.084-1.755.11c.298-2.273.626-4.523.985-6.777.332-2.252.75-4.494 1.135-6.74s.867-4.48 1.295-6.717c.44-2.236 1.01-4.45 1.51-6.675.483-2.23 1.167-4.414 1.743-6.623.543-2.216 1.362-4.364 2.057-6.543.367-1.087.694-2.17 1.144-3.245.23-.55.415-1.057.8-1.668.06-.088.11-.17.25-.29.053-.05.174-.15.38-.206.143-.026.298-.026.43.03.143.053.26.15.3.202.224.283.2.38.24.5.02.105.032.195.043.285.03.34.026.636.02.935-.092 2.334-.36 4.57-.57 6.84-.44 4.523-.85 9.042-1.105 13.57-.267 4.53-.414 9.064-.288 13.597.13 4.526.502 9.063 1.452 13.492.48 2.21 1.113 4.394 1.997 6.48.887 2.074 2.053 4.063 3.645 5.692-1.645-1.577-2.882-3.542-3.842-5.607-.963-2.07-1.656-4.26-2.188-6.48-1.06-4.443-1.54-9-1.78-13.554-.467-9.116.128-18.242.9-27.302.178-2.26.41-4.543.47-6.754 0-.27-.002-.544-.026-.77l-.02-.135c.006-.018-.05-.064.075.11.02.02.103.103.215.142.1.032.217.052.324.02.14-.03.203-.092.203-.092.032-.03 0 .006-.02.038-.22.354-.445.916-.643 1.418-.413 1.03-.73 2.13-1.073 3.2-.654 2.165-1.43 4.284-1.94 6.494-.54 2.197-1.185 4.365-1.635 6.588-.467 2.218-.99 4.42-1.41 6.647-.417 2.227-.882 4.443-1.256 6.68-.373 2.235-.778 4.467-1.1 6.71-.347 2.24-.663 4.49-.944 6.725l-.585 4.646-1.17-4.535-7.48-29.04-3.816-14.497c-.64-2.41-1.273-4.833-1.958-7.21l-.263-.875-.13-.39-.01-.023.012.017c-.004-.003.085.142.146.188-.72.235 1.826.25 1.52-.214.088-.104.13-.415.12-.39 0-.14.005.008.013.04.08.54.21 1.178.33 1.775l.78 3.65c.548 2.43 1 4.933 1.483 7.396.34 2.495.813 4.976 1.02 7.484.127 1.25.275 2.5.38 3.755l.24 3.767c.1 1.254.105 2.512.145 3.77.03 1.258.088 2.515.06 3.77l-.035 3.772-.148 3.77c-.14 2.51-.314 5.02-.575 7.52-.245 2.5-.574 4.994-.95 7.48-.416 2.487-.86 4.947-1.46 7.43l-1.6 6.624.05-6.813.14-20.115.07-10.06.037-5.026.003-.63.003-.314v-.147c-.948-.008 1.294-.017 1.063-.005v.156l-.01 1.26c-.02.84.015 1.668-.05 2.52l-.186 2.557c-.11.844-.3 1.676-.444 2.513-.123.843-.382 1.65-.61 2.467-.24.813-.435 1.64-.755 2.424l-.88 2.38-1.03 2.313c-.325.777-.73 1.518-1.112 2.27-.388.746-.756 1.504-1.19 2.227l-1.262 2.185-1.342 2.137c-.922 1.403-1.858 2.8-2.854 4.15-.985 1.36-2.02 2.686-3.077 3.986-1.06 1.306-2.146 2.585-3.287 3.813h-.003z"/></g><defs><path id="k" d="M-.31 0H800v716H-.31z"/></defs><clipPath id="l"><use xlink:href="#k" overflow="visible"/></clipPath><g clip-path="url(#l)"><path fill="#8B5E3C" d="M514.234 420.958s46.1-83.695 13.433-183.514c-16-18.486-26.226-39.82-26.226-39.82l30.59 34 15.64 5.82 7.107-11.152 10.897-54s2.667 35.333 0 52c14.667-1.334 15.335 10 15.335 10l19.032-38-13.7 41.152 10.67-3.82 17.176-45.11-8.51 48.93s-2.67 11.516-10.67 20.85-29.934 115.333 5.03 162.666"/><path d="M514.234 420.958c1.808-3.487 3.41-7.077 4.933-10.696 1.508-3.625 2.934-7.283 4.252-10.98.66-1.846 1.28-3.71 1.92-5.563.595-1.87 1.23-3.73 1.79-5.61 1.147-3.75 2.225-7.525 3.2-11.325.987-3.797 1.87-7.62 2.69-11.455.38-1.92.79-3.84 1.152-5.766l1.02-5.792c.598-3.874 1.194-7.748 1.624-11.645l.35-2.918.266-2.93c.16-1.952.402-3.897.494-5.855l.36-5.867.188-5.87c.09-1.958.082-3.916.078-5.875-.02-1.958.045-3.917-.043-5.874l-.197-5.87c-.057-1.956-.246-3.906-.363-5.86-.2-3.91-.702-7.795-1.09-11.69-.23-1.94-.54-3.875-.802-5.813-.273-1.938-.53-3.878-.912-5.798l-1.05-5.775c-.354-1.925-.827-3.824-1.237-5.736-.788-3.834-1.84-7.604-2.84-11.385-.465-1.9-1.08-3.76-1.65-5.628l-1.73-5.604.21.37-3.82-4.646-1.91-2.324-1.785-2.414-3.563-4.84-3.36-4.98c-.557-.83-1.127-1.656-1.644-2.513l-1.59-2.55-1.59-2.547-1.518-2.593c-1.018-1.726-2.016-3.46-2.963-5.23-.98-1.755-1.897-3.52-2.81-5.34l-4.16-8.318 6.243 6.92 30.63 33.96-.52-.357 15.645 5.8-1.605.538 7.09-11.16-.188.464 10.824-54.014 2.14-10.68.703 10.854.422 6.52c.11 2.174.246 4.346.336 6.52l.26 6.524.145 6.533c.072 2.177.035 4.36.03 6.54l-.013 3.27c.014 1.09-.06 2.188-.1 3.28l-.14 3.28c-.064 1.097-.062 2.187-.182 3.285l-.72 6.59-1.61-1.723 2.716-.11 1.377.09c.46.047.92.035 1.378.13l1.378.267c.462.064.91.23 1.362.38.445.163.91.265 1.34.49l1.294.644c.416.248.81.54 1.21.81.417.257.743.634 1.114.948.38.313.675.705.992 1.073.335.36.585.78.856 1.183.287.395.477.842.71 1.266.212.432.384.883.556 1.332.15.457.3.914.402 1.388.115.485.195.917.248 1.51l-2.775-.57 19.082-37.974 2.6 1.075-13.753 41.134-1.74-1.7 10.67-3.807-.8.786 17.234-45.09 2.447.67-5.27 29.7-2.65 14.85-.66 3.716-.08.464-.02.117-.03.134-.014.06-.06.23c-.07.3-.175.62-.263.933-.173.635-.38 1.24-.583 1.85-.383 1.225-.88 2.404-1.334 3.6-.484 1.184-1.043 2.337-1.56 3.507-.58 1.14-1.198 2.263-1.796 3.395-.643 1.11-1.364 2.173-2.044 3.26-.174.27-.34.544-.52.808l-.593.763-1.18 1.523-.593.76-.298.38-.075.095-.034.048c-.062.08.046-.057.02-.024l-.13.193-.535.774c-.19.26-.27.51-.41.764-.526.956-.99 2.165-1.45 3.286-.41 1.168-.86 2.318-1.22 3.514-.385 1.184-.76 2.37-1.09 3.576-.35 1.197-.687 2.4-.99 3.614-1.25 4.84-2.336 9.733-3.252 14.66-.926 4.925-1.742 9.874-2.406 14.845-.703 4.967-1.218 9.957-1.69 14.95-.42 4.998-.79 10.003-.966 15.016l-.136 3.76-.055 3.76c-.06 2.51-.02 5.02.02 7.527-.005 2.51.16 5.014.24 7.52.117 2.507.33 5.007.496 7.51.48 4.99 1.035 9.98 1.916 14.92l.658 3.706.803 3.677c.494 2.46 1.197 4.87 1.85 7.292.3 1.22.723 2.4 1.11 3.593.392 1.188.76 2.39 1.174 3.573l1.37 3.505.69 1.753.8 1.703 1.592 3.41 1.825 3.296.916 1.647 1.036 1.573 2.082 3.144-2.14-3.105-1.064-1.557-.95-1.635-1.886-3.27-1.656-3.396-.83-1.697-.718-1.746-1.438-3.493c-.437-1.18-.828-2.38-1.244-3.565-.405-1.19-.846-2.374-1.163-3.593-.687-2.423-1.422-4.835-1.95-7.3l-.855-3.68-.71-3.714c-.948-4.95-1.57-9.954-2.118-14.964-.2-2.51-.445-5.02-.597-7.535-.117-2.52-.315-5.03-.348-7.55-.07-2.52-.145-5.04-.118-7.56l.004-3.78.09-3.777c.113-5.04.416-10.07.773-15.1.438-5.02.912-10.04 1.582-15.036.626-5 1.407-9.984 2.3-14.95.88-4.964 1.936-9.9 3.162-14.806.295-1.226.627-2.45.97-3.665.325-1.223.698-2.436 1.08-3.646.78-2.446 1.554-4.78 2.802-7.234.3-.65.66-1.156 1.013-1.67l.133-.196.195-.26.28-.366.56-.732 1.12-1.463.56-.73c.17-.257.328-.524.494-.78.643-1.05 1.33-2.075 1.936-3.148l1.704-3.284c.49-1.134 1.02-2.25 1.48-3.396.43-1.157.9-2.3 1.26-3.48.19-.585.383-1.17.54-1.75.08-.296.17-.57.24-.882l.056-.23.016-.055c-.028.134 0 .004-.005.02l.02-.117.08-.465.63-3.718 2.525-14.87 5.07-29.738 2.446.672-17.116 45.13-.22.576-.58.21-10.66 3.83-2.62.94.877-2.64 13.645-41.17 2.603 1.077-18.984 38.024-2.223 4.453-.552-5.02c-.027-.258-.09-.674-.18-1.02-.078-.362-.2-.717-.314-1.073-.136-.347-.27-.7-.434-1.03-.186-.323-.323-.676-.547-.97-.21-.304-.398-.63-.65-.894-.246-.274-.46-.577-.75-.806-.287-.23-.52-.527-.845-.71-.31-.203-.602-.428-.92-.617l-1.006-.494c-.33-.18-.716-.25-1.068-.388-.36-.12-.716-.255-1.105-.304l-1.144-.22c-.377-.083-.785-.064-1.177-.103l-1.188-.077-2.41.103-1.804.076.192-1.803.69-6.353c.115-1.06.113-2.143.18-3.214l.145-3.22c.046-1.076.117-2.147.107-3.23l.02-3.236c.01-2.158.055-4.314-.013-6.478l-.128-6.485-.24-6.485c-.084-2.162-.214-4.322-.316-6.484l-.402-6.47 2.844.172-10.968 53.985-.05.25-.138.215-7.117 11.144-.586.92-1.02-.38-15.63-5.84-.31-.116-.217-.24-30.54-34.04 2.08-1.395c.86 1.746 1.768 3.52 2.715 5.254.92 1.75 1.894 3.475 2.888 5.19l1.48 2.574 1.553 2.532 1.55 2.532c.506.853 1.062 1.67 1.61 2.497l3.28 4.95 3.48 4.81 1.75 2.4 1.866 2.304 3.73 4.614.155.192.054.176 1.704 5.67c.56 1.89 1.164 3.77 1.62 5.69.976 3.823 2.007 7.632 2.77 11.505.396 1.935.86 3.85 1.2 5.796l1.01 5.83c.37 1.937.615 3.895.876 5.85.25 1.955.546 3.905.763 5.864.356 3.925.832 7.84 1.006 11.78.1 1.97.273 3.934.316 5.904l.15 5.91c.072 1.97-.008 3.94-.004 5.91-.012 1.972-.02 3.94-.125 5.91l-.265 5.903-.44 5.89c-.116 1.967-.386 3.92-.57 5.88l-.308 2.94-.39 2.927c-.483 3.908-1.134 7.792-1.782 11.674l-1.102 5.8c-.388 1.93-.824 3.85-1.234 5.773-.87 3.838-1.807 7.66-2.848 11.455-1.027 3.797-2.154 7.566-3.354 11.312-1.206 3.742-2.49 7.46-3.884 11.14-1.387 3.68-2.877 7.317-4.45 10.92-1.58 3.587-3.247 7.15-5.114 10.607v.014z"/></g><defs><path id="m" d="M-.31 0H800v716H-.31z"/></defs><clipPath id="n"><use xlink:href="#m" overflow="visible"/></clipPath><g clip-path="url(#n)"><path fill="#8DC63F" d="M663.37 111.146c-.498-26.033-21.743-46.99-47.897-46.99-12.428 0-23.75 4.733-32.264 12.493-10.79-11.74-27.358-19.26-45.948-19.26-28.354 0-52.02 17.48-57.603 40.75-25.07 7.843-42.897 27.862-42.897 51.33 0 30.3 29.736 54.87 66.42 54.87 2.598 0 5.16-.13 7.682-.37 5.404 4.793 13.86 7.883 23.373 7.883 3.42 0 6.7-.405 9.755-1.14 12.22 9.944 29.7 16.172 49.112 16.172 32.24 0 59.15-17.17 65.482-40.028 1.415.123 2.85.19 4.3.19 23.77 0 43.033-16.997 43.033-37.96.002-20.825-19.013-37.725-42.56-37.95l.002.003z"/><path d="M663.37 111.146l-.295-3.416c-.062-.567-.065-1.143-.178-1.703l-.315-1.682-.314-1.678c-.1-.56-.2-1.12-.383-1.662l-.957-3.276c-.326-1.09-.822-2.12-1.224-3.19l-.635-1.58-.788-1.51c-.54-.997-1.004-2.036-1.606-2.995l-1.837-2.86c-.604-.958-1.37-1.8-2.05-2.706l-1.047-1.334-1.166-1.23c-.796-.802-1.517-1.678-2.37-2.417l-2.557-2.225c-.852-.735-1.813-1.337-2.72-2.01l-1.372-.98-1.46-.85c-.988-.544-1.918-1.188-2.947-1.647l-3.06-1.41c-1.02-.466-2.11-.76-3.165-1.15l-1.59-.557-1.636-.395c-1.096-.243-2.174-.566-3.278-.746l-3.33-.458-.83-.115-.84-.034-1.68-.062-1.676-.06-.418-.017-.162-.006-.213.014-.854.053-3.425.205-3.27.51c-1.09.124-2.167.454-3.247.72-1.08.28-2.172.513-3.207.93-1.046.385-2.105.733-3.14 1.14l-3.033 1.39c-.515.214-.994.494-1.476.776l-1.443.83-1.44.836-1.364.96-1.364.957-.68.48-.637.536-2.543 2.15-1.027.867-.934-.954c-1.807-1.844-3.648-3.663-5.69-5.243-.98-.842-2.066-1.553-3.1-2.328-1.075-.71-2.14-1.446-3.255-2.095-1.117-.65-2.23-1.31-3.39-1.874-1.14-.614-2.32-1.136-3.5-1.66-1.174-.543-2.4-.958-3.598-1.443-1.23-.395-2.44-.85-3.687-1.188-1.244-.34-2.482-.713-3.75-.966l-1.89-.418-1.91-.325c-2.546-.44-5.122-.658-7.7-.81l-1.935-.038-.97-.018-.48-.01-.43.02-3.97.183c-.674.015-1.307.09-1.932.18l-1.894.236-1.89.234-1.897.38-1.89.383c-.634.123-1.265.25-1.878.445l-3.71 1.054c-2.415.877-4.847 1.71-7.146 2.86l-1.746.804-1.676.94c-1.108.645-2.27 1.2-3.307 1.953-1.052.724-2.145 1.393-3.167 2.16l-3.005 2.37c-.96.84-1.872 1.73-2.813 2.59-.482.416-.915.883-1.335 1.36l-1.282 1.41c-.895.91-1.633 1.946-2.403 2.953l-1.156 1.51-1.014 1.61c-.676 1.07-1.387 2.123-1.915 3.274l-.86 1.69-.43.844-.35.88c-.442 1.186-.975 2.336-1.35 3.538l-1.05 3.632-.343 1.19-1.165.425c-1.658.606-3.343 1.145-4.98 1.802l-2.43 1.046-1.214.52c-.4.185-.785.397-1.18.595-1.564.81-3.156 1.564-4.638 2.52l-2.26 1.36-2.16 1.51c-2.898 1.99-5.51 4.337-8.02 6.767-2.37 2.558-4.69 5.185-6.55 8.128-1.98 2.863-3.466 6.014-4.784 9.205l-.826 2.458-.41 1.23-.3 1.26-.6 2.52c-.14.85-.243 1.704-.37 2.557-.32 1.7-.276 3.434-.39 5.153l-.024.576.02.684.044 1.364.02.684.063.626.118 1.25c.365 3.386 1.148 6.795 2.31 10.037 2.318 6.51 6.16 12.465 10.973 17.5 2.404 2.52 5.05 4.82 7.875 6.89 2.824 2.067 5.814 3.926 8.95 5.507 6.27 3.165 13.02 5.42 19.964 6.652 3.473.613 6.985.995 10.516 1.156l2.647.06.33.008c.03 0 .17.002.107.004l.17-.003.684-.015 1.365-.03c1.86-.003 3.525-.193 5.28-.296l1.005-.06.833.66 1.55 1.227c.49.44 1.108.74 1.655 1.117.558.367 1.12.727 1.736 1.008.605.3 1.197.62 1.81.907l1.895.75c.62.275 1.285.445 1.94.644.657.18 1.3.424 1.97.56l2.014.42c.664.167 1.353.22 2.035.31.686.076 1.364.187 2.05.237l2.066.086 1.033.045 1.02-.03c.725-.025 1.487-.023 2.124-.1.67-.07 1.32-.086 2.005-.193.68-.104 1.368-.186 2.04-.304l2.02-.413 1.11-.227.938.69 3.255 2.416c.55.39 1.065.83 1.644 1.183l1.735 1.055c1.17.685 2.297 1.443 3.498 2.073l3.66 1.796c1.204.645 2.48 1.11 3.755 1.6 1.275.484 2.53 1.01 3.818 1.46l3.93 1.158 1.963.58 2.003.42 4.013.838c1.343.26 2.71.363 4.066.554l2.034.255c.678.09 1.354.184 2.043.19l4.104.18 2.053.092 2.03-.057c1.4-.05 2.82-.063 4.197-.143 2.693-.284 5.386-.44 8.092-.958 2.723-.355 5.37-1.066 8.04-1.666 2.613-.808 5.27-1.514 7.793-2.57 1.28-.485 2.564-.956 3.785-1.57 1.23-.596 2.497-1.12 3.696-1.77l3.573-2c1.162-.71 2.276-1.497 3.42-2.24 1.17-.71 2.178-1.632 3.268-2.45.53-.425 1.086-.825 1.597-1.272l1.49-1.39 1.493-1.387c.5-.46.92-.994 1.384-1.49.887-1.02 1.878-1.964 2.64-3.085l1.216-1.624c.41-.54.825-1.074 1.15-1.667.677-1.167 1.443-2.29 2.056-3.488.565-1.22 1.18-2.426 1.715-3.662l1.33-3.815.438-1.246 1.265.067 3.96.212.122.006.06.005c.025 0-.112.005-.04.003h.034l.257-.01.512-.02 1.022-.036 2.05-.07c1.35-.08 2.6-.308 3.903-.447.645-.054 1.293-.22 1.94-.357l1.94-.42c2.565-.64 5.083-1.486 7.505-2.56.622-.23 1.21-.533 1.792-.85l1.76-.922c.6-.285 1.153-.65 1.707-1.014l1.666-1.08c.573-.336 1.073-.77 1.598-1.176l1.564-1.228c1.02-.84 1.93-1.81 2.907-2.7.908-.96 1.746-1.987 2.627-2.978.754-1.084 1.55-2.146 2.27-3.255l.974-1.73c.31-.583.69-1.135.922-1.757l.783-1.826.394-.913c.12-.31.2-.63.3-.945.355-1.274.86-2.516 1.034-3.836.237-1.304.537-2.604.564-3.936l.14-1.99.02-.25.01-.06c-.003-.057.003.04 0 .02v-.032l-.007-.13-.02-.51-.05-1.024-.09-2.048c-.08-.658-.202-1.3-.302-1.95-.112-.648-.184-1.303-.327-1.95l-.533-1.93c-.297-1.307-.836-2.533-1.328-3.777-1.008-2.48-2.383-4.8-3.916-7.006-.77-1.1-1.684-2.097-2.52-3.153-.923-.98-1.89-1.92-2.84-2.875-1.044-.853-2.063-1.743-3.13-2.57-1.123-.75-2.21-1.562-3.365-2.265-1.19-.64-2.34-1.37-3.562-1.956-1.24-.537-2.45-1.165-3.725-1.633-1.29-.427-2.555-.942-3.865-1.3-1.32-.317-2.63-.707-3.966-.965-1.347-.203-2.69-.454-4.04-.624l-4.08-.29.01-.007zm0 0l4.1.15c1.36.125 2.714.33 4.075.49 1.354.214 2.682.562 4.026.836 1.34.316 2.63.792 3.95 1.182 1.305.43 2.55 1.022 3.83 1.528 1.26.553 2.45 1.25 3.68 1.877 1.194.68 2.32 1.48 3.49 2.22 1.11.813 2.177 1.7 3.27 2.55.997.95 2.018 1.893 2.99 2.88.886 1.06 1.85 2.07 2.677 3.18 1.64 2.236 3.127 4.607 4.244 7.163.547 1.28 1.14 2.55 1.484 3.908l.606 2.008c.17.68.27 1.387.403 2.08.123.696.27 1.397.37 2.09l.143 2.046.07 1.02.034.513.01.13.003.03.002.084-.006.066-.015.263-.094 2.102c.004 1.41-.27 2.79-.492 4.18-.153 1.403-.645 2.73-.99 4.095-.1.338-.18.683-.298 1.014l-.39.98-.788 1.96c-.23.67-.615 1.266-.93 1.895l-.99 1.863c-.734 1.2-1.55 2.35-2.332 3.523-.904 1.077-1.773 2.19-2.716 3.237-1.01.98-1.97 2.02-3.035 2.935l-1.635 1.336c-.55.44-1.078.913-1.678 1.283l-1.754 1.18c-.58.397-1.163.795-1.792 1.112l-1.853 1.014c-.612.347-1.233.68-1.89.94-2.554 1.185-5.214 2.135-7.935 2.863l-2.06.486c-.686.157-1.362.343-2.08.42-1.405.185-2.854.452-4.23.556l-2.046.11-1.025.055-.51.028-.254.013-.135.003h-.063l-.13-.005-4.23-.15 1.7-1.177-1.368 4.165c-.55 1.35-1.186 2.666-1.78 4-.638 1.31-1.44 2.53-2.16 3.798-.35.645-.78 1.228-1.213 1.813l-1.28 1.763c-.81 1.217-1.847 2.24-2.784 3.348-.49.535-.938 1.113-1.463 1.61l-1.57 1.5-1.57 1.5c-.54.484-1.12.918-1.677 1.378-1.142.885-2.212 1.875-3.433 2.646-1.2.806-2.375 1.652-3.596 2.42l-3.75 2.162c-1.26.705-2.582 1.275-3.873 1.92-1.28.663-2.624 1.18-3.965 1.706-2.647 1.144-5.422 1.928-8.162 2.81-2.794.67-5.57 1.447-8.42 1.86-2.808.58-5.73.79-8.62 1.1-1.42.092-2.81.115-4.22.177l-2.175.074-2.155-.076-4.31-.156c-.72-.004-1.436-.097-2.15-.183l-2.142-.25c-1.43-.187-2.866-.29-4.282-.55l-4.238-.846-2.12-.43-2.08-.595-4.16-1.194c-1.367-.464-2.707-1.01-4.062-1.513-1.353-.51-2.715-1-4-1.67l-3.916-1.885c-1.287-.663-2.508-1.462-3.764-2.188l-1.87-1.117c-.62-.377-1.187-.843-1.782-1.26l-3.526-2.58 2.044.466-2.268.48c-.76.14-1.524.24-2.287.36-.76.123-1.568.16-2.35.242-.815.09-1.51.09-2.25.113l-1.167.032-1.154-.043-2.31-.093c-.768-.053-1.533-.17-2.3-.256-.765-.1-1.534-.16-2.29-.343l-2.273-.47c-.758-.152-1.494-.417-2.24-.624-.745-.222-1.497-.42-2.217-.73l-2.18-.857c-.71-.33-1.405-.7-2.11-1.05-.71-.33-1.38-.747-2.05-1.18-.654-.442-1.36-.8-1.972-1.326l-1.88-1.49 1.84.602c-1.883.123-3.84.326-5.623.33l-1.364.036-.68.018-.174.006-.234-.002-.35-.007-2.812-.055c-3.747-.16-7.484-.556-11.185-1.2-7.398-1.295-14.615-3.678-21.354-7.06-6.73-3.393-12.94-7.895-18.17-13.402-5.226-5.497-9.45-12.05-12-19.28-1.28-3.617-2.14-7.353-2.54-11.206l-.133-1.47-.063-.733-.02-.68-.04-1.365-.02-.68-.004-.084.002-.12.003-.044.008-.18.017-.36c.12-1.91.095-3.834.446-5.725.14-.946.262-1.9.422-2.842l.672-2.793.338-1.398.455-1.36.923-2.72c1.46-3.526 3.12-6.99 5.29-10.12 2.044-3.223 4.577-6.073 7.184-8.818 2.733-2.616 5.582-5.12 8.707-7.234l2.33-1.605 2.43-1.44c1.595-1.002 3.3-1.802 4.976-2.65.424-.207.838-.43 1.267-.623l1.3-.546 2.594-1.09c1.748-.685 3.54-1.245 5.31-1.87l-1.51 1.615 1.185-4c.43-1.32 1.014-2.582 1.516-3.875l.395-.96.48-.925.956-1.846c.597-1.26 1.376-2.4 2.124-3.567l1.123-1.744 1.267-1.64c.85-1.09 1.664-2.206 2.638-3.19l1.402-1.516c.462-.51.934-1.012 1.456-1.46 1.02-.923 2.018-1.873 3.06-2.77l3.265-2.514c1.114-.806 2.294-1.51 3.437-2.267 1.126-.787 2.372-1.367 3.567-2.037l1.807-.975 1.878-.83c2.47-1.185 5.07-2.04 7.65-2.925l3.954-1.06c.655-.198 1.327-.324 1.997-.44l2.01-.38 2.01-.37 2.06-.225 2.056-.22c.69-.08 1.373-.15 2.027-.15l3.97-.122.567-.012.51.018 1.02.032 2.037.07c2.71.2 5.42.475 8.093.98l2.004.374 1.982.47c1.327.288 2.624.695 3.93 1.076 1.305.38 2.57.876 3.86 1.31 1.25.53 2.53.988 3.756 1.577 1.232.57 2.468 1.14 3.654 1.802 1.21.61 2.37 1.323 3.532 2.024 1.163.7 2.27 1.49 3.394 2.253 1.074.83 2.2 1.6 3.22 2.5 2.125 1.694 4.038 3.64 5.903 5.61l-1.96-.087 2.73-2.235.68-.556.728-.5 1.456-.99 1.46-.99 1.534-.86 1.54-.854c.51-.29 1.022-.575 1.57-.794l3.22-1.418c1.097-.417 2.224-.75 3.332-1.126 1.103-.41 2.256-.63 3.396-.896 1.144-.252 2.267-.563 3.456-.672l3.513-.447 3.43-.12.855-.03.216-.006c.17-.005.17.007.268.01l.436.025 1.748.11 1.746.11.87.057.863.14 3.45.566c1.146.217 2.258.577 3.385.86l1.688.452 1.634.614c1.08.43 2.196.77 3.243 1.276l3.128 1.536c1.048.5 1.993 1.19 2.993 1.77l1.48.915 1.39 1.044c.91.716 1.88 1.358 2.74 2.134l2.56 2.347c.854.78 1.57 1.693 2.362 2.534l1.16 1.287 1.036 1.39c.67.94 1.426 1.82 2.02 2.81l1.794 2.957c.59.986 1.02 2.065 1.535 3.092l.74 1.557.59 1.622c.37 1.087.834 2.144 1.125 3.255l.856 3.337c.165.553.25 1.12.33 1.69l.26 1.7.26 1.7c.09.564.08 1.14.12 1.71l.176 3.43h-.01z"/></g><defs><path id="o" d="M-.31 0H800v716H-.31z"/></defs><clipPath id="p"><use xlink:href="#o" overflow="visible"/></clipPath><g clip-path="url(#p)"><path fill="#8DC63F" d="M485.676 421.97s17.56-19.087 17.56-35.883v32.83s6.872-27.485 0-58.024c-6.87-30.54 12.216 45.045 12.216 45.045s3.054-25.193 9.162-41.99c6.107-16.796-8.078 42.755 7.412 58.023"/><path d="M485.676 421.97c1.104-1.262 2.147-2.573 3.164-3.905 1.016-1.33 2.004-2.685 2.942-4.07.963-1.37 1.863-2.78 2.748-4.2l1.287-2.15 1.203-2.198c.413-.728.76-1.486 1.128-2.235.36-.753.746-1.493 1.05-2.27l.964-2.307.813-2.36c.3-.776.467-1.592.686-2.392.21-.803.44-1.6.54-2.423.13-.818.29-1.63.38-2.45l.128-2.464c.054-.82.004-1.67.013-2.505l-.01-1.252v-.157c-.23-.012 2.01-.003 1.06.004v.454l.005.63.037 5.028.07 10.06.144 20.118-1.553-.19c.54-2.387.95-4.854 1.324-7.303.352-2.46.672-4.923.9-7.396.247-2.472.405-4.952.534-7.433l.13-3.725.02-3.727c.02-1.242-.04-2.482-.074-3.725-.045-1.24-.056-2.482-.16-3.72l-.254-3.716c-.11-1.235-.267-2.467-.393-3.7-.22-2.476-.696-4.913-1.04-7.37-.49-2.436-.94-4.854-1.503-7.298l-.803-3.678c-.13-.624-.256-1.213-.36-1.91-.01-.12-.03-.13-.025-.422-.01.005.04-.323.13-.45-.307-.483 2.275-.46 1.56-.21.072.064.177.223.18.237l.04.07c.05.104.055.125.082.19.068.187.118.337.17.496l.28.92c.708 2.423 1.355 4.833 2.003 7.25l3.756 14.527 7.347 29.084-1.754.11c.297-2.27.625-4.52.983-6.775.332-2.254.75-4.496 1.136-6.74.387-2.248.864-4.48 1.295-6.72.44-2.235 1.01-4.45 1.508-6.674.485-2.23 1.17-4.413 1.745-6.622.544-2.216 1.36-4.363 2.06-6.543.365-1.086.69-2.17 1.14-3.244.23-.548.418-1.056.8-1.667.06-.087.11-.168.25-.29.056-.05.177-.15.384-.205.144-.026.298-.026.43.03.144.053.263.15.3.2.225.285.2.38.24.5.02.107.03.197.044.287.03.34.025.635.02.934-.093 2.336-.36 4.57-.567 6.84-.445 4.525-.854 9.044-1.11 13.57-.263 4.53-.41 9.066-.285 13.6.135 4.525.506 9.062 1.455 13.49.48 2.21 1.11 4.396 1.994 6.48.892 2.076 2.056 4.066 3.648 5.694-1.646-1.577-2.88-3.542-3.842-5.607-.963-2.07-1.656-4.26-2.188-6.48-1.06-4.44-1.54-9-1.78-13.553-.468-9.116.13-18.242.9-27.302.177-2.26.41-4.542.468-6.753.002-.27-.002-.546-.024-.77-.006-.055-.015-.106-.02-.137.006-.017-.053-.063.076.11.02.02.104.104.215.143.1.033.217.054.324.02.14-.03.204-.09.204-.09.03-.03-.004.006-.023.04-.22.352-.444.914-.64 1.416-.413 1.03-.73 2.13-1.075 3.2-.654 2.164-1.432 4.283-1.94 6.493-.537 2.195-1.185 4.363-1.634 6.586-.47 2.217-.99 4.42-1.412 6.646-.413 2.228-.88 4.444-1.254 6.68-.37 2.236-.773 4.468-1.095 6.71-.35 2.24-.665 4.49-.946 6.726l-.587 4.646-1.168-4.536-7.48-29.04-3.818-14.496c-.64-2.41-1.27-4.833-1.955-7.21l-.262-.875-.13-.39c-.006-.006-.026-.06-.01-.023l.01.018c-.006-.003.085.142.146.188-.72.234 1.828.25 1.52-.215.09-.106.13-.417.12-.39 0-.14.005.006.015.04.077.54.21 1.176.327 1.773l.78 3.65c.55 2.43 1 4.935 1.485 7.398.34 2.494.81 4.975 1.02 7.483.125 1.252.273 2.502.38 3.756l.24 3.768c.1 1.254.105 2.513.145 3.77.03 1.258.085 2.516.056 3.77l-.033 3.772-.147 3.77c-.143 2.51-.313 5.02-.575 7.52-.244 2.5-.572 4.995-.95 7.48-.415 2.488-.86 4.948-1.46 7.43l-1.6 6.625.05-6.81.144-20.116.072-10.06.033-5.03.004-.63v-.452c-.95-.005 1.295-.014 1.063-.002v.158l-.01 1.258c-.018.843.02 1.668-.047 2.522l-.186 2.555c-.114.842-.3 1.674-.446 2.51-.124.845-.382 1.653-.61 2.47-.24.81-.434 1.64-.756 2.42l-.88 2.38-1.03 2.312c-.32.778-.73 1.518-1.11 2.27-.39.746-.756 1.505-1.19 2.227l-1.26 2.184-1.345 2.135c-.923 1.405-1.858 2.8-2.856 4.15-.985 1.36-2.017 2.688-3.077 3.987-1.064 1.306-2.15 2.584-3.29 3.813l-.005-.015z"/></g><defs><path id="q" d="M-.31 0H800v716H-.31z"/></defs><clipPath id="r"><use xlink:href="#q" overflow="visible"/></clipPath><g clip-path="url(#r)"><path fill="#8DC63F" d="M-44.333 414.624h868.99V722h-868.99V414.624z"/><path d="M825.19 721.063H-43.803l.927.793V414.48l-1.99 1.082h868.99l-.925-.793v307.37c0 1.38 2.91.833 2.91-.29V414.48c0-.513-.43-.795-.926-.795h-868.99c-.57 0-1.99.258-1.99 1.084v307.37c0 .512.43.794.925.794h868.99c1.24-.005 3.03-1.882 1.067-1.882v.005z"/></g><defs><path id="s" d="M-.31 0H800v716H-.31z"/></defs><clipPath id="t"><use xlink:href="#s" overflow="visible"/></clipPath><g clip-path="url(#t)"><path fill="#8DC63F" d="M744.91 421.97s17.56-19.087 17.56-35.883v32.83s6.87-27.485 0-58.024c-6.872-30.54 12.216 45.045 12.216 45.045s3.053-25.193 9.16-41.99c6.11-16.796-8.076 42.755 7.414 58.023"/><path d="M744.91 421.97c1.102-1.262 2.145-2.573 3.16-3.905 1.02-1.33 2.007-2.685 2.946-4.07.963-1.37 1.86-2.78 2.748-4.2l1.285-2.15 1.2-2.198c.41-.728.76-1.486 1.13-2.235.355-.753.742-1.493 1.05-2.27l.963-2.307.812-2.36c.3-.776.466-1.592.683-2.392.207-.803.44-1.6.54-2.423.124-.818.29-1.63.38-2.45l.13-2.464c.05-.82 0-1.67.01-2.505l-.01-1.252v-.157c-.234-.012 2.01-.003 1.06.004v.14l.003.314.006.63.032 5.028.072 10.06.144 20.118-1.555-.19c.54-2.387.953-4.854 1.326-7.303.354-2.46.674-4.923.904-7.396.247-2.472.405-4.952.534-7.434l.13-3.728.016-3.727c.02-1.242-.04-2.482-.074-3.725-.05-1.24-.057-2.48-.163-3.72l-.255-3.715c-.11-1.235-.262-2.467-.39-3.7-.216-2.476-.694-4.913-1.04-7.37-.49-2.436-.938-4.854-1.5-7.3l-.805-3.675c-.127-.626-.256-1.215-.36-1.91-.01-.12-.032-.13-.025-.424-.013.005.04-.323.13-.45-.307-.483 2.275-.46 1.56-.21.073.064.177.223.18.237l.038.07c.055.104.057.125.085.19.074.187.12.337.175.496l.28.92c.71 2.42 1.354 4.83 2.004 7.25l3.756 14.523 7.345 29.084-1.752.11c.296-2.273.624-4.523.982-6.777.334-2.252.752-4.494 1.14-6.74.386-2.246.863-4.48 1.292-6.717.442-2.236 1.012-4.45 1.51-6.675.484-2.23 1.17-4.414 1.744-6.623.545-2.216 1.363-4.364 2.057-6.543.367-1.087.695-2.17 1.146-3.245.23-.55.413-1.057.8-1.668.06-.088.11-.17.25-.29.053-.05.174-.15.38-.206.14-.026.296-.026.427.03.144.053.26.15.3.202.225.283.196.38.24.5.022.105.032.195.042.285.03.34.025.636.02.935-.094 2.334-.36 4.57-.57 6.84-.445 4.523-.85 9.042-1.107 13.57-.267 4.53-.41 9.064-.287 13.597.134 4.526.505 9.063 1.453 13.492.48 2.21 1.11 4.394 1.995 6.48.89 2.074 2.054 4.064 3.646 5.692-1.644-1.577-2.88-3.542-3.84-5.607-.963-2.07-1.656-4.26-2.19-6.48-1.06-4.443-1.54-9-1.777-13.554-.47-9.116.126-18.242.897-27.302.18-2.26.413-4.543.47-6.754 0-.27-.002-.544-.024-.77l-.02-.135c.006-.018-.055-.064.076.11.022.02.105.103.217.142.1.032.214.052.32.02.14-.03.2-.092.2-.092.035-.03 0 .006-.02.038-.22.354-.443.916-.64 1.418-.414 1.03-.732 2.13-1.074 3.2-.654 2.165-1.432 4.284-1.94 6.494-.54 2.197-1.185 4.365-1.636 6.588-.466 2.218-.986 4.42-1.41 6.647-.415 2.227-.88 4.443-1.253 6.68-.374 2.235-.777 4.467-1.1 6.71-.347 2.24-.663 4.49-.944 6.725l-.586 4.646-1.168-4.535-7.48-29.04-3.82-14.497c-.64-2.41-1.27-4.833-1.957-7.21l-.264-.875-.134-.39c-.004-.006-.024-.06-.01-.023l.01.017c-.005-.003.086.142.146.188-.72.235 1.825.25 1.52-.214.09-.104.13-.415.12-.39 0-.14.004.008.012.04.08.54.21 1.178.33 1.775l.78 3.65c.548 2.43 1 4.933 1.484 7.396.34 2.495.81 4.976 1.02 7.484.125 1.25.272 2.5.38 3.755l.24 3.767c.1 1.254.103 2.512.144 3.77.03 1.258.087 2.515.058 3.77l-.036 3.772-.15 3.77c-.14 2.51-.31 5.02-.573 7.52-.245 2.5-.575 4.994-.95 7.48-.416 2.487-.86 4.947-1.46 7.43l-1.6 6.624.048-6.813.142-20.115.07-10.06.036-5.026.003-.63v-.463c-.947-.007 1.293-.016 1.06-.004v.157l-.01 1.26c-.02.84.02 1.666-.045 2.52l-.187 2.555c-.114.845-.3 1.677-.446 2.514-.125.842-.383 1.65-.61 2.466-.242.813-.435 1.64-.757 2.424l-.88 2.378-1.03 2.314c-.323.777-.73 1.518-1.11 2.27-.39.746-.756 1.504-1.19 2.227l-1.26 2.184-1.345 2.136c-.922 1.404-1.857 2.8-2.855 4.15-.985 1.36-2.017 2.687-3.077 3.987-1.06 1.306-2.146 2.585-3.287 3.813l-.005-.002z"/></g><defs><path id="u" d="M-.31 0H800v716H-.31z"/></defs><clipPath id="v"><use xlink:href="#u" overflow="visible"/></clipPath><g clip-path="url(#v)"><path fill="#8B5E3C" d="M63.562 421.97s39.964-72.56 11.646-159.096c-13.87-16.026-22.735-34.52-22.735-34.52L78.99 257.83l13.558 5.042 6.158-9.668 9.446-46.815s2.314 30.63 0 45.08c12.718-1.16 13.296 8.67 13.296 8.67l16.5-32.947-11.877 35.677 9.25-3.31 14.89-39.11-7.374 42.42s-2.313 9.983-9.248 18.075c-6.937 8.09-25.95 99.985 4.363 141.02"/><path d="M63.562 421.97c1.563-3.024 2.95-6.138 4.265-9.276 1.303-3.146 2.533-6.318 3.672-9.524 1.132-3.21 2.212-6.437 3.21-9.69.984-3.252 1.92-6.523 2.76-9.82.85-3.29 1.613-6.603 2.32-9.93l1-5 .88-5.02c.51-3.36 1.022-6.717 1.39-10.095l.3-2.53.23-2.536c.138-1.698.345-3.38.423-5.08l.308-5.084.158-5.09c.075-1.694.07-3.39.063-5.088-.02-1.698.038-3.396-.04-5.09l-.173-5.087c-.05-1.694-.213-3.384-.315-5.076-.178-3.39-.615-6.755-.95-10.13-.202-1.682-.47-3.356-.7-5.036-.24-1.68-.464-3.357-.795-5.02l-.91-5.003c-.306-1.664-.72-3.31-1.074-4.966-.683-3.32-1.597-6.585-2.462-9.86-.405-1.646-.937-3.255-1.434-4.875l-1.505-4.854.21.37-3.315-4.03-1.66-2.015-1.554-2.094-3.095-4.2-2.92-4.32c-.993-1.422-1.88-2.92-2.81-4.385l-1.38-2.21-1.315-2.25c-.884-1.495-1.75-3.002-2.574-4.534-.85-1.522-1.646-3.054-2.44-4.637l-4.17-8.323 6.254 6.93 26.56 29.434-.52-.355 13.565 5.023-1.607.54 6.146-9.68-.188.464 9.376-46.83 2.137-10.676.706 10.855.367 5.657c.096 1.886.213 3.77.292 5.655l.227 5.658.126 5.667c.064 1.888.03 3.78.03 5.675l-.01 2.84c.01.944-.05 1.895-.087 2.845l-.122 2.85c-.054.95-.05 1.896-.152 2.85l-.63 5.73-1.61-1.723 2.376-.098 1.205.08c.402.04.802.03 1.206.115l1.21.232c.407.06.804.2 1.2.333.394.148.8.238 1.18.437l1.14.57c.37.217.718.475 1.07.715.37.226.658.558.986.836.33.276.592.62.874.948.294.318.515.688.755 1.043.25.35.42.744.623 1.118.187.382.34.78.49 1.176.133.403.265.806.355 1.225.104.43.17.803.22 1.34l-2.774-.57 16.553-32.92 2.6 1.08-11.927 35.65-1.74-1.7 9.252-3.297-.802.783L149.02 220l2.445.672-4.583 25.748-2.3 12.872-.575 3.22-.072.4-.018.102-.025.126-.013.05-.05.198c-.07.26-.16.544-.23.813-.16.56-.338 1.08-.51 1.61-.34 1.07-.77 2.096-1.17 3.136-.42 1.028-.905 2.03-1.356 3.047-.506.99-1.043 1.967-1.563 2.95-.554.965-1.187 1.89-1.776 2.834-.286.48-.617.93-.97 1.364l-1.03 1.325-.515.66-.258.334-.064.082-.03.04c-.06.08.05-.06.024-.03l-.116.168c-.315.45-.637.9-.814 1.326-.447.81-.85 1.864-1.248 2.83-.36 1.01-.75 2.004-1.063 3.04-.332 1.023-.656 2.05-.942 3.095-.304 1.037-.596 2.078-.857 3.13-2.174 8.388-3.736 16.957-4.92 25.563-.614 4.304-1.062 8.628-1.475 12.954-.37 4.33-.69 8.668-.85 13.01-.094 2.174-.164 4.347-.175 6.52-.05 2.175-.02 4.348.01 6.52-.004 2.177.14 4.347.206 6.52.1 2.17.283 4.338.424 6.508.41 4.326.887 8.652 1.646 12.935l.565 3.212.694 3.187c.424 2.13 1.03 4.22 1.593 6.32.26 1.06.626 2.08.96 3.115.34 1.03.66 2.07 1.02 3.1l1.18 3.04.593 1.52.688 1.48 1.378 2.96 1.576 2.856.792 1.43.894 1.365 1.805 2.727-1.858-2.69-.925-1.35-.823-1.413-1.64-2.83-1.44-2.94-.72-1.47-.627-1.515-1.25-3.033c-.38-1.02-.72-2.06-1.084-3.09-.354-1.033-.734-2.06-1.01-3.117-.6-2.1-1.24-4.19-1.7-6.328l-.744-3.19-.618-3.22c-.828-4.292-1.373-8.63-1.852-12.976-.175-2.176-.39-4.353-.523-6.533-.1-2.184-.276-4.363-.306-6.55-.063-2.183-.127-4.367-.108-6.552-.02-2.184.015-4.37.074-6.553.095-4.367.353-8.73.66-13.092.375-4.353.786-8.707 1.36-13.04 1.114-8.67 2.605-17.3 4.726-25.813.255-1.066.54-2.126.84-3.184.28-1.062.604-2.115.934-3.167.68-2.128 1.344-4.145 2.438-6.3.267-.577.578-1.015.884-1.46l.114-.17.177-.23.24-.32.483-.633.965-1.265c.334-.414.645-.845.91-1.307.556-.906 1.15-1.79 1.67-2.72l1.474-2.84c.423-.98.88-1.943 1.276-2.934.37-1 .777-1.99 1.085-3.01.167-.507.333-1.013.465-1.512.07-.255.146-.49.21-.76l.048-.2.012-.05c-.03.137-.003.01-.007.027l.017-.1.068-.402.545-3.223 2.183-12.893 4.38-25.782 2.447.673-14.83 39.13-.22.576-.58.21-9.246 3.324-2.613.94.876-2.642 11.823-35.695 2.6 1.076-16.45 32.967-2.21 4.426-.568-4.996c-.02-.2-.075-.56-.15-.85-.066-.308-.17-.608-.268-.91-.117-.294-.23-.593-.37-.874-.157-.272-.273-.57-.464-.82-.177-.257-.332-.532-.55-.755-.206-.23-.386-.49-.633-.68-.242-.194-.437-.445-.71-.6-.263-.17-.51-.36-.78-.52l-.852-.42c-.276-.153-.607-.213-.906-.327-.307-.1-.608-.216-.94-.257l-.977-.186c-.32-.07-.67-.055-1.004-.09l-1.012-.065-2.072.09-1.805.08.196-1.805.594-5.49c.103-.914.1-1.854.156-2.78l.128-2.79c.038-.93.104-1.858.092-2.795l.02-2.807c.01-1.87.047-3.737-.01-5.61l-.11-5.62-.206-5.62c-.073-1.873-.184-3.745-.274-5.618l-.346-5.606 2.843.175-9.517 46.8-.052.25-.136.212-6.173 9.66-.59.92-1.02-.38-13.55-5.067-.31-.114-.215-.24-26.47-29.53 2.084-1.394c.743 1.51 1.524 3.048 2.345 4.55.793 1.516 1.633 3.01 2.5 4.494l1.272 2.232 1.344 2.195c.9 1.458 1.762 2.943 2.73 4.358l2.84 4.29 3.015 4.167 1.514 2.08 1.612 1.998 3.227 3.998.157.193.054.18 1.477 4.92c.488 1.64 1.01 3.27 1.404 4.94.844 3.318 1.736 6.62 2.395 9.98.342 1.68.744 3.34 1.04 5.028l.873 5.058c.314 1.682.528 3.38.753 5.075.218 1.697.473 3.39.66 5.088.308 3.407.716 6.805.864 10.223.087 1.706.236 3.41.272 5.12l.13 5.126c.06 1.71-.01 3.42-.008 5.127-.01 1.71-.02 3.418-.112 5.125l-.234 5.12-.387 5.11c-.102 1.706-.336 3.4-.5 5.1l-.27 2.547-.34 2.54c-.42 3.388-.99 6.756-1.554 10.122l-.96 5.028-1.074 5.005c-.76 3.323-1.572 6.64-2.48 9.93-.892 3.29-1.873 6.56-2.915 9.804-1.05 3.244-2.165 6.468-3.377 9.654-1.204 3.19-2.5 6.342-3.87 9.463-1.38 3.12-2.83 6.207-4.454 9.2v-.002z"/></g><defs><path id="w" d="M-.31 0H800v716H-.31z"/></defs><clipPath id="x"><use xlink:href="#w" overflow="visible"/></clipPath><g clip-path="url(#x)"><path fill="#8DC63F" d="M12.962 215.308c.497 26.033 21.742 46.99 47.895 46.99 12.43 0 23.75-4.733 32.266-12.493 10.785 11.735 27.352 19.257 45.942 19.257 28.354 0 52.02-17.48 57.6-40.75 25.074-7.847 42.9-27.866 42.9-51.328 0-30.305-29.736-54.872-66.42-54.872-2.598 0-5.16.128-7.68.368-5.407-4.795-13.863-7.885-23.376-7.885-3.42 0-6.708.404-9.76 1.138-12.226-9.943-29.7-16.17-49.11-16.17-32.24 0-59.16 17.17-65.49 40.026-1.416-.13-2.85-.19-4.3-.19-23.77 0-43.035 16.99-43.035 37.96 0 20.82 19.014 37.72 42.562 37.942v.002z"/><path d="M12.962 215.308l.293 3.416c.063.567.066 1.143.178 1.703l.316 1.682.31 1.67c.1.56.2 1.12.38 1.663l.96 3.275c.325 1.09.82 2.12 1.224 3.182l.634 1.58.783 1.512c.543.996 1.005 2.035 1.608 2.994l1.835 2.86c.605.956 1.373 1.8 2.05 2.704l1.047 1.333 1.168 1.23c.8.8 1.52 1.68 2.374 2.416l2.553 2.226c.854.734 1.817 1.336 2.718 2.01l1.376.98 1.46.85c.987.543 1.92 1.187 2.946 1.646l3.063 1.41c1.02.463 2.11.762 3.162 1.15l1.592.554 1.637.397c1.096.244 2.17.567 3.28.747l3.33.46.83.114.84.035 1.678.06 1.675.063.42.015.16.005.214-.01.853-.05 3.423-.207 3.272-.51c1.09-.12 2.167-.45 3.25-.72 1.077-.28 2.17-.51 3.204-.93 1.045-.382 2.103-.73 3.14-1.136l3.03-1.392c.516-.212.996-.492 1.476-.774l1.445-.832 1.44-.835 1.366-.96 1.364-.956.682-.48.636-.537 2.544-2.15 1.026-.868.933.952c1.805 1.846 3.646 3.665 5.69 5.245.98.842 2.065 1.553 3.097 2.328 1.08.708 2.14 1.444 3.26 2.093 1.117.65 2.228 1.31 3.39 1.875 1.138.616 2.32 1.138 3.5 1.66 1.17.545 2.4.96 3.596 1.445 1.23.394 2.44.85 3.69 1.188 1.245.34 2.482.71 3.75.966l1.89.417 1.91.325c2.546.44 5.123.66 7.7.812l1.935.037.968.016.484.007.427-.018 3.97-.184c.674-.01 1.31-.09 1.935-.174l1.89-.236 1.89-.233 1.895-.38 1.89-.384c.633-.12 1.264-.247 1.877-.443l3.71-1.056c2.415-.876 4.85-1.71 7.146-2.86l1.748-.803 1.677-.94c1.104-.643 2.267-1.197 3.303-1.95 1.053-.725 2.146-1.394 3.168-2.16l3.005-2.372c.96-.84 1.874-1.73 2.813-2.59.48-.417.913-.884 1.334-1.36l1.282-1.412c.892-.91 1.63-1.946 2.4-2.953l1.157-1.512 1.01-1.606c.677-1.072 1.39-2.124 1.917-3.275l.86-1.69.433-.846.35-.88c.442-1.18.974-2.33 1.35-3.533l1.048-3.63.344-1.19 1.166-.43c1.655-.604 3.34-1.143 4.976-1.8l2.43-1.045 1.215-.52c.4-.186.786-.398 1.18-.596 1.564-.81 3.158-1.57 4.638-2.524l2.26-1.358 2.158-1.514c2.897-1.99 5.512-4.337 8.02-6.767 2.374-2.56 4.692-5.186 6.548-8.13 1.98-2.862 3.47-6.013 4.787-9.204l.824-2.457.41-1.23.298-1.26.6-2.516c.145-.85.248-1.705.375-2.56.32-1.697.275-3.432.39-5.15l.023-.576-.02-.682-.045-1.364-.02-.685-.06-.626-.12-1.25c-.364-3.386-1.147-6.795-2.31-10.037-2.316-6.51-6.158-12.464-10.97-17.5-2.405-2.52-5.053-4.82-7.877-6.888-2.818-2.07-5.81-3.928-8.944-5.51-6.27-3.164-13.02-5.42-19.967-6.65-3.474-.615-6.987-.997-10.516-1.158l-2.646-.06-.33-.01c-.03 0-.17 0-.107-.004l-.17.003-.684.018-1.365.03c-1.86.004-3.527.194-5.28.297l-1.007.06-.834-.66-1.552-1.23c-.49-.44-1.106-.738-1.654-1.114-.56-.365-1.12-.725-1.74-1.006-.603-.3-1.195-.62-1.81-.905l-1.894-.75c-.618-.275-1.283-.445-1.937-.644-.66-.18-1.3-.422-1.974-.557l-2.014-.42c-.667-.168-1.355-.22-2.038-.31-.685-.077-1.364-.188-2.05-.238l-2.066-.087-1.033-.043-1.02.03c-.724.024-1.487.022-2.125.1-.67.068-1.322.085-2.006.192-.68.102-1.365.184-2.04.302l-2.02.413-1.11.226-.934-.69-3.254-2.415c-.55-.392-1.067-.83-1.646-1.186l-1.74-1.05c-1.168-.687-2.295-1.445-3.497-2.075l-3.657-1.797c-1.2-.647-2.48-1.114-3.754-1.604-1.275-.483-2.53-1.01-3.82-1.46l-3.927-1.157-1.964-.58-2.008-.42-4.014-.84c-1.344-.26-2.71-.36-4.067-.55l-2.037-.255c-.68-.09-1.357-.185-2.043-.19l-4.107-.18-2.053-.093-2.03.057c-1.4.05-2.82.062-4.2.142-2.69.284-5.38.44-8.09.958-2.72.356-5.37 1.066-8.04 1.666-2.614.807-5.267 1.513-7.793 2.568-1.28.484-2.564.955-3.786 1.57-1.23.595-2.5 1.117-3.696 1.77l-3.574 2c-1.164.71-2.278 1.496-3.42 2.24-1.17.71-2.18 1.63-3.268 2.448-.53.426-1.084.826-1.595 1.273l-1.49 1.387-1.495 1.387c-.5.46-.92.997-1.384 1.49-.885 1.024-1.88 1.967-2.64 3.088l-1.214 1.627c-.408.54-.823 1.076-1.148 1.67-.676 1.165-1.443 2.287-2.057 3.486-.564 1.22-1.18 2.423-1.713 3.66l-1.33 3.814-.435 1.246-1.264-.067-3.96-.212-.125-.005-.063-.003c-.02 0 .114-.003.04 0h-.03l-.257.01-.512.02-1.02.035-2.05.07c-1.346.08-2.595.308-3.9.447-.646.054-1.29.22-1.94.357l-1.94.42c-2.565.64-5.08 1.49-7.505 2.56-.623.23-1.21.536-1.793.85l-1.76.92c-.6.29-1.148.656-1.704 1.02l-1.668 1.077c-.574.337-1.075.77-1.598 1.177l-1.56 1.23c-1.023.84-1.93 1.807-2.91 2.7-.908.96-1.747 1.985-2.627 2.976-.756 1.08-1.554 2.142-2.273 3.25l-.973 1.73c-.313.584-.69 1.136-.92 1.758l-.787 1.825-.395.914c-.12.31-.2.63-.3.944-.358 1.276-.86 2.518-1.037 3.838-.24 1.303-.54 2.603-.564 3.935l-.14 1.99-.02.25-.005.06c0 .06-.002-.04 0-.02v.034l.007.127.022.513.046 1.023.09 2.05c.08.657.202 1.3.3 1.95.113.647.185 1.302.33 1.95l.533 1.93c.295 1.306.833 2.532 1.325 3.776 1.006 2.48 2.38 4.8 3.914 7.005.773 1.1 1.685 2.097 2.52 3.153.92.98 1.89 1.92 2.84 2.876 1.044.853 2.062 1.743 3.13 2.57 1.122.75 2.21 1.562 3.364 2.265 1.19.64 2.34 1.37 3.56 1.953 1.24.537 2.45 1.165 3.725 1.633 1.287.43 2.55.945 3.862 1.304 1.318.313 2.63.703 3.966.96 1.344.205 2.686.456 4.04.626l4.08.293.005.007zm0 0l-4.1-.15c-1.36-.125-2.716-.33-4.076-.49-1.354-.214-2.683-.562-4.027-.836-1.34-.316-2.63-.792-3.95-1.182-1.307-.43-2.55-1.022-3.83-1.528-1.26-.553-2.456-1.25-3.68-1.877-1.198-.686-2.328-1.484-3.49-2.223-1.11-.817-2.18-1.7-3.27-2.55-1-.955-2.02-1.897-2.99-2.88-.89-1.063-1.85-2.07-2.68-3.184-1.643-2.236-3.128-4.607-4.245-7.163-.548-1.282-1.14-2.552-1.486-3.91l-.606-2.006c-.17-.688-.27-1.39-.408-2.088-.123-.695-.268-1.396-.37-2.09l-.14-2.045-.072-1.02-.036-.513-.01-.13v-.03l-.004-.084.003-.064.012-.264.092-2.104c-.002-1.41.273-2.79.493-4.18.153-1.403.645-2.73.993-4.095.1-.337.18-.68.296-1.013l.39-.98.787-1.96c.23-.67.615-1.265.93-1.894l.99-1.866c.735-1.198 1.55-2.35 2.333-3.522.903-1.077 1.77-2.19 2.714-3.237 1.01-.98 1.97-2.02 3.037-2.933l1.638-1.336c.55-.44 1.076-.91 1.676-1.28l1.753-1.18c.58-.397 1.164-.795 1.793-1.11l1.852-1.016c.613-.35 1.235-.68 1.89-.94 2.556-1.187 5.215-2.137 7.936-2.865l2.058-.487c.688-.16 1.364-.345 2.08-.42 1.407-.187 2.855-.454 4.23-.558l2.047-.11 1.023-.055.512-.027.256-.013.137-.003h.065l.133.005 4.23.15-1.7 1.177 1.368-4.167c.55-1.35 1.187-2.665 1.78-4 .64-1.31 1.44-2.53 2.16-3.797.35-.643.783-1.226 1.214-1.81l1.282-1.764c.81-1.214 1.845-2.236 2.783-3.345.49-.535.94-1.113 1.463-1.61l1.57-1.5 1.574-1.5c.54-.484 1.117-.918 1.676-1.378 1.142-.886 2.21-1.876 3.434-2.647 1.2-.805 2.373-1.65 3.594-2.42l3.75-2.16c1.26-.706 2.584-1.276 3.874-1.92 1.282-.664 2.626-1.18 3.967-1.707 2.65-1.144 5.42-1.928 8.16-2.81 2.796-.67 5.573-1.447 8.423-1.86 2.808-.58 5.73-.79 8.62-1.1 1.422-.09 2.81-.115 4.218-.177l2.18-.077 2.155.075 4.31.155c.72.004 1.436.1 2.15.183l2.143.25c1.426.19 2.866.29 4.282.55l4.24.848 2.118.43 2.08.597 4.163 1.194c1.367.463 2.708 1.01 4.064 1.51 1.353.51 2.714 1 4 1.673l3.916 1.885c1.29.663 2.508 1.462 3.764 2.188l1.87 1.116c.62.377 1.186.843 1.78 1.26l3.53 2.58-2.044-.466 2.268-.482c.76-.14 1.525-.24 2.29-.36.757-.123 1.566-.16 2.35-.242.814-.09 1.512-.09 2.247-.114l1.165-.034 1.155.044 2.31.092c.77.055 1.533.173 2.3.258.767.1 1.536.162 2.29.344l2.274.47c.76.153 1.494.418 2.24.625.746.224 1.497.42 2.216.73l2.18.86c.71.33 1.405.697 2.11 1.046.71.33 1.382.748 2.047 1.18.66.443 1.366.8 1.976 1.327l1.88 1.49-1.84-.605c1.88-.123 3.84-.326 5.62-.33l1.367-.036.684-.017.17-.008.233.002.353.005 2.81.057c3.75.16 7.487.555 11.187 1.2 7.397 1.294 14.615 3.677 21.354 7.058 6.73 3.396 12.943 7.898 18.17 13.405 5.227 5.498 9.448 12.052 12 19.28 1.28 3.618 2.138 7.354 2.54 11.207l.133 1.47.06.734.02.684.04 1.365.02.683.008.085v.12l-.004.043-.01.18-.017.36c-.12 1.912-.095 3.837-.445 5.73-.14.945-.26 1.9-.42 2.84l-.674 2.795-.34 1.395-.455 1.36-.923 2.72c-1.46 3.525-3.12 6.99-5.29 10.12-2.043 3.222-4.576 6.072-7.183 8.817-2.733 2.615-5.583 5.12-8.707 7.233l-2.33 1.604-2.43 1.44c-1.595 1.002-3.3 1.802-4.975 2.65-.42.207-.834.43-1.263.623l-1.298.55-2.597 1.09c-1.746.687-3.54 1.247-5.306 1.873l1.51-1.614-1.182 4c-.43 1.32-1.014 2.583-1.517 3.876l-.393.965-.48.924-.96 1.843c-.594 1.255-1.373 2.4-2.12 3.563l-1.122 1.744-1.268 1.637c-.85 1.09-1.666 2.205-2.638 3.187l-1.403 1.517c-.46.512-.934 1.013-1.456 1.462-1.02.92-2.017 1.87-3.06 2.77l-3.265 2.51c-1.11.807-2.29 1.51-3.435 2.268-1.128.787-2.376 1.367-3.57 2.037l-1.807.975-1.876.833c-2.47 1.183-5.07 2.037-7.65 2.923l-3.955 1.06c-.652.197-1.323.323-1.995.44l-2.01.38-2.01.37-2.057.224-2.057.222c-.69.08-1.375.15-2.028.15l-3.973.12-.568.013-.51-.017-1.02-.035-2.037-.07c-2.71-.2-5.418-.476-8.09-.98l-2.004-.374-1.983-.47c-1.33-.288-2.627-.695-3.93-1.076-1.307-.377-2.574-.873-3.86-1.31-1.25-.527-2.53-.985-3.757-1.574-1.232-.57-2.465-1.14-3.653-1.8-1.214-.614-2.373-1.326-3.536-2.027-1.16-.7-2.27-1.49-3.39-2.254-1.075-.83-2.2-1.6-3.22-2.5-2.125-1.697-4.038-3.64-5.904-5.61l1.958.084-2.726 2.235-.684.555-.727.5-1.455.99-1.46.988-1.536.86-1.54.856c-.51.29-1.024.575-1.57.794l-3.22 1.42c-1.097.415-2.224.75-3.334 1.124-1.1.41-2.254.63-3.395.893-1.145.25-2.27.56-3.457.67l-3.514.45-3.427.12-.856.028-.213.01c-.17.006-.173-.006-.268-.01l-.438-.024-1.748-.108-1.748-.11-.87-.058-.863-.14-3.45-.566c-1.146-.218-2.258-.578-3.386-.86L46.49 261l-1.634-.61c-1.08-.43-2.196-.77-3.243-1.275l-3.128-1.534c-1.048-.5-1.994-1.184-2.994-1.77l-1.48-.91-1.39-1.044c-.91-.718-1.88-1.36-2.74-2.136l-2.56-2.347c-.85-.78-1.57-1.694-2.36-2.535l-1.16-1.286-1.034-1.39c-.667-.94-1.424-1.82-2.02-2.81l-1.782-2.96c-.594-.985-1.02-2.064-1.538-3.09l-.74-1.56-.59-1.62c-.37-1.09-.835-2.147-1.127-3.258l-.855-3.334c-.166-.55-.25-1.12-.33-1.688l-.26-1.7-.26-1.7c-.09-.563-.08-1.14-.12-1.708l-.18-3.43v-.002z"/></g><defs><path id="y" d="M-.31 0H800v716H-.31z"/></defs><clipPath id="z"><use xlink:href="#y" overflow="visible"/></clipPath><g clip-path="url(#z)"><path fill="#8DC63F" d="M33.632 422.97s17.56-19.087 17.56-35.883v32.83s6.87-27.485 0-58.024c-6.87-30.54 12.216 45.045 12.216 45.045s3.054-25.193 9.16-41.99c6.107-16.796-8.08 42.755 7.413 58.023"/><path d="M33.632 422.97c1.103-1.262 2.147-2.573 3.164-3.905 1.017-1.33 2.005-2.685 2.944-4.07.962-1.37 1.86-2.78 2.747-4.2l1.286-2.15 1.203-2.198c.415-.728.762-1.486 1.13-2.235.36-.753.745-1.493 1.048-2.27l.965-2.307.81-2.36c.3-.776.47-1.592.68-2.392.206-.803.44-1.6.54-2.423.124-.818.29-1.63.38-2.45l.125-2.464c.05-.82.002-1.67.01-2.505l-.01-1.252v-.157c-.23-.012 2.01-.003 1.06.004v.06l.002.08v.314l.005.63.035 5.028.07 10.06.144 20.118-1.552-.19c.54-2.387.954-4.854 1.327-7.303.352-2.46.672-4.923.9-7.396.248-2.472.406-4.952.534-7.434l.13-3.728.02-3.727c.02-1.242-.04-2.482-.075-3.725-.045-1.24-.055-2.48-.16-3.72l-.255-3.715c-.11-1.235-.26-2.467-.39-3.7-.217-2.476-.694-4.913-1.04-7.37-.49-2.436-.937-4.854-1.5-7.3l-.804-3.675c-.127-.626-.256-1.215-.36-1.91-.01-.12-.03-.13-.026-.424-.01.005.04-.323.13-.45-.305-.483 2.277-.46 1.563-.21.07.064.176.223.18.237l.037.07c.05.104.055.125.082.19.072.187.12.337.173.496l.28.92c.71 2.42 1.354 4.83 2.004 7.25l3.75 14.523 7.346 29.084-1.755.11c.298-2.273.626-4.523.985-6.777.332-2.252.75-4.494 1.135-6.74s.867-4.48 1.295-6.717c.44-2.236 1.01-4.45 1.51-6.675.483-2.23 1.167-4.414 1.743-6.623.543-2.216 1.362-4.364 2.057-6.543.367-1.087.694-2.17 1.144-3.245.23-.55.415-1.057.8-1.668.06-.088.11-.17.25-.29.053-.05.174-.15.38-.206.143-.026.298-.026.43.03.143.053.26.15.3.202.224.283.2.38.24.5.02.105.032.195.043.285.03.34.026.636.02.935-.092 2.334-.36 4.57-.57 6.84-.44 4.523-.85 9.042-1.105 13.57-.267 4.53-.414 9.064-.288 13.597.13 4.526.502 9.063 1.452 13.492.48 2.21 1.113 4.394 1.997 6.48.887 2.074 2.053 4.063 3.645 5.692-1.645-1.577-2.882-3.542-3.842-5.607-.963-2.07-1.656-4.26-2.188-6.48-1.06-4.443-1.54-9-1.78-13.554-.467-9.116.128-18.242.9-27.302.178-2.26.41-4.543.47-6.754 0-.27-.002-.544-.026-.77l-.02-.135c.006-.018-.05-.064.075.11.02.02.103.103.215.142.1.032.217.052.324.02.14-.03.203-.092.203-.092.032-.03 0 .006-.02.038-.22.354-.445.916-.643 1.418-.413 1.03-.73 2.13-1.073 3.2-.654 2.165-1.43 4.284-1.94 6.494-.54 2.197-1.185 4.365-1.635 6.588-.467 2.218-.99 4.42-1.41 6.647-.417 2.227-.882 4.443-1.256 6.68-.373 2.235-.778 4.467-1.1 6.71-.347 2.24-.663 4.49-.944 6.725l-.585 4.646-1.17-4.535-7.48-29.04-3.816-14.497c-.64-2.41-1.273-4.833-1.958-7.21l-.263-.875-.13-.39-.01-.023.012.017c-.004-.003.085.142.146.188-.72.235 1.826.25 1.52-.214.088-.104.13-.415.12-.39 0-.14.005.008.013.04.08.54.21 1.178.33 1.775l.78 3.65c.548 2.43 1 4.933 1.483 7.396.34 2.495.813 4.976 1.02 7.484.127 1.25.275 2.5.38 3.755l.24 3.767c.1 1.254.105 2.512.145 3.77.03 1.258.088 2.515.06 3.77l-.035 3.772-.148 3.77c-.14 2.51-.314 5.02-.575 7.52-.245 2.5-.574 4.994-.95 7.48-.416 2.487-.86 4.947-1.46 7.43l-1.6 6.624.05-6.813.14-20.115.07-10.06.037-5.026.003-.63.003-.314v-.147c-.948-.008 1.294-.017 1.063-.005v.156l-.01 1.26c-.02.84.015 1.668-.05 2.52l-.186 2.557c-.11.844-.3 1.676-.444 2.513-.123.843-.382 1.65-.61 2.467-.24.813-.435 1.64-.755 2.424l-.88 2.38-1.03 2.313c-.325.777-.73 1.518-1.112 2.27-.388.746-.756 1.504-1.19 2.227l-1.262 2.185-1.342 2.137c-.922 1.403-1.858 2.8-2.854 4.15-.985 1.36-2.02 2.686-3.077 3.986-1.06 1.306-2.146 2.585-3.287 3.813h-.003z"/></g><defs><path id="A" d="M-.31 0H800v716H-.31z"/></defs><clipPath id="B"><use xlink:href="#A" overflow="visible"/></clipPath><g clip-path="url(#B)"><path fill="#8B5E3C" d="M514.234 420.958s46.1-83.695 13.433-183.514c-16-18.486-26.226-39.82-26.226-39.82l30.59 34 15.64 5.82 7.107-11.152 10.897-54s2.667 35.333 0 52c14.667-1.334 15.335 10 15.335 10l19.032-38-13.7 41.152 10.67-3.82 17.176-45.11-8.51 48.93s-2.67 11.516-10.67 20.85-29.934 115.333 5.03 162.666"/><path d="M514.234 420.958c1.808-3.487 3.41-7.077 4.933-10.696 1.508-3.625 2.934-7.283 4.252-10.98.66-1.846 1.28-3.71 1.92-5.563.595-1.87 1.23-3.73 1.79-5.61 1.147-3.75 2.225-7.525 3.2-11.325.987-3.797 1.87-7.62 2.69-11.455.38-1.92.79-3.84 1.152-5.766l1.02-5.792c.598-3.874 1.194-7.748 1.624-11.645l.35-2.918.266-2.93c.16-1.952.402-3.897.494-5.855l.36-5.867.188-5.87c.09-1.958.082-3.916.078-5.875-.02-1.958.045-3.917-.043-5.874l-.197-5.87c-.057-1.956-.246-3.906-.363-5.86-.2-3.91-.702-7.795-1.09-11.69-.23-1.94-.54-3.875-.802-5.813-.273-1.938-.53-3.878-.912-5.798l-1.05-5.775c-.354-1.925-.827-3.824-1.237-5.736-.788-3.834-1.84-7.604-2.84-11.385-.465-1.9-1.08-3.76-1.65-5.628l-1.73-5.604.21.37-3.82-4.646-1.91-2.324-1.785-2.414-3.563-4.84-3.36-4.98c-.557-.83-1.127-1.656-1.644-2.513l-1.59-2.55-1.59-2.547-1.518-2.593c-1.018-1.726-2.016-3.46-2.963-5.23-.98-1.755-1.897-3.52-2.81-5.34l-4.16-8.318 6.243 6.92 30.63 33.96-.52-.357 15.645 5.8-1.605.538 7.09-11.16-.188.464 10.824-54.014 2.14-10.68.703 10.854.422 6.52c.11 2.174.246 4.346.336 6.52l.26 6.524.145 6.533c.072 2.177.035 4.36.03 6.54l-.013 3.27c.014 1.09-.06 2.188-.1 3.28l-.14 3.28c-.064 1.097-.062 2.187-.182 3.285l-.72 6.59-1.61-1.723 2.716-.11 1.377.09c.46.047.92.035 1.378.13l1.378.267c.462.064.91.23 1.362.38.445.163.91.265 1.34.49l1.294.644c.416.248.81.54 1.21.81.417.257.743.634 1.114.948.38.313.675.705.992 1.073.335.36.585.78.856 1.183.287.395.477.842.71 1.266.212.432.384.883.556 1.332.15.457.3.914.402 1.388.115.485.195.917.248 1.51l-2.775-.57 19.082-37.974 2.6 1.075-13.753 41.134-1.74-1.7 10.67-3.807-.8.786 17.234-45.09 2.447.67-5.27 29.7-2.65 14.85-.66 3.716-.08.464-.02.117-.03.134-.014.06-.06.23c-.07.3-.175.62-.263.933-.173.635-.38 1.24-.583 1.85-.383 1.225-.88 2.404-1.334 3.6-.484 1.184-1.043 2.337-1.56 3.507-.58 1.14-1.198 2.263-1.796 3.395-.643 1.11-1.364 2.173-2.044 3.26-.174.27-.34.544-.52.808l-.593.763-1.18 1.523-.593.76-.298.38-.075.095-.034.048c-.062.08.046-.057.02-.024l-.13.193-.535.774c-.19.26-.27.51-.41.764-.526.956-.99 2.165-1.45 3.286-.41 1.168-.86 2.318-1.22 3.514-.385 1.184-.76 2.37-1.09 3.576-.35 1.197-.687 2.4-.99 3.614-1.25 4.84-2.336 9.733-3.252 14.66-.926 4.925-1.742 9.874-2.406 14.845-.703 4.967-1.218 9.957-1.69 14.95-.42 4.998-.79 10.003-.966 15.016l-.136 3.76-.055 3.76c-.06 2.51-.02 5.02.02 7.527-.005 2.51.16 5.014.24 7.52.117 2.507.33 5.007.496 7.51.48 4.99 1.035 9.98 1.916 14.92l.658 3.706.803 3.677c.494 2.46 1.197 4.87 1.85 7.292.3 1.22.723 2.4 1.11 3.593.392 1.188.76 2.39 1.174 3.573l1.37 3.505.69 1.753.8 1.703 1.592 3.41 1.825 3.296.916 1.647 1.036 1.573 2.082 3.144-2.14-3.105-1.064-1.557-.95-1.635-1.886-3.27-1.656-3.396-.83-1.697-.718-1.746-1.438-3.493c-.437-1.18-.828-2.38-1.244-3.565-.405-1.19-.846-2.374-1.163-3.593-.687-2.423-1.422-4.835-1.95-7.3l-.855-3.68-.71-3.714c-.948-4.95-1.57-9.954-2.118-14.964-.2-2.51-.445-5.02-.597-7.535-.117-2.52-.315-5.03-.348-7.55-.07-2.52-.145-5.04-.118-7.56l.004-3.78.09-3.777c.113-5.04.416-10.07.773-15.1.438-5.02.912-10.04 1.582-15.036.626-5 1.407-9.984 2.3-14.95.88-4.964 1.936-9.9 3.162-14.806.295-1.226.627-2.45.97-3.665.325-1.223.698-2.436 1.08-3.646.78-2.446 1.554-4.78 2.802-7.234.3-.65.66-1.156 1.013-1.67l.133-.196.195-.26.28-.366.56-.732 1.12-1.463.56-.73c.17-.257.328-.524.494-.78.643-1.05 1.33-2.075 1.936-3.148l1.704-3.284c.49-1.134 1.02-2.25 1.48-3.396.43-1.157.9-2.3 1.26-3.48.19-.585.383-1.17.54-1.75.08-.296.17-.57.24-.882l.056-.23.016-.055c-.028.134 0 .004-.005.02l.02-.117.08-.465.63-3.718 2.525-14.87 5.07-29.738 2.446.672-17.116 45.13-.22.576-.58.21-10.66 3.83-2.62.94.877-2.64 13.645-41.17 2.603 1.077-18.984 38.024-2.223 4.453-.552-5.02c-.027-.258-.09-.674-.18-1.02-.078-.362-.2-.717-.314-1.073-.136-.347-.27-.7-.434-1.03-.186-.323-.323-.676-.547-.97-.21-.304-.398-.63-.65-.894-.246-.274-.46-.577-.75-.806-.287-.23-.52-.527-.845-.71-.31-.203-.602-.428-.92-.617l-1.006-.494c-.33-.18-.716-.25-1.068-.388-.36-.12-.716-.255-1.105-.304l-1.144-.22c-.377-.083-.785-.064-1.177-.103l-1.188-.077-2.41.103-1.804.076.192-1.803.69-6.353c.115-1.06.113-2.143.18-3.214l.145-3.22c.046-1.076.117-2.147.107-3.23l.02-3.236c.01-2.158.055-4.314-.013-6.478l-.128-6.485-.24-6.485c-.084-2.162-.214-4.322-.316-6.484l-.402-6.47 2.844.172-10.968 53.985-.05.25-.138.215-7.117 11.144-.586.92-1.02-.38-15.63-5.84-.31-.116-.217-.24-30.54-34.04 2.08-1.395c.86 1.746 1.768 3.52 2.715 5.254.92 1.75 1.894 3.475 2.888 5.19l1.48 2.574 1.553 2.532 1.55 2.532c.506.853 1.062 1.67 1.61 2.497l3.28 4.95 3.48 4.81 1.75 2.4 1.866 2.304 3.73 4.614.155.192.054.176 1.704 5.67c.56 1.89 1.164 3.77 1.62 5.69.976 3.823 2.007 7.632 2.77 11.505.396 1.935.86 3.85 1.2 5.796l1.01 5.83c.37 1.937.615 3.895.876 5.85.25 1.955.546 3.905.763 5.864.356 3.925.832 7.84 1.006 11.78.1 1.97.273 3.934.316 5.904l.15 5.91c.072 1.97-.008 3.94-.004 5.91-.012 1.972-.02 3.94-.125 5.91l-.265 5.903-.44 5.89c-.116 1.967-.386 3.92-.57 5.88l-.308 2.94-.39 2.927c-.483 3.908-1.134 7.792-1.782 11.674l-1.102 5.8c-.388 1.93-.824 3.85-1.234 5.773-.87 3.838-1.807 7.66-2.848 11.455-1.027 3.797-2.154 7.566-3.354 11.312-1.206 3.742-2.49 7.46-3.884 11.14-1.387 3.68-2.877 7.317-4.45 10.92-1.58 3.587-3.247 7.15-5.114 10.607v.014z"/></g><defs><path id="C" d="M-.31 0H800v716H-.31z"/></defs><clipPath id="D"><use xlink:href="#C" overflow="visible"/></clipPath><g clip-path="url(#D)"><path fill="#8DC63F" d="M663.37 111.146c-.498-26.033-21.743-46.99-47.897-46.99-12.428 0-23.75 4.733-32.264 12.493-10.79-11.74-27.358-19.26-45.948-19.26-28.354 0-52.02 17.48-57.603 40.75-25.07 7.843-42.897 27.862-42.897 51.33 0 30.3 29.736 54.87 66.42 54.87 2.598 0 5.16-.13 7.682-.37 5.404 4.793 13.86 7.883 23.373 7.883 3.42 0 6.7-.405 9.755-1.14 12.22 9.944 29.7 16.172 49.112 16.172 32.24 0 59.15-17.17 65.482-40.028 1.415.123 2.85.19 4.3.19 23.77 0 43.033-16.997 43.033-37.96.002-20.825-19.013-37.725-42.56-37.95l.002.003z"/><path d="M663.37 111.146l-.295-3.416c-.062-.567-.065-1.143-.178-1.703l-.315-1.682-.314-1.678c-.1-.56-.2-1.12-.383-1.662l-.957-3.276c-.326-1.09-.822-2.12-1.224-3.19l-.635-1.58-.788-1.51c-.54-.997-1.004-2.036-1.606-2.995l-1.837-2.86c-.604-.958-1.37-1.8-2.05-2.706l-1.047-1.334-1.166-1.23c-.796-.802-1.517-1.678-2.37-2.417l-2.557-2.225c-.852-.735-1.813-1.337-2.72-2.01l-1.372-.98-1.46-.85c-.988-.544-1.918-1.188-2.947-1.647l-3.06-1.41c-1.02-.466-2.11-.76-3.165-1.15l-1.59-.557-1.636-.395c-1.096-.243-2.174-.566-3.278-.746l-3.33-.458-.83-.115-.84-.034-1.68-.062-1.676-.06-.418-.017-.162-.006-.213.014-.854.053-3.425.205-3.27.51c-1.09.124-2.167.454-3.247.72-1.08.28-2.172.513-3.207.93-1.046.385-2.105.733-3.14 1.14l-3.033 1.39c-.515.214-.994.494-1.476.776l-1.443.83-1.44.836-1.364.96-1.364.957-.68.48-.637.536-2.543 2.15-1.027.867-.934-.954c-1.807-1.844-3.648-3.663-5.69-5.243-.98-.842-2.066-1.553-3.1-2.328-1.075-.71-2.14-1.446-3.255-2.095-1.117-.65-2.23-1.31-3.39-1.874-1.14-.614-2.32-1.136-3.5-1.66-1.174-.543-2.4-.958-3.598-1.443-1.23-.395-2.44-.85-3.687-1.188-1.244-.34-2.482-.713-3.75-.966l-1.89-.418-1.91-.325c-2.546-.44-5.122-.658-7.7-.81l-1.935-.038-.97-.018-.48-.01-.43.02-3.97.183c-.674.015-1.307.09-1.932.18l-1.894.236-1.89.234-1.897.38-1.89.383c-.634.123-1.265.25-1.878.445l-3.71 1.054c-2.415.877-4.847 1.71-7.146 2.86l-1.746.804-1.676.94c-1.108.645-2.27 1.2-3.307 1.953-1.052.724-2.145 1.393-3.167 2.16l-3.005 2.37c-.96.84-1.872 1.73-2.813 2.59-.482.416-.915.883-1.335 1.36l-1.282 1.41c-.895.91-1.633 1.946-2.403 2.953l-1.156 1.51-1.014 1.61c-.676 1.07-1.387 2.123-1.915 3.274l-.86 1.69-.43.844-.35.88c-.442 1.186-.975 2.336-1.35 3.538l-1.05 3.632-.343 1.19-1.165.425c-1.658.606-3.343 1.145-4.98 1.802l-2.43 1.046-1.214.52c-.4.185-.785.397-1.18.595-1.564.81-3.156 1.564-4.638 2.52l-2.26 1.36-2.16 1.51c-2.898 1.99-5.51 4.337-8.02 6.767-2.37 2.558-4.69 5.185-6.55 8.128-1.98 2.863-3.466 6.014-4.784 9.205l-.826 2.458-.41 1.23-.3 1.26-.6 2.52c-.14.85-.243 1.704-.37 2.557-.32 1.7-.276 3.434-.39 5.153l-.024.576.02.684.044 1.364.02.684.063.626.118 1.25c.365 3.386 1.148 6.795 2.31 10.037 2.318 6.51 6.16 12.465 10.973 17.5 2.404 2.52 5.05 4.82 7.875 6.89 2.824 2.067 5.814 3.926 8.95 5.507 6.27 3.165 13.02 5.42 19.964 6.652 3.473.613 6.985.995 10.516 1.156l2.647.06.33.008c.03 0 .17.002.107.004l.17-.003.684-.015 1.365-.03c1.86-.003 3.525-.193 5.28-.296l1.005-.06.833.66 1.55 1.227c.49.44 1.108.74 1.655 1.117.558.367 1.12.727 1.736 1.008.605.3 1.197.62 1.81.907l1.895.75c.62.275 1.285.445 1.94.644.657.18 1.3.424 1.97.56l2.014.42c.664.167 1.353.22 2.035.31.686.076 1.364.187 2.05.237l2.066.086 1.033.045 1.02-.03c.725-.025 1.487-.023 2.124-.1.67-.07 1.32-.086 2.005-.193.68-.104 1.368-.186 2.04-.304l2.02-.413 1.11-.227.938.69 3.255 2.416c.55.39 1.065.83 1.644 1.183l1.735 1.055c1.17.685 2.297 1.443 3.498 2.073l3.66 1.796c1.204.645 2.48 1.11 3.755 1.6 1.275.484 2.53 1.01 3.818 1.46l3.93 1.158 1.963.58 2.003.42 4.013.838c1.343.26 2.71.363 4.066.554l2.034.255c.678.09 1.354.184 2.043.19l4.104.18 2.053.092 2.03-.057c1.4-.05 2.82-.063 4.197-.143 2.693-.284 5.386-.44 8.092-.958 2.723-.355 5.37-1.066 8.04-1.666 2.613-.808 5.27-1.514 7.793-2.57 1.28-.485 2.564-.956 3.785-1.57 1.23-.596 2.497-1.12 3.696-1.77l3.573-2c1.162-.71 2.276-1.497 3.42-2.24 1.17-.71 2.178-1.632 3.268-2.45.53-.425 1.086-.825 1.597-1.272l1.49-1.39 1.493-1.387c.5-.46.92-.994 1.384-1.49.887-1.02 1.878-1.964 2.64-3.085l1.216-1.624c.41-.54.825-1.074 1.15-1.667.677-1.167 1.443-2.29 2.056-3.488.565-1.22 1.18-2.426 1.715-3.662l1.33-3.815.438-1.246 1.265.067 3.96.212.122.006.06.005c.025 0-.112.005-.04.003h.034l.257-.01.512-.02 1.022-.036 2.05-.07c1.35-.08 2.6-.308 3.903-.447.645-.054 1.293-.22 1.94-.357l1.94-.42c2.565-.64 5.083-1.486 7.505-2.56.622-.23 1.21-.533 1.792-.85l1.76-.922c.6-.285 1.153-.65 1.707-1.014l1.666-1.08c.573-.336 1.073-.77 1.598-1.176l1.564-1.228c1.02-.84 1.93-1.81 2.907-2.7.908-.96 1.746-1.987 2.627-2.978.754-1.084 1.55-2.146 2.27-3.255l.974-1.73c.31-.583.69-1.135.922-1.757l.783-1.826.394-.913c.12-.31.2-.63.3-.945.355-1.274.86-2.516 1.034-3.836.237-1.304.537-2.604.564-3.936l.14-1.99.02-.25.01-.06c-.003-.057.003.04 0 .02v-.032l-.007-.13-.02-.51-.05-1.024-.09-2.048c-.08-.658-.202-1.3-.302-1.95-.112-.648-.184-1.303-.327-1.95l-.533-1.93c-.297-1.307-.836-2.533-1.328-3.777-1.008-2.48-2.383-4.8-3.916-7.006-.77-1.1-1.684-2.097-2.52-3.153-.923-.98-1.89-1.92-2.84-2.875-1.044-.853-2.063-1.743-3.13-2.57-1.123-.75-2.21-1.562-3.365-2.265-1.19-.64-2.34-1.37-3.562-1.956-1.24-.537-2.45-1.165-3.725-1.633-1.29-.427-2.555-.942-3.865-1.3-1.32-.317-2.63-.707-3.966-.965-1.347-.203-2.69-.454-4.04-.624l-4.08-.29.01-.007zm0 0l4.1.15c1.36.125 2.714.33 4.075.49 1.354.214 2.682.562 4.026.836 1.34.316 2.63.792 3.95 1.182 1.305.43 2.55 1.022 3.83 1.528 1.26.553 2.45 1.25 3.68 1.877 1.194.68 2.32 1.48 3.49 2.22 1.11.813 2.177 1.7 3.27 2.55.997.95 2.018 1.893 2.99 2.88.886 1.06 1.85 2.07 2.677 3.18 1.64 2.236 3.127 4.607 4.244 7.163.547 1.28 1.14 2.55 1.484 3.908l.606 2.008c.17.68.27 1.387.403 2.08.123.696.27 1.397.37 2.09l.143 2.046.07 1.02.034.513.01.13.003.03.002.084-.006.066-.015.263-.094 2.102c.004 1.41-.27 2.79-.492 4.18-.153 1.403-.645 2.73-.99 4.095-.1.338-.18.683-.298 1.014l-.39.98-.788 1.96c-.23.67-.615 1.266-.93 1.895l-.99 1.863c-.734 1.2-1.55 2.35-2.332 3.523-.904 1.077-1.773 2.19-2.716 3.237-1.01.98-1.97 2.02-3.035 2.935l-1.635 1.336c-.55.44-1.078.913-1.678 1.283l-1.754 1.18c-.58.397-1.163.795-1.792 1.112l-1.853 1.014c-.612.347-1.233.68-1.89.94-2.554 1.185-5.214 2.135-7.935 2.863l-2.06.486c-.686.157-1.362.343-2.08.42-1.405.185-2.854.452-4.23.556l-2.046.11-1.025.055-.51.028-.254.013-.135.003h-.063l-.13-.005-4.23-.15 1.7-1.177-1.368 4.165c-.55 1.35-1.186 2.666-1.78 4-.638 1.31-1.44 2.53-2.16 3.798-.35.645-.78 1.228-1.213 1.813l-1.28 1.763c-.81 1.217-1.847 2.24-2.784 3.348-.49.535-.938 1.113-1.463 1.61l-1.57 1.5-1.57 1.5c-.54.484-1.12.918-1.677 1.378-1.142.885-2.212 1.875-3.433 2.646-1.2.806-2.375 1.652-3.596 2.42l-3.75 2.162c-1.26.705-2.582 1.275-3.873 1.92-1.28.663-2.624 1.18-3.965 1.706-2.647 1.144-5.422 1.928-8.162 2.81-2.794.67-5.57 1.447-8.42 1.86-2.808.58-5.73.79-8.62 1.1-1.42.092-2.81.115-4.22.177l-2.175.074-2.155-.076-4.31-.156c-.72-.004-1.436-.097-2.15-.183l-2.142-.25c-1.43-.187-2.866-.29-4.282-.55l-4.238-.846-2.12-.43-2.08-.595-4.16-1.194c-1.367-.464-2.707-1.01-4.062-1.513-1.353-.51-2.715-1-4-1.67l-3.916-1.885c-1.287-.663-2.508-1.462-3.764-2.188l-1.87-1.117c-.62-.377-1.187-.843-1.782-1.26l-3.526-2.58 2.044.466-2.268.48c-.76.14-1.524.24-2.287.36-.76.123-1.568.16-2.35.242-.815.09-1.51.09-2.25.113l-1.167.032-1.154-.043-2.31-.093c-.768-.053-1.533-.17-2.3-.256-.765-.1-1.534-.16-2.29-.343l-2.273-.47c-.758-.152-1.494-.417-2.24-.624-.745-.222-1.497-.42-2.217-.73l-2.18-.857c-.71-.33-1.405-.7-2.11-1.05-.71-.33-1.38-.747-2.05-1.18-.654-.442-1.36-.8-1.972-1.326l-1.88-1.49 1.84.602c-1.883.123-3.84.326-5.623.33l-1.364.036-.68.018-.174.006-.234-.002-.35-.007-2.812-.055c-3.747-.16-7.484-.556-11.185-1.2-7.398-1.295-14.615-3.678-21.354-7.06-6.73-3.393-12.94-7.895-18.17-13.402-5.226-5.497-9.45-12.05-12-19.28-1.28-3.617-2.14-7.353-2.54-11.206l-.133-1.47-.063-.733-.02-.68-.04-1.365-.02-.68-.004-.084.002-.12.003-.044.008-.18.017-.36c.12-1.91.095-3.834.446-5.725.14-.946.262-1.9.422-2.842l.672-2.793.338-1.398.455-1.36.923-2.72c1.46-3.526 3.12-6.99 5.29-10.12 2.044-3.223 4.577-6.073 7.184-8.818 2.733-2.616 5.582-5.12 8.707-7.234l2.33-1.605 2.43-1.44c1.595-1.002 3.3-1.802 4.976-2.65.424-.207.838-.43 1.267-.623l1.3-.546 2.594-1.09c1.748-.685 3.54-1.245 5.31-1.87l-1.51 1.615 1.185-4c.43-1.32 1.014-2.582 1.516-3.875l.395-.96.48-.925.956-1.846c.597-1.26 1.376-2.4 2.124-3.567l1.123-1.744 1.267-1.64c.85-1.09 1.664-2.206 2.638-3.19l1.402-1.516c.462-.51.934-1.012 1.456-1.46 1.02-.923 2.018-1.873 3.06-2.77l3.265-2.514c1.114-.806 2.294-1.51 3.437-2.267 1.126-.787 2.372-1.367 3.567-2.037l1.807-.975 1.878-.83c2.47-1.185 5.07-2.04 7.65-2.925l3.954-1.06c.655-.198 1.327-.324 1.997-.44l2.01-.38 2.01-.37 2.06-.225 2.056-.22c.69-.08 1.373-.15 2.027-.15l3.97-.122.567-.012.51.018 1.02.032 2.037.07c2.71.2 5.42.475 8.093.98l2.004.374 1.982.47c1.327.288 2.624.695 3.93 1.076 1.305.38 2.57.876 3.86 1.31 1.25.53 2.53.988 3.756 1.577 1.232.57 2.468 1.14 3.654 1.802 1.21.61 2.37 1.323 3.532 2.024 1.163.7 2.27 1.49 3.394 2.253 1.074.83 2.2 1.6 3.22 2.5 2.125 1.694 4.038 3.64 5.903 5.61l-1.96-.087 2.73-2.235.68-.556.728-.5 1.456-.99 1.46-.99 1.534-.86 1.54-.854c.51-.29 1.022-.575 1.57-.794l3.22-1.418c1.097-.417 2.224-.75 3.332-1.126 1.103-.41 2.256-.63 3.396-.896 1.144-.252 2.267-.563 3.456-.672l3.513-.447 3.43-.12.855-.03.216-.006c.17-.005.17.007.268.01l.436.025 1.748.11 1.746.11.87.057.863.14 3.45.566c1.146.217 2.258.577 3.385.86l1.688.452 1.634.614c1.08.43 2.196.77 3.243 1.276l3.128 1.536c1.048.5 1.993 1.19 2.993 1.77l1.48.915 1.39 1.044c.91.716 1.88 1.358 2.74 2.134l2.56 2.347c.854.78 1.57 1.693 2.362 2.534l1.16 1.287 1.036 1.39c.67.94 1.426 1.82 2.02 2.81l1.794 2.957c.59.986 1.02 2.065 1.535 3.092l.74 1.557.59 1.622c.37 1.087.834 2.144 1.125 3.255l.856 3.337c.165.553.25 1.12.33 1.69l.26 1.7.26 1.7c.09.564.08 1.14.12 1.71l.176 3.43h-.01z"/></g><defs><path id="E" d="M-.31 0H800v716H-.31z"/></defs><clipPath id="F"><use xlink:href="#E" overflow="visible"/></clipPath><g clip-path="url(#F)"><path fill="#8DC63F" d="M485.676 421.97s17.56-19.087 17.56-35.883v32.83s6.872-27.485 0-58.024c-6.87-30.54 12.216 45.045 12.216 45.045s3.054-25.193 9.162-41.99c6.107-16.796-8.078 42.755 7.412 58.023"/><path d="M485.676 421.97c1.104-1.262 2.147-2.573 3.164-3.905 1.016-1.33 2.004-2.685 2.942-4.07.963-1.37 1.863-2.78 2.748-4.2l1.287-2.15 1.203-2.198c.413-.728.76-1.486 1.128-2.235.36-.753.746-1.493 1.05-2.27l.964-2.307.813-2.36c.3-.776.467-1.592.686-2.392.21-.803.44-1.6.54-2.423.13-.818.29-1.63.38-2.45l.128-2.464c.054-.82.004-1.67.013-2.505l-.01-1.252v-.157c-.23-.012 2.01-.003 1.06.004v.454l.005.63.037 5.028.07 10.06.144 20.118-1.553-.19c.54-2.387.95-4.854 1.324-7.303.352-2.46.672-4.923.9-7.396.247-2.472.405-4.952.534-7.433l.13-3.725.02-3.727c.02-1.242-.04-2.482-.074-3.725-.045-1.24-.056-2.482-.16-3.72l-.254-3.716c-.11-1.235-.267-2.467-.393-3.7-.22-2.476-.696-4.913-1.04-7.37-.49-2.436-.94-4.854-1.503-7.298l-.803-3.678c-.13-.624-.256-1.213-.36-1.91-.01-.12-.03-.13-.025-.422-.01.005.04-.323.13-.45-.307-.483 2.275-.46 1.56-.21.072.064.177.223.18.237l.04.07c.05.104.055.125.082.19.068.187.118.337.17.496l.28.92c.708 2.423 1.355 4.833 2.003 7.25l3.756 14.527 7.347 29.084-1.754.11c.297-2.27.625-4.52.983-6.775.332-2.254.75-4.496 1.136-6.74.387-2.248.864-4.48 1.295-6.72.44-2.235 1.01-4.45 1.508-6.674.485-2.23 1.17-4.413 1.745-6.622.544-2.216 1.36-4.363 2.06-6.543.365-1.086.69-2.17 1.14-3.244.23-.548.418-1.056.8-1.667.06-.087.11-.168.25-.29.056-.05.177-.15.384-.205.144-.026.298-.026.43.03.144.053.263.15.3.2.225.285.2.38.24.5.02.107.03.197.044.287.03.34.025.635.02.934-.093 2.336-.36 4.57-.567 6.84-.445 4.525-.854 9.044-1.11 13.57-.263 4.53-.41 9.066-.285 13.6.135 4.525.506 9.062 1.455 13.49.48 2.21 1.11 4.396 1.994 6.48.892 2.076 2.056 4.066 3.648 5.694-1.646-1.577-2.88-3.542-3.842-5.607-.963-2.07-1.656-4.26-2.188-6.48-1.06-4.44-1.54-9-1.78-13.553-.468-9.116.13-18.242.9-27.302.177-2.26.41-4.542.468-6.753.002-.27-.002-.546-.024-.77-.006-.055-.015-.106-.02-.137.006-.017-.053-.063.076.11.02.02.104.104.215.143.1.033.217.054.324.02.14-.03.204-.09.204-.09.03-.03-.004.006-.023.04-.22.352-.444.914-.64 1.416-.413 1.03-.73 2.13-1.075 3.2-.654 2.164-1.432 4.283-1.94 6.493-.537 2.195-1.185 4.363-1.634 6.586-.47 2.217-.99 4.42-1.412 6.646-.413 2.228-.88 4.444-1.254 6.68-.37 2.236-.773 4.468-1.095 6.71-.35 2.24-.665 4.49-.946 6.726l-.587 4.646-1.168-4.536-7.48-29.04-3.818-14.496c-.64-2.41-1.27-4.833-1.955-7.21l-.262-.875-.13-.39c-.006-.006-.026-.06-.01-.023l.01.018c-.006-.003.085.142.146.188-.72.234 1.828.25 1.52-.215.09-.106.13-.417.12-.39 0-.14.005.006.015.04.077.54.21 1.176.327 1.773l.78 3.65c.55 2.43 1 4.935 1.485 7.398.34 2.494.81 4.975 1.02 7.483.125 1.252.273 2.502.38 3.756l.24 3.768c.1 1.254.105 2.513.145 3.77.03 1.258.085 2.516.056 3.77l-.033 3.772-.147 3.77c-.143 2.51-.313 5.02-.575 7.52-.244 2.5-.572 4.995-.95 7.48-.415 2.488-.86 4.948-1.46 7.43l-1.6 6.625.05-6.81.144-20.116.072-10.06.033-5.03.004-.63v-.452c-.95-.005 1.295-.014 1.063-.002v.158l-.01 1.258c-.018.843.02 1.668-.047 2.522l-.186 2.555c-.114.842-.3 1.674-.446 2.51-.124.845-.382 1.653-.61 2.47-.24.81-.434 1.64-.756 2.42l-.88 2.38-1.03 2.312c-.32.778-.73 1.518-1.11 2.27-.39.746-.756 1.505-1.19 2.227l-1.26 2.184-1.345 2.135c-.923 1.405-1.858 2.8-2.856 4.15-.985 1.36-2.017 2.688-3.077 3.987-1.064 1.306-2.15 2.584-3.29 3.813l-.005-.015z"/></g></svg>