<svg xmlns="http://www.w3.org/2000/svg" width="399.225" height="290.8" viewBox="0 0 399.225 290.8"><path fill="#fff" d="M395.603 248.45c-1-4.898-4.1-9.197-8.4-11.8-1.5-.897-3.198-1.6-4.9-2v-30.5c5.5-2.8 9-8 10.104-13.2 1.698-7.898.5-14.5-3.802-19.8-1.8-2.2-3.9-4-6.3-5.2v-9.6c.102-6-1.8-10.9-5.6-14.7-3.4-3.9-8.3-5.9-13.602-5.9-1.2 0-2.5.1-3.8.302-6.3 1-12.9 1.9-19.5 2.7-4.115.472-7.717 1.923-10.636 4.115-.536-4.96-2.636-9.147-5.965-12.116l3.3-2.8c2.5-2.1 3.5-5.5 2.4-8.7-1-3.1-3.9-5.3-7.2-5.5-.4 0-.8 0-1.1-.1-1.2-.1-2.4-.1-3.7-.1-1.7 0-6.102 0-10.3 2.8v-10c0-1.2 0-4.8-2.7-7.6-1.3-1.6-3.7-2.6-6.2-2.6-.9 0-1.8.1-2.8.3-2 .5-4.3.7-6.602.9-6.398.6-10.3 5-10.3 11.4 0 2 0 4.1.1 6.1-.698-.3-1.398-.6-2.198-.8-2.4-.7-4.8-1-7.2-1-7.4 0-14.2 3.4-18.8 9-.2-1.6-.9-3.8-2.7-5.6-1.3-1.3-3.5-2.8-7.1-2.8h-.9c-1.2.1-2.4.1-3.6.1s-2.4 0-3.7-.1h-.9c-3.2 0-5.4 1.2-6.7 2.4-.2-.1-.3-.2-.5-.3-2.3-1.6-5-2.3-8.398-2.3-1.3 0-2.602.1-3.7.2-.9.1-1.7.1-2.4.1h-.598c-1.766 0-3.197.385-4.34.916-2.18-6.507-5.59-11.75-10.406-15.566 1.02-.68 1.955-1.49 2.747-2.448 3.898-4.7 3-9.9 2.4-13-4.2-22.8-16.4-43.5-34.302-58.3-17.6-14.9-40-23-62.8-23-4.5 0-9.1.3-13.7 1-23.8 3.3-45.5 15.1-61.1 33.2-15.6 18-24.2 41.1-24.3 65.2-.2 3.9.3 8.1.7 11.8 2 15.8 7.5 30.5 16.5 43.8.152.23.31.44.465.653-3.352 7.202-4.9 14.995-4.565 23.346.4 10.4 4.2 19.4 11 26 6.1 5.9 14.1 9.3 23.2 10 0 16.1 0 32.2-.1 48.2 0 6.2 2 11.4 5.898 15.3 2.7 2.7 7.4 5.9 14.9 5.9h.898c3-.1 6-.1 9-.1s5.9 0 8.9.1h.9c7.5 0 12.3-3.2 14.9-5.9l.9-.9c.3.304.6.6.9.9 2.7 2.7 7.5 5.9 15.1 5.9h1c2.8-.1 5.8-.1 8.9-.1 3 0 6.2 0 9.4.1h.7c7.3 0 12-3.2 14.6-5.8.423-.424.81-.863 1.188-1.313 1.85 1.443 3.72 2.637 5.514 3.613 6.3 3.4 13.3 5.2 20.4 5.2 8.1 0 15.8-2.2 22.4-6.3 3.698 2.397 7.398 3.7 10.198 4.397 4.3 1.102 8.6 1.602 12.7 1.602 5.2 0 10.3-.9 15.1-2.604 2.2.8 4.9 1.398 8 1.398h.7c3.4-.1 6.4-.1 9.4-.1 3.1 0 6 0 8.9.1h.798c7.4 0 12.2-3.197 14.8-5.898 1.2-1.2 2.2-2.5 3-3.898 6 5.6 13.602 9.2 22.602 10.5 2.5.397 4.9.6 7.3.6 6 0 13.4-1.2 20.6-5.7 5.7 3.3 13.102 5.5 22.5 5.5h1c10.102-.1 19.302-4.5 25.302-11.9 6.003-7.497 8.303-17.6 6.203-27.698zM201.08 163.837l-.026.007.018-.027c.002.008.006.014.01.02z"/><path fill="#EB3939" d="M183.37 87.715c1.3.3 2.1.5 2.7.5 1.1 0 1-.8.5-3.4-7.7-41.7-44.3-71.3-85.4-71.3-3.9 0-8 .2-12 .7-43.2 6.1-75.1 42.7-75.1 86.8-.102 2.9.3 6.5.7 10 1.698 14 6.6 26.8 14.5 38.5.6.7 1 1.2 1.398 1.2s.8-.3 1.4-1.1c2.6-3.4 5.7-6.4 9.2-8.9 1.5-1.1 1.8-1.8.698-3.6-9.2-15.102-12.3-31.3-9.5-48.7 5.3-33.2 35.6-57.8 68.3-57.8 4.7 0 9.5.5 14.3 1.6 28.102 6.4 45.9 23.9 53.602 51.6.4 1.7 1 2.602 2.6 2.602h.6c.602-.102 1.302-.102 2-.102 3.2 0 6.4.7 9.5 1.4zM106.342 62.29c19.7 3 30.1 15.7 33.4 35.1 4-2.6 7.5-5.898 12.1-7.1 2.6-.7 2.7-1.9 2-4.102-6.1-20.4-19.3-33.9-40-38.9-4.9-1.197-9.7-1.798-14.3-1.798-15.1 0-28.5 6.3-39.7 18.8-16 17.7-18.2 44.8-5.6 65 .7 1.2 1.4 1.8 2.3 1.8.5 0 1-.2 1.7-.5 4.3-2 8.9-3 13.8-4.1-11.7-15.5-13.7-31.6-2.9-47.802 7.4-11.1 17.9-16.9 30.4-16.9 2.2 0 4.5.1 6.8.5z"/><path fill="#FEC609" d="M125.42 100.268c-.3-13.2-11.2-23.9-23.9-23.9-.3 0-.5 0-.9.102-13.397.5-24 11.398-23.8 24.5.2 13.2 11.103 24 24 24h.603c13.498-.403 24.397-11.603 23.998-24.702zm-24.4 9.4c-4.8-.102-8.9-4.2-9-9 0-4.802 4.2-9.102 9.1-9.102 4.9 0 9.2 4.2 9.102 9.1-.002 4.9-4.3 9.102-9.202 9z"/><path d="M194.803 156.05c4.5-10.5 6.1-21.4 4.1-32.6-2-10.9-7.7-19.1-18.8-22.3-3.5-1-7-1.5-10.5-1.5-4.7 0-9.4.9-13.9 2.6-7.198 2.8-12.6 7.6-14.3 15.5-1.7 8.1 2.4 13.4 11.102 13.6-.5-1-.9-1.7-1.3-2.4-4.5-9.2.3-20.898 9.898-24 2.4-.8 4.9-1.2 7.4-1.2 1.9 0 3.7.2 5.6.6 5.4 1.102 8.9 4.4 10.8 9.4 1 2.7 1.5 5.5 1.8 8.302.9 9.5.302 19-2.198 28.2-.7 2.7-1.8 5.2-3.7 7.3-1.4 1.5-2.9 2.1-4.6 2.1-1 0-2-.2-3-.5-2.9-.9-2.102-3.1-2.102-5-.1-14.5-.1-28.9 0-43.4 0-1.7-.4-2.398-1.6-2.398-.3 0-.6 0-1 .1-2.6.5-5.1 1-7.6 1.1-2.302.1-2.802 1-2.802 3.2.106 14.8.106 29.7.106 44.6 0 3-1 6.9.5 8.6.7.802 1.8 1 3 1 1.6 0 3.4-.4 5.1-.4h.602c.4.104.9.104 1.3.104 1.6 0 2.9-.5 2.4-3.302 1 .5 1.5.802 2 1.1 3.4 1.9 6.3 2.803 9 2.803 4.6 0 8.3-2.807 11.5-8.706.4-.808.8-1.708 1.2-2.507zm134.497 4c0-1.2 0-1.8-1.2-1.8h-.6c-.5.1-.9.1-1.3.1-2.802 0-3.9-1.4-4.5-4.7-.5-2.9-.302-5.8-.4-8.8-.3-6.1-4-10.1-10-10.8-1.3-.1-2.5-.1-4.3-.2 5-4.2 9.398-7.9 14.3-12-1.5-.1-3-.2-4.4-.2-3.198 0-6 .6-8.198 3.7-2.6 3.6-5.7 6.7-8.6 10-.5-.3-1-.7-1.5-1v-2.9c0-8.398-.1-16.7 0-25.1.1-1.5-.202-2.2-1.302-2.2-.3 0-.7.1-.8.3-2.5.5-5.102.8-7.602 1-2.1.2-3 1-3 3.4.2 12.6.103 25.3.103 37.9 0 5.7-4.1 11-9.6 12.5-1.6.4-3 .6-4.3.6-4.7 0-7.5-2.8-8.4-8.7-1-6.7-.3-13.4 1.7-19.9.4-1.198 1-2.5 1.8-3.5.9-1.1 1.9-1.698 2.9-1.698 1.2 0 2.4.9 3 2.6.7 1.7.8 3.6.6 5.4-.1 1.2.3 1.8 1.5 2.2.6.2 1.2.3 1.7.3 1.8 0 3.105-1.2 3.5-3.6.8-5.102-1.895-9.5-7-11-1.6-.5-3.3-.7-4.895-.7-6.102 0-11.7 3.4-14.602 9.3-3.6 7.3-4.197 15.1-2.697 23 .3 1.7-.2 2.8-1.302 3.7-1.197 1-2.5 1.5-3.8 1.5-.7 0-1.3-.1-2-.4-2.2-.9-2.3-3-2.3-4.9 0-9.7-.1-19.4 0-29.1 0-1.7-.2-2.5-1.9-2.5h-.396c-1.4.1-2.7.1-4.102.1-1.396 0-2.8 0-4.197-.1h-.4c-1.7 0-2 .7-2 2.4.1 8.4 0 16.7 0 25.1 0 1.3-.1 2.6-.4 3.9-.7 3.1-2.8 5.3-4.898 5.3h-.602c-3.397-.6-3.3-3.5-3.3-6-.1-6.8 0-13.7-.1-20.5 0-3.3 1.6-8.1-.602-9.6-1-.7-2.3-.9-3.8-.9-2 0-4.1.3-6.1.3h-.7c-1.1 0-1.6.4-1.6 1.7.1 10.7-.2 21.4.2 32.1.2 7.3 4.8 11.6 11.4 11.6.8 0 1.7-.1 2.6-.2 4.5-.698 7.4-3.5 9.5-8 1.602 5.8 5.3 8.2 10.7 8.2h.1c5.3-.1 9.3-2.5 12.3-7 3.6 5.2 8.6 7 14.1 7 .8 0 1.7 0 2.5-.1 6.5-.602 11.5-4 15.603-9.8 0 2.9.1 5.1 0 7.198-.1 1.602.4 2.102 1.8 2.102h.3c1.4-.102 2.9-.102 4.3-.102 1.2 0 2.4 0 3.6.102h.6c1.8 0 2.4-.8 2.3-2.9-.2-5.3-.1-10.6 0-15.898.104-3.6 2.8-6.3 6.104-6.4h.198c3 0 4.4 1.7 4.604 5.8.1 2.3-.102 4.7-.2 7-.2 7.5 4.9 12.9 11.3 12.9 1.2 0 2.5-.2 3.7-.6 3.197-.903 4.896-3.204 4.996-6.503z" fill="#FEC70A"/><path fill="#EB3939" d="M138.526 139.8h-.3c-3.2.1-6.4.1-9.6.1-3.202 0-6.4 0-9.602-.1h-.4c-2.2 0-2.898.6-2.898 3.1.1 15.3 0 30.6.1 45.9 0 2.4-.7 3.1-2.8 3.1h-.5c-1.8-.1-3.7-.1-5.5-.1h-9.3c-1.6 0-3.4.4-4.9.4-1.1 0-2.1-.2-2.7-.802-1.8-1.7-.6-5.198-.6-7.9V142.5c0-1.2.6-2.602-1.7-2.7-1.2-.1-2.4-.1-3.6-.1-14.4 0-27.5 3.8-38.7 13.1-9.4 7.6-15.6 17.1-15.1 29.9.398 11.5 7.6 18.8 19.8 18.8.8 0 1.6 0 2.4-.102-12.5-19.4-2.9-43.6 12-48.7v7.6c0 35.802 0 71.603-.102 107.4 0 2.4.6 3.103 2.8 3.103h.4c3.1-.1 6.3-.1 9.5-.1 3.1 0 6.3 0 9.398.1h.4c2.3 0 2.8-.8 2.8-3.2-.1-19.8 0-39.6-.1-59.394 0-2.5.398-3.602 3-3.602h.398c3.102.103 6.3.2 9.4.2 3.2 0 6.5-.1 9.8-.2h.4c2.398 0 3.1.8 3.1 3.5-.1 19.8 0 39.603-.1 59.4 0 2.7.8 3.3 3 3.3h.398c3.102-.1 6.3-.1 9.4-.1 3.3 0 6.6 0 9.9.1h.198c2 0 2.4-.7 2.4-2.7-.1-41.8-.1-83.6 0-125.4.01-2.1-.39-2.9-2.49-2.9zm202.478 116.7c5 11.6 13.7 13.7 22.4 13.7h.698c10.1-.103 16.2-8 14.1-17.9-2.198.7-4.1 1-5.8 1-5.1 0-7.7-3.1-7.8-9.5-.2-17.7 0-35.5-.1-53.2 0-1.5.4-2.1 1.8-2.1h.3c.8.1 1.7.1 2.6.1h4.1c.802 0 1.4-.1 1.702-1.2 1-4.4 0-5.8-4.4-5.8h-2.3c-.5 0-.9 0-1.4.102h-.7c-1.5 0-1.8-.9-1.8-2.602.102-7.5 0-15.1.102-22.6 0-1.5-.2-2.2-1.4-2.2-.3 0-.6.1-.8.3-6.8 1.1-13.5 2-20.3 2.8-2.1.3-2.6 1.1-2.6 3.1.1 6.1-.103 12.1.1 18.1.1 2.202-.2 3.5-2.1 3.5-.302 0-.7 0-1.103-.1-.3-.1-.6-.1-.8-.1-1.8 0-1.8 1.5-1.6 3 .2 1.5-1 4.1 1.7 4.1.3 0 .5-.1.8-.1.398-.1.6-.1.898-.1 1.9 0 2.306 1.1 2.306 3.3-.1 12.5-.3 25.102.1 37.602.2 6.1-1.8 11.398-3.6 16.898-.3.8-.7 1.5-1.1 2.2-1.9 3.2-5 4.9-8.5 4.9-.9 0-1.7-.103-2.6-.302-3.2-.8-5.2-3.6-5.7-8.2-.4-3.897-.4-7.698-.3-11.6.198-10.3 1.5-20.8-.302-31.1-1.7-9.9-6.1-17.9-16.7-20.4-2.5-.6-5-.898-7.3-.898-6.9 0-13.1 2.698-18.2 9.6 0-2.6-.2-4.5 0-6.4.103-1.9-.397-2.6-2.3-2.6h-.2c-3.397.1-6.7.1-10.1.1-3.2 0-6.3 0-9.5-.1h-.4c-2.2 0-2.897.6-2.897 3.1.1 18.802-.2 37.5.2 56.302.2 6.1-4.7 12.398-11.9 12.398-.4 0-.8-.1-1.2-.1-3.6-.4-5.6-1.9-6.5-5.4-.7-2.6-.7-5.2-.7-7.898 0-18.3 0-36.5.102-54.8 0-2.6-.4-3.7-3-3.7h-.5c-3 .1-6 .2-9 .2-3.3 0-6.5-.1-9.7-.2h-.4c-2.3 0-2.7 1-2.7 3.3.1 17.5.1 35.1 0 52.6-.1 5.2-1.1 10.2-5.4 13.8-1.8 1.5-3.7 2.2-5.5 2.2-3.2 0-5.9-2.3-6.8-6.4-.6-2.3-.6-4.698-.6-7 0-18.6 0-37.1.1-55.7 0-2.197-.6-2.798-2.6-2.798h-.3c-3.2.1-6.5.1-9.7.1-3.4 0-6.8 0-10.2-.1h-.2c-1.9 0-2.4.698-2.4 2.6.1 7.4 0 14.9 0 22.3.1 13.5-.2 26.9.2 40.4.2 8.5 2.8 16.398 11 20.8 3.8 2 7.9 3 11.9 3 9.1 0 17.8-5 22.2-13.9.397-.8.397-2.1 1.698-2.3 1.9 7.102 5.6 12.602 13 14.5 2.9.7 5.7 1.102 8.4 1.102 6.8 0 13-2.3 18.6-7.5.4-.3.6-1 1.3-1 .102 0 .2 0 .4.1 0 1.5.2 2.9 0 4.3-.4 2.4.6 3 2.7 3h.3c3.3-.1 6.6-.1 9.9-.1 3.1 0 6.3 0 9.398.1h.3c2.3 0 2.7-.9 2.7-3.1v-51.4c0-4.1.7-8.1 2.4-11.9 1.7-3.8 4.4-5.897 7.7-5.897h.7c4.1.294 5.897 3.194 7 6.694 1.6 5.2 1.5 10.5 1.5 15.8-.103 10.3-1.2 20.6.897 30.8 2.5 11.7 9.2 18.2 20.3 19.9 1.6.3 3.1.398 4.6.398 8.802 0 15.302-4.3 20.302-13.3.1-.205.3-.404.502-.606z"/></svg>