<svg xmlns="http://www.w3.org/2000/svg" width="106.656" height="104.5" viewBox="0 0 106.656 104.5"><path fill="#0080C7" d="M106.425 47.46c-13.975 0-25.89-3.767-34.455-10.897-8.78-7.306-13.615-17.887-13.984-30.598.016-.475.006-2.748-1.44-4.27-.81-.852-1.92-1.302-3.215-1.302-3.474 0-4.413 3.636-4.422 5.525-.358 12.732-5.194 23.328-13.984 30.644C26.354 43.692 14.44 47.46.464 47.46L0 47.457v2.787h1.39v-.006c14.235-.165 26.43-4.146 35.31-11.536 9.422-7.842 14.604-19.15 14.984-32.73 0-.03.055-2.796 1.645-2.796.7 0 1.012.246 1.19.43.61.635.7 1.867.68 2.28l-.003.057v.055c.384 13.554 5.565 24.863 14.987 32.705 8.83 7.35 20.94 11.328 35.075 11.534v.008h1.39V47.46h-.23z"/><path fill="#00A4E0" d="M106.425 48.853c-28.583 0-49.063-15.622-49.83-42.895 0 0 .213-4.175-3.267-4.175-3.014 0-3.035 4.175-3.035 4.175C49.525 33.23 29.047 48.853.463 48.853c-.153 0-.31-.005-.463-.006V104.5h106.656V48.85l-.23.003z"/><path fill="#00B8E9" d="M36.88 39.06c-8.864 7.38-20.993 11.39-35.14 11.635L0 50.708V104.5h106.656V50.708l-1.97-.017c-14.05-.28-26.09-4.29-34.91-11.63C60.25 31.13 55.01 19.7 54.626 6.01l-.003-.073.004-.073c.016-.42-.1-1.466-.555-1.938-.13-.134-.344-.287-.86-.287-1.094 0-1.18 2.31-1.18 2.332v.032c-.386 13.69-5.625 25.12-15.15 33.05l-.002.002z"/></svg>