<svg xmlns="http://www.w3.org/2000/svg" xmlns:xlink="http://www.w3.org/1999/xlink" width="62.167" height="147.167" viewBox="0 0 62.167 147.167"><defs><path id="a" d="M0 0h62.167v147.167H0z"/></defs><clipPath id="b"><use xlink:href="#a" overflow="visible"/></clipPath><g clip-path="url(#b)"><path fill="#8DC63F" d="M-77.333-154.21H791.66V98.46H-77.334v-252.67z"/><path d="M792.223 97.632H-76.77l.886.645V-154.39l-2.013 1.005h868.992l-.886-.644V98.64c0 1.216 2.89.59 2.89-.36v-252.67c0-.493-.438-.644-.886-.644H-76.77c-.49 0-2.014.27-2.014 1.005V98.64c0 .492.44.645.886.645h868.994c1.088 0 3.087-1.65 1.128-1.65v-.003z"/></g><defs><path id="c" d="M0 0h62.167v147.167H0z"/></defs><clipPath id="d"><use xlink:href="#c" overflow="visible"/></clipPath><g clip-path="url(#d)"><path fill="#00A4E0" d="M43.826-24.19c-28.583 0-49.063-15.62-49.83-42.894 0 0 .21-4.175-3.268-4.175-3.014 0-3.035 4.18-3.035 4.18-.768 27.27-21.246 42.898-49.83 42.898-.154 0-.31-.004-.463-.005v55.65H44.057v-55.65l-.23.004v-.003z"/><path fill="#00B8E9" d="M-25.72-33.983c-8.866 7.38-20.995 11.39-35.142 11.637l-1.738.013V31.46H44.057v-53.793l-1.97-.017c-14.05-.286-26.09-4.293-34.91-11.633C-2.35-41.913-7.59-53.34-7.976-67.033l-.002-.072.004-.073c.015-.42-.1-1.466-.555-1.938-.13-.134-.34-.287-.86-.287-1.09 0-1.18 2.313-1.18 2.337v.032c-.38 13.693-5.62 25.12-15.15 33.05z"/><path fill="#00A4E0" d="M150.482-24.19c-28.583 0-49.063-15.62-49.83-42.894 0 0 .21-4.175-3.266-4.175-3.016 0-3.035 4.18-3.035 4.18-.76 27.27-21.24 42.898-49.83 42.898-.15 0-.31-.004-.46-.005v55.65h106.66v-55.65c-.075 0-.15.004-.23.004l-.002-.003z"/><path fill="#00B8E9" d="M80.938-33.983c-8.867 7.38-20.994 11.39-35.142 11.637l-1.74.013V31.46h106.66v-53.793l-1.973-.017c-14.05-.286-26.09-4.293-34.91-11.633-9.526-7.93-14.766-19.357-15.15-33.05l-.002-.072.01-.073c.018-.42-.1-1.466-.553-1.938-.13-.134-.342-.287-.86-.287-1.093 0-1.18 2.313-1.18 2.337v.032c-.386 13.693-5.624 25.12-15.15 33.05h-.004z"/></g><defs><path id="e" d="M0 0h62.167v147.167H0z"/></defs><clipPath id="f"><use xlink:href="#e" overflow="visible"/></clipPath><g clip-path="url(#f)"><path fill="#8DC63F" d="M-77.333-154.21H791.66V98.46H-77.334v-252.67z"/><path d="M792.195 97.537H-76.798l.92.77V-154.36l-1.994 1.073H791.12l-.92-.77V98.61c0 1.354 2.914.796 2.914-.303V-154.36c0-.508-.43-.77-.92-.77H-76.8c-.56 0-1.994.258-1.994 1.072V98.61c0 .507.43.77.92.77H791.12c1.216 0 3.035-1.843 1.073-1.843h.002z"/></g><defs><path id="g" d="M0 0h62.167v147.167H0z"/></defs><clipPath id="h"><use xlink:href="#g" overflow="visible"/></clipPath><g clip-path="url(#h)"><path fill="#00A4E0" d="M43.826-24.19c-28.583 0-49.063-15.62-49.83-42.894 0 0 .21-4.175-3.268-4.175-3.014 0-3.035 4.18-3.035 4.18-.768 27.27-21.246 42.898-49.83 42.898-.154 0-.31-.004-.463-.005v55.65H44.057v-55.65l-.23.004v-.003z"/><path fill="#00B8E9" d="M-25.72-33.983c-8.866 7.38-20.995 11.39-35.142 11.637l-1.738.013V31.46H44.057v-53.793l-1.97-.017c-14.05-.286-26.09-4.293-34.91-11.633C-2.35-41.913-7.59-53.34-7.976-67.033l-.002-.072.004-.073c.015-.42-.1-1.466-.555-1.938-.13-.134-.34-.287-.86-.287-1.09 0-1.18 2.313-1.18 2.337v.032c-.38 13.693-5.62 25.12-15.15 33.05z"/><path fill="#00A4E0" d="M150.482-24.19c-28.583 0-49.063-15.62-49.83-42.894 0 0 .21-4.175-3.266-4.175-3.016 0-3.035 4.18-3.035 4.18-.76 27.27-21.24 42.898-49.83 42.898-.15 0-.31-.004-.46-.005v55.65h106.66v-55.65c-.075 0-.15.004-.23.004l-.002-.003z"/><path fill="#00B8E9" d="M80.938-33.983c-8.867 7.38-20.994 11.39-35.142 11.637l-1.74.013V31.46h106.66v-53.793l-1.973-.017c-14.05-.286-26.09-4.293-34.91-11.633-9.526-7.93-14.766-19.357-15.15-33.05l-.002-.072.01-.073c.018-.42-.1-1.466-.553-1.938-.13-.134-.342-.287-.86-.287-1.093 0-1.18 2.313-1.18 2.337v.032c-.386 13.693-5.624 25.12-15.15 33.05h-.004z"/></g><defs><path id="i" d="M0 0h62.167v147.167H0z"/></defs><clipPath id="j"><use xlink:href="#i" overflow="visible"/></clipPath><g clip-path="url(#j)"><linearGradient id="k" gradientUnits="userSpaceOnUse" x1="-37.16" y1="-43.322" x2="-37.16" y2="86.677" gradientTransform="matrix(1 0 0 -1 8.4 123.177)"><stop offset="0" stop-color="#8B5E3C"/><stop offset="1" stop-color="#754C29"/></linearGradient><path fill="url(#k)" d="M-58.76 36.5h60v130h-60v-130z"/><path fill="#3C2415" d="M1.24 166.6c-5 .132-10 .204-15 .297-5 .104-10 .138-15 .2l-15 .16-15 .07-.82.002-.004-.83-.074-16.25.062-16.25c0-5.42.11-10.838.16-16.25l.198-16.25c.082-5.42.104-10.838.127-16.25.02-5.42.07-10.838.03-16.25l-.07-16.25-.16-16.25-.008-.54.552-.01 15-.17 15-.12 29.997-.157.99-.005.005 1 .07 16.25L2.273 69 2.25 85.25c.005 5.416-.057 10.832-.094 16.25l-.124 16.25L1.855 134l-.22 16.25-.297 16.348H1.24v.002zm-.1-.2l-.293-16.148-.222-16.25-.176-16.25-.13-16.25C.29 96.086.223 90.67.23 85.252l-.027-16.25-.026-16.25.062-16.25.992.994-30-.154-15-.122-15-.17.55-.548-.16 16.25-.07 16.25c-.04 5.417.012 10.833.033 16.25.023 5.418.045 10.834.127 16.25l.198 16.25c.05 5.418.16 10.834.16 16.25l.064 16.25-.075 16.25-.827-.824 15 .07 15 .16c5 .06 10 .094 15 .2 4.966.09 9.93.163 14.9.292z"/><linearGradient id="l" gradientUnits="userSpaceOnUse" x1="22.84" y1="-43.322" x2="22.84" y2="86.677" gradientTransform="matrix(1 0 0 -1 8.4 123.177)"><stop offset="0" stop-color="#8B5E3C"/><stop offset="1" stop-color="#754C29"/></linearGradient><path fill="url(#l)" d="M1.24 36.5h60v130h-60v-130z"/><path fill="#3C2415" d="M61.24 166.6c-5 .132-10 .204-15 .297-5 .104-10 .138-15 .2l-15 .16-15 .07-.82.002-.005-.83-.073-16.25.06-16.25c.003-5.42.112-10.837.162-16.25L.76 101.5c.084-5.416.105-10.832.13-16.25C.91 79.835.96 74.42.92 69L.855 52.75.695 36.5l-.007-.54.553-.007 15-.17 15-.122 30-.15h.99l.01 1 .07 16.25L62.277 69l-.028 16.25c.006 5.416-.056 10.832-.092 16.25l-.125 16.25-.177 16.25-.22 16.25-.3 16.348h-.096v.002zm-.1-.2l-.294-16.148-.22-16.25-.178-16.25-.127-16.25c-.03-5.416-.1-10.832-.09-16.25l-.02-16.25-.028-16.25.068-16.25.993.994-30-.154-15-.122-15-.17.548-.548-.16 16.25-.065 16.25c-.04 5.417.016 10.833.038 16.25.022 5.418.045 10.834.127 16.25l.198 16.25c.05 5.418.16 10.834.16 16.25l.063 16.25-.072 16.25-.828-.824 15 .07 15 .16c5 .06 10 .094 15 .2 4.967.09 9.932.163 14.9.292h-.002z"/><linearGradient id="m" gradientUnits="userSpaceOnUse" x1="82.84" y1="-43.322" x2="82.84" y2="86.677" gradientTransform="matrix(1 0 0 -1 8.4 123.177)"><stop offset="0" stop-color="#8B5E3C"/><stop offset="1" stop-color="#754C29"/></linearGradient><path fill="url(#m)" d="M61.24 36.5h60v130h-60v-130z"/><path fill="#3C2415" d="M121.24 166.6c-5 .132-10 .204-15 .297-5 .104-10 .138-15 .2l-15 .16-15 .07-.822.002-.004-.83-.072-16.25.06-16.25c.002-5.42.112-10.837.16-16.25l.197-16.25c.08-5.42.1-10.837.123-16.25s.072-10.83.03-16.25l-.064-16.25-.16-16.25-.006-.54.554-.01 15-.17 15-.12 30-.15.99-.01.004 1 .067 16.25-.026 16.25-.026 16.25c.005 5.416-.057 10.832-.093 16.25l-.125 16.25-.176 16.25-.223 16.25-.294 16.35h-.1zm-.102-.2l-.292-16.148-.22-16.25-.18-16.25-.123-16.25c-.037-5.416-.1-10.832-.094-16.25l-.03-16.25-.027-16.25.067-16.25.995.994-30-.154-15-.122-15-.17.546-.548-.16 16.25-.063 16.25c-.04 5.417.01 10.833.034 16.25.025 5.418.047 10.834.13 16.25l.198 16.25c.05 5.418.16 10.834.16 16.25l.06 16.25-.07 16.25-.826-.824 15 .07 15 .16c5 .06 10 .094 15 .2 4.97.09 9.934.163 14.9.292h-.004z"/><path fill="#603913" d="M-118.758 30.168h959.996v11.666h-959.996V30.168z"/><path fill="#3C2415" d="M841.338 41.934l-120.1.422-120 .243-120 .1-120-.04-240-.48-60-.05-60 .076-119.997.152h-.53v-.533l-.012-11.664v-.546h.548l240-.39 240-.098 120 .064 120 .227 119.997.227 120 .374h.143v.143l-.042 11.765v.005zm-.2-.2l-.04-11.565.14.14-120 .37-119.998.223-120 .227-120 .065-240-.095-239.998-.39.547-.55-.02 11.668-.53-.533 120 .154 60 .074 60-.05 240-.48 120-.04 120 .11 119.992.242 119.9.42z"/><linearGradient id="n" gradientUnits="userSpaceOnUse" x1="352.508" y1="94.011" x2="352.508" y2="122.341" gradientTransform="matrix(1 0 0 -1 8.4 123.177)"><stop offset="0" stop-color="#754C29"/><stop offset=".133" stop-color="#79502C"/><stop offset=".608" stop-color="#865A37"/><stop offset="1" stop-color="#8B5E3C"/></linearGradient><path fill="url(#n)" d="M-119.09.835h959.996v28.33H-119.09V.835z"/><path fill="#3C2415" d="M841.006 29.266l-120.1.417-120 .244-120 .107-120-.03-240-.472-60-.057-60 .052-119.997.15h-.518v-.512l-.036-28.33v-.55h.55l240-.385 240-.103 120 .05 120 .223 119.997.224 120 .342h.2l-.002.198-.097 28.432zm-.2-.2l-.1-28.23.2.198-120 .342-120 .223-120 .22-120 .05-240-.107-239.996-.388.547-.55-.035 28.33-.512-.51 120 .15 60 .05 59.998-.055 240-.473 120-.03 120 .11 119.998.242 119.9.416v.005z"/></g></svg>