<svg xmlns="http://www.w3.org/2000/svg" width="36.876" height="36.886" viewBox="230.249 413.464 36.876 36.886" enable-background="new 230.249 413.464 36.876 36.886"><path fill="#EB3939" d="M267.125 431.916c0 10.206-8.256 18.443-18.49 18.434-10.167 0-18.395-8.284-18.386-18.517.007-10.15 8.29-18.37 18.506-18.37 10.122.02 18.368 8.295 18.368 18.453z"/><path fill="#FEFEFE" d="M248.692 446.693c-8.144 0-14.777-6.624-14.786-14.767-.01-8.145 6.623-14.777 14.776-14.786 8.144-.01 14.777 6.613 14.786 14.767 0 8.144-6.632 14.786-14.776 14.786z"/><path fill="#EB3939" d="M260.315 431.916c0 6.42-5.215 11.633-11.633 11.633s-11.632-5.226-11.624-11.644c0-6.41 5.224-11.623 11.652-11.623 6.39.01 11.605 5.224 11.605 11.632z"/><path fill="#FEFEFE" d="M256.892 431.927c-.01 4.523-3.704 8.208-8.218 8.19-4.524-.01-8.21-3.704-8.19-8.22.008-4.524 3.703-8.21 8.217-8.19 4.517.02 8.2 3.713 8.193 8.22z"/><path fill="#FEC609" d="M253.823 431.916c0 2.836-2.295 5.14-5.13 5.14-2.855 0-5.15-2.294-5.15-5.148 0-2.836 2.305-5.13 5.14-5.13 2.835-.002 5.14 2.303 5.14 5.138z"/><path fill="#FEFEFE" d="M248.682 433.838c-1.054 0-1.93-.887-1.92-1.93.007-1.056.894-1.933 1.938-1.923 1.045.01 1.904.867 1.912 1.91 0 1.056-.875 1.943-1.93 1.943z"/></svg>